<svg width="134" height="37" viewBox="0 0 134 37" fill="none" xmlns="http://www.w3.org/2000/svg">
<path d="M14.916 4.25748C16.1979 4.24332 17.481 4.23461 18.764 4.25857C18.796 4.37293 18.8281 4.48729 18.8612 4.60275C19.5689 4.60819 20.2712 4.69097 20.9779 4.71711C20.9768 4.83256 20.9746 4.94801 20.9746 5.06346C21.3058 5.08306 21.6371 5.10703 21.9683 5.12118C21.9661 5.23773 21.9639 5.35426 21.9617 5.47081C22.3768 5.49586 22.7898 5.54922 23.2039 5.57863C23.2017 5.69953 23.1994 5.81934 23.1972 5.94023C23.3772 5.9533 23.5583 5.96528 23.7394 5.97726C23.7361 6.09707 23.7339 6.21688 23.7317 6.3356C24.0022 6.36065 24.2716 6.39441 24.5432 6.42491C24.5565 6.54798 24.5708 6.67106 24.5863 6.79413C24.8601 6.82681 25.1339 6.86275 25.41 6.8878C25.4111 7.02177 25.4122 7.15682 25.4144 7.29079C25.5657 7.29297 25.7181 7.29515 25.8693 7.29624C25.8671 7.42802 25.8649 7.5609 25.8638 7.69269C26.0151 7.70358 26.1674 7.71338 26.3187 7.72428C26.3309 7.85497 26.343 7.98676 26.3563 8.11746C26.491 8.13162 26.6257 8.14469 26.7615 8.15885C26.7758 8.29173 26.7902 8.42569 26.8057 8.55966C26.9348 8.57164 27.0662 8.58362 27.1965 8.59451C27.2076 8.74046 27.2197 8.88641 27.2319 9.03236C27.3677 9.03236 27.5035 9.03127 27.6393 9.03127C27.6393 9.18048 27.6404 9.33079 27.6426 9.48109C27.7784 9.48109 27.9142 9.48218 28.0501 9.48218C28.0854 9.74576 28.1318 10.0082 28.1671 10.2718C28.2974 10.2718 28.4288 10.2707 28.5613 10.2707C28.5657 10.4406 28.5712 10.6105 28.5767 10.7805C28.7004 10.7783 28.8263 10.7772 28.9511 10.775C28.9798 11.0451 29.0151 11.3152 29.0405 11.5864C29.1575 11.5843 29.2746 11.5832 29.3927 11.5821C29.4225 11.874 29.4568 12.1648 29.4799 12.4578C29.5981 12.4567 29.7162 12.4556 29.8344 12.4545C29.8377 12.6353 29.8421 12.8172 29.8465 12.9991C29.9724 13.0056 30.0983 13.0132 30.2242 13.0198C30.254 13.7005 30.3291 14.3779 30.3633 15.0587C30.4803 15.0652 30.5974 15.0728 30.7155 15.0805C30.8005 17.2512 30.8314 19.4229 30.7034 21.5925C30.5841 21.5904 30.466 21.5882 30.3478 21.5871C30.3224 22.0282 30.2794 22.4671 30.2672 22.9093C30.1491 22.9072 30.0309 22.905 29.9128 22.9039C29.8918 23.2263 29.8609 23.5476 29.8377 23.8689C29.7207 23.8667 29.6047 23.8645 29.4888 23.8624C29.4667 24.1542 29.4314 24.4461 29.4004 24.738C29.2812 24.7359 29.1631 24.7326 29.0449 24.7315C29.0217 25.0201 28.9853 25.3077 28.9533 25.5963C28.8318 25.5941 28.7114 25.5919 28.5911 25.5908C28.5591 25.8588 28.5204 26.1267 28.4928 26.3957C28.3581 26.3946 28.2223 26.3946 28.0876 26.3957C28.0854 26.546 28.0843 26.6974 28.0832 26.8488C27.9551 26.8477 27.827 26.8466 27.6989 26.8466C27.6824 27.0089 27.6647 27.1712 27.6481 27.3346C27.5145 27.3324 27.3831 27.3313 27.2506 27.3302C27.2495 27.4784 27.2484 27.6276 27.2473 27.7779C27.1049 27.7779 26.9613 27.7779 26.82 27.7768C26.8189 27.9216 26.8178 28.0665 26.8167 28.2125C26.6698 28.2135 26.5241 28.2146 26.3794 28.2157C26.3783 28.3573 26.3772 28.5 26.3761 28.6438C26.2271 28.6438 26.078 28.6448 25.9301 28.6448C25.9301 28.7853 25.9312 28.9258 25.9323 29.0674C25.7799 29.0685 25.6286 29.0696 25.4773 29.0696C25.4784 29.1981 25.4784 29.3256 25.4796 29.4541C25.3128 29.4628 25.1461 29.4726 24.9794 29.4824C24.9805 29.6131 24.9827 29.7438 24.9849 29.8745C24.7088 29.8985 24.4339 29.9311 24.1579 29.9573C24.1579 30.076 24.159 30.1958 24.1601 30.3156C23.8675 30.345 23.5749 30.3799 23.2823 30.4038C23.2845 30.5226 23.2867 30.6402 23.29 30.76C22.9952 30.7894 22.7015 30.8232 22.4056 30.8449C22.4078 30.9615 22.4111 31.0791 22.4133 31.1957C22.0864 31.2196 21.7607 31.2469 21.4339 31.2643C21.435 31.3808 21.4372 31.4984 21.4405 31.6161C20.9878 31.6259 20.5362 31.6542 20.0857 31.6803C20.0846 31.7947 20.0835 31.9091 20.0835 32.0245C17.9259 32.1116 15.7651 32.1291 13.6075 32.0212C13.6064 31.9069 13.6053 31.7925 13.6042 31.6792C13.1537 31.6509 12.7032 31.6204 12.2527 31.6117C12.2549 31.493 12.2572 31.3743 12.2594 31.2567C11.9314 31.237 11.6046 31.2109 11.2767 31.1935C11.2789 31.0748 11.2822 30.9582 11.2844 30.8406C10.9852 30.8221 10.687 30.7938 10.3889 30.7676C10.3911 30.6489 10.3933 30.5302 10.3955 30.4126C10.1018 30.3897 9.80922 30.3559 9.51661 30.3254C9.51882 30.2056 9.52213 30.0858 9.52434 29.9671C9.25051 29.9388 8.97667 29.9028 8.70284 29.8745C8.70505 29.746 8.70615 29.6175 8.70726 29.49C8.54384 29.477 8.38042 29.465 8.21701 29.453C8.2159 29.3245 8.2137 29.1949 8.21259 29.0664C8.06132 29.0653 7.91005 29.0642 7.75878 29.062C7.75878 28.9215 7.76099 28.781 7.76209 28.6416C7.61192 28.6416 7.46176 28.6405 7.31159 28.6405C7.31049 28.4989 7.30938 28.3562 7.30828 28.2157C7.16363 28.2146 7.01899 28.2135 6.87434 28.2125C6.87324 28.0665 6.87213 27.9195 6.87213 27.7735C6.72638 27.7735 6.58174 27.7735 6.43709 27.7735C6.43599 27.6254 6.43599 27.4794 6.43709 27.3324C6.29134 27.3324 6.14559 27.3324 5.99984 27.3324C5.99984 27.1854 5.99984 27.0372 5.99984 26.8902C5.86955 26.8924 5.73926 26.8935 5.61007 26.8957C5.59682 26.7301 5.58247 26.5646 5.56922 26.4001C5.44113 26.4012 5.31194 26.4034 5.18386 26.4055C5.14963 26.1387 5.10767 25.8729 5.07676 25.6061C4.95751 25.6083 4.83715 25.6105 4.7179 25.6126C4.70576 25.4351 4.69361 25.2565 4.68147 25.08C4.5578 25.0811 4.43524 25.0844 4.31157 25.0866C4.28838 24.7947 4.25415 24.5039 4.22434 24.2131C4.10399 24.2163 3.98253 24.2185 3.86217 24.2218C3.83678 23.8101 3.78599 23.4005 3.76169 22.9888C3.64244 22.991 3.5243 22.9943 3.40615 22.9965C3.3918 22.6686 3.36861 22.3408 3.34874 22.013C3.23169 22.014 3.11355 22.0151 2.9954 22.0173C2.85407 19.4469 2.85297 16.871 3.00092 14.3028C3.11907 14.3028 3.23611 14.3017 3.35426 14.3017C3.38407 13.8671 3.4194 13.4326 3.44701 12.998C3.57178 12.9947 3.69655 12.9925 3.82132 12.9904C3.82574 12.8063 3.82905 12.6222 3.83236 12.4382C3.95382 12.4403 4.07417 12.4425 4.19563 12.4447C4.21551 12.1528 4.24422 11.8609 4.27182 11.569C4.39217 11.5701 4.51363 11.5723 4.63399 11.5734C4.66049 11.288 4.69803 11.0037 4.73336 10.7195C4.85482 10.7206 4.97738 10.7216 5.09884 10.7238C5.13528 10.4581 5.17613 10.1945 5.20594 9.92873C5.33955 9.92765 5.47315 9.92547 5.60786 9.92329C5.61007 9.7719 5.61117 9.62159 5.61228 9.4702C5.75361 9.47238 5.89494 9.47347 6.03738 9.47456C6.03959 9.32643 6.0418 9.1783 6.04401 9.03018C6.17319 9.02582 6.30238 9.02038 6.43157 9.01602C6.45144 8.86463 6.47132 8.71323 6.4923 8.56184C6.62149 8.55639 6.75067 8.55204 6.88097 8.54768C6.88759 8.42134 6.89422 8.295 6.90194 8.16865C7.05432 8.14687 7.20669 8.12509 7.35907 8.10439C7.36349 7.97587 7.3679 7.84844 7.37342 7.72101C7.52028 7.72101 7.66713 7.71992 7.81509 7.71883C7.81399 7.57615 7.81399 7.43238 7.81288 7.2897C7.96526 7.28861 8.11653 7.28752 8.2689 7.28534C8.2689 7.15138 8.27001 7.01632 8.27001 6.88236C8.54274 6.85513 8.81547 6.8181 9.0882 6.78651C9.08488 6.66452 9.08157 6.54145 9.07936 6.41946C9.25492 6.41402 9.43049 6.40857 9.60605 6.40313C9.60715 6.2746 9.60715 6.14717 9.60715 6.01974C9.89976 5.99796 10.1913 5.96637 10.4828 5.93479C10.4805 5.8128 10.4772 5.69082 10.475 5.56883C10.7765 5.55249 11.0779 5.52526 11.3793 5.50021C11.3771 5.3804 11.3749 5.26169 11.3727 5.14188C11.6753 5.12881 11.9767 5.1092 12.2781 5.09069C12.2837 4.97306 12.2892 4.85434 12.2936 4.73562C13.1559 4.70404 14.0139 4.60492 14.8762 4.60601C14.8895 4.48947 14.9027 4.37402 14.916 4.25748ZM14.4644 5.56665C14.4622 5.68319 14.46 5.79973 14.4578 5.91627C14.1254 5.92063 13.7919 5.9337 13.4596 5.94677C13.4541 6.06658 13.4485 6.18638 13.4441 6.30619C13.0091 6.33342 12.574 6.36501 12.139 6.39006C12.1346 6.50877 12.1302 6.62749 12.1258 6.74621C11.6973 6.77453 11.27 6.82027 10.8427 6.86602C10.8449 6.98256 10.846 7.10019 10.8482 7.21673C10.5733 7.24069 10.2984 7.27445 10.0234 7.30277C10.0256 7.42476 10.0278 7.54783 10.0289 7.67091C9.8578 7.67526 9.68665 7.68071 9.51661 7.68616C9.51661 7.81794 9.51661 7.94973 9.51772 8.08043C9.2494 8.11419 8.98219 8.15776 8.71499 8.19153C8.71278 8.32767 8.71167 8.4649 8.70947 8.60105C8.5593 8.60214 8.41024 8.60214 8.26117 8.60214C8.26117 8.74373 8.26117 8.88532 8.26117 9.028C8.11432 9.028 7.96636 9.02691 7.81951 9.02691C7.80957 9.1685 7.79853 9.31009 7.78749 9.45168C7.64726 9.45822 7.50813 9.46475 7.36901 9.47129C7.37011 9.61615 7.37011 9.76209 7.37011 9.90804C7.22547 9.90804 7.08192 9.90804 6.93728 9.90804C6.93617 10.0573 6.93507 10.2076 6.93286 10.3579C6.79815 10.36 6.66455 10.3611 6.52984 10.3633C6.49672 10.628 6.45255 10.8905 6.41611 11.154C6.27919 11.1519 6.14338 11.1508 6.00647 11.1508C6.00205 11.3218 5.99874 11.4928 5.99542 11.6638C5.87507 11.6616 5.75472 11.6594 5.63436 11.6561C5.60676 11.923 5.56922 12.1898 5.5383 12.4567C5.42126 12.461 5.30311 12.4665 5.18607 12.473C5.16288 12.7867 5.12976 13.1015 5.10326 13.4151C4.98842 13.413 4.87249 13.4108 4.75765 13.4097C4.71349 13.9532 4.63951 14.4945 4.62515 15.0402C4.51032 15.0391 4.39659 15.0391 4.28176 15.0391C4.25967 15.5194 4.22655 15.9986 4.23097 16.4789C4.11282 16.4778 3.99578 16.4768 3.87874 16.4768C3.83899 17.7358 3.85003 18.9949 3.8953 20.254C4.00903 20.2551 4.12276 20.2561 4.23649 20.2583C4.2409 20.597 4.25636 20.9358 4.27292 21.2734C4.39107 21.2734 4.50811 21.2734 4.62626 21.2734C4.63951 21.6808 4.6649 22.0859 4.69803 22.4922C4.85151 22.49 5.00499 22.4878 5.15847 22.4857C5.16178 22.3582 5.16619 22.2297 5.16951 22.1023C5.30532 22.1023 5.44113 22.1023 5.57694 22.1023C5.58799 21.9552 5.59792 21.8082 5.60786 21.6612C5.73594 21.6579 5.86403 21.6557 5.99101 21.6524C6.00978 21.4945 6.02744 21.3366 6.04622 21.1798C6.17761 21.1798 6.30901 21.1808 6.4404 21.183C6.4404 21.0382 6.4404 20.8933 6.4404 20.7484C6.58836 20.7474 6.73632 20.7474 6.88428 20.7484C6.88428 20.6036 6.88428 20.4598 6.88428 20.3171C7.19786 20.3182 7.51255 20.3204 7.82724 20.3258C7.82613 20.4565 7.82503 20.5872 7.82282 20.719C8.08892 20.7561 8.35392 20.8007 8.62113 20.8356C8.62444 20.9695 8.62886 21.1046 8.63328 21.2397C8.78124 21.2418 8.9292 21.2429 9.07715 21.244C9.07715 21.3856 9.07826 21.5261 9.07936 21.6677C9.23063 21.6677 9.3808 21.6688 9.53097 21.6688C9.52986 21.8093 9.52876 21.9498 9.52765 22.0914C9.67782 22.0925 9.82799 22.0936 9.97705 22.0946C9.98147 22.2243 9.98478 22.3539 9.98809 22.4835C10.1427 22.5031 10.2973 22.5216 10.4518 22.5412C10.454 22.6708 10.4574 22.8004 10.4596 22.9311C10.613 22.9311 10.7665 22.9322 10.92 22.9344C10.9189 23.0716 10.9178 23.2089 10.9167 23.3461C11.0658 23.3472 11.2137 23.3483 11.3628 23.3504C11.3661 23.4866 11.3694 23.6227 11.3716 23.7589C11.6576 23.7959 11.9425 23.8406 12.2284 23.8776C12.203 21.8387 12.2925 19.7965 12.1567 17.7609C12.0363 17.7631 11.9171 17.7641 11.7967 17.7663C11.7956 17.0203 11.7768 16.2742 11.789 15.527C11.62 15.5205 11.4511 15.515 11.2822 15.5096C11.2811 15.3876 11.2811 15.2667 11.2811 15.1458C11.1574 15.148 11.0348 15.1491 10.9112 15.1513C10.909 14.9726 10.9057 14.794 10.9012 14.6165C11.323 14.6317 11.7459 14.6328 12.1677 14.6285C12.1666 14.5108 12.1666 14.3943 12.1677 14.2777C11.7448 14.2734 11.3219 14.2756 10.9001 14.2875C10.9057 14.1133 10.9112 13.939 10.9167 13.7658C11.0404 13.7658 11.164 13.7669 11.2888 13.768C11.2899 13.6188 11.2921 13.4696 11.2954 13.3204C11.4301 13.3182 11.5648 13.316 11.7007 13.3149C11.7305 13.0492 11.7713 12.7845 11.8067 12.5188C11.938 12.5209 12.0683 12.522 12.1997 12.5242C12.213 12.3608 12.2262 12.1975 12.2384 12.0352C12.3676 12.0352 12.4968 12.0363 12.6259 12.0363C12.627 11.8849 12.6282 11.7335 12.6304 11.5821C12.764 11.581 12.8987 11.581 13.0334 11.5821C13.0632 11.3141 13.104 11.0473 13.1361 10.7794C13.2619 10.7815 13.3878 10.7837 13.5137 10.7859C13.5292 10.6214 13.5457 10.457 13.5612 10.2925C13.6915 10.2925 13.8207 10.2936 13.9509 10.2947C13.9521 10.1422 13.9532 9.98973 13.9554 9.83725C14.089 9.83616 14.2215 9.83507 14.3551 9.83616C14.386 9.56931 14.429 9.30574 14.4644 9.03998C14.6002 9.04107 14.7371 9.04107 14.8729 9.04107C14.874 8.89403 14.8751 8.74809 14.8762 8.60214C15.0242 8.58907 15.1711 8.576 15.319 8.56184C15.3334 8.26886 15.3466 7.97587 15.3554 7.6818C15.1942 7.67962 15.033 7.67853 14.8729 7.67744C14.8818 7.40624 14.8884 7.13613 14.8895 6.86602C15.5995 6.84206 16.3072 6.78651 17.0172 6.78106C17.0161 6.66343 17.0161 6.54472 17.015 6.42709C17.6102 6.41402 18.2053 6.40639 18.8004 6.42273C18.8004 6.5665 18.8016 6.71027 18.8027 6.85404C18.9517 6.85513 19.0997 6.85513 19.2487 6.85622C19.2543 7.27554 19.2509 7.69596 19.2399 8.11637C19.0864 8.1033 18.9329 8.09023 18.7795 8.07825C18.7927 8.25143 18.8049 8.42569 18.817 8.59996C18.9594 8.59996 19.1019 8.59887 19.2443 8.59778C19.2443 8.74264 19.2454 8.8875 19.2454 9.03236C19.3934 9.03345 19.5402 9.03345 19.6882 9.03345C19.6882 9.17939 19.6882 9.32534 19.6882 9.47238C19.8339 9.47238 19.9808 9.47238 20.1266 9.47238C20.1266 9.61723 20.1266 9.76318 20.1277 9.90804C20.2734 9.90804 20.4203 9.90913 20.5671 9.90804C20.5671 10.0518 20.5671 10.1956 20.5682 10.3383C20.7173 10.3393 20.8652 10.3393 21.0143 10.3393C21.0143 10.4853 21.0143 10.6323 21.0143 10.7794C21.1601 10.7794 21.3058 10.7794 21.4516 10.7794C21.4516 10.9242 21.4516 11.0691 21.4516 11.2139C21.5995 11.215 21.7464 11.215 21.8932 11.215C21.8932 11.3588 21.8932 11.5026 21.8943 11.6474C22.0412 11.6474 22.1891 11.6474 22.3371 11.6474C22.3382 11.7999 22.3393 11.9535 22.3415 12.1071C22.4784 12.1081 22.6153 12.1103 22.7534 12.1125C22.7556 12.3979 22.7622 12.6843 22.7655 12.9708C22.9135 12.962 23.0614 12.9533 23.2105 12.9446C23.2392 13.2191 23.2734 13.4925 23.2988 13.7669C23.417 13.7637 23.5362 13.7604 23.6555 13.7582C23.6864 14.0501 23.7195 14.342 23.7427 14.635C23.8653 14.6306 23.9878 14.6274 24.1115 14.6252C24.1126 14.8038 24.1137 14.9835 24.1148 15.1632C24.2462 15.1632 24.3787 15.1632 24.5112 15.1632C24.5244 15.4551 24.5443 15.747 24.5587 16.0389C24.6879 16.0389 24.8171 16.0389 24.9462 16.04C24.9584 16.3025 24.9761 16.565 24.9948 16.8286C24.8347 16.8177 24.6757 16.8057 24.5178 16.7948C24.5664 17.7064 24.5774 18.6224 24.4935 19.5329C24.6713 19.5112 24.8513 19.4905 25.0302 19.4719C25.0335 19.3151 25.0379 19.1572 25.0423 19.0003C25.1715 19.0014 25.3007 19.0025 25.431 19.0036C25.431 18.8566 25.431 18.7095 25.4321 18.5625C25.5767 18.5614 25.7214 18.5614 25.8671 18.5625C25.8671 18.4133 25.8682 18.263 25.8704 18.1138C26.004 18.1116 26.1387 18.1094 26.2734 18.1083C26.3143 17.8491 26.3662 17.5921 26.4082 17.3328C26.6654 17.3328 26.9227 17.3296 27.1811 17.323C27.18 17.4603 27.1811 17.5986 27.1811 17.7369C27.3357 17.738 27.4891 17.7402 27.6448 17.7413C27.6448 17.8709 27.6448 18.0016 27.6459 18.1312C27.8027 18.1497 27.9606 18.1682 28.1185 18.1867C28.1207 18.3153 28.124 18.4449 28.1262 18.5734C28.2786 18.5745 28.4321 18.5756 28.5856 18.5777C28.5845 18.7117 28.5834 18.8457 28.5823 18.9796C28.8804 19.0047 29.1774 19.0385 29.4755 19.0679C29.4877 17.6247 29.449 16.1827 29.3574 14.7417C29.2392 14.7417 29.1211 14.7406 29.0029 14.7406C29.0029 14.5511 29.0018 14.3627 29.0007 14.1732C28.8749 14.171 28.749 14.1677 28.6231 14.1656C28.5988 13.7375 28.5547 13.3095 28.5149 12.8825C28.3957 12.8847 28.2775 12.8869 28.1605 12.8902C28.1395 12.6004 28.1075 12.3118 28.0766 12.0243C27.9529 12.0254 27.8303 12.0275 27.7067 12.0286C27.6835 11.7563 27.6503 11.4841 27.6261 11.2107C27.5002 11.2129 27.3765 11.215 27.2517 11.2161C27.2462 11.0484 27.2418 10.8796 27.2363 10.7118C27.1027 10.7118 26.9691 10.7129 26.8355 10.714C26.799 10.4504 26.7538 10.189 26.7184 9.92547C26.5804 9.92329 26.4413 9.92002 26.3033 9.91675C26.3022 9.7719 26.3011 9.62595 26.3011 9.48109C26.1542 9.48 26.0084 9.47891 25.8627 9.47782C25.8605 9.33405 25.8605 9.1892 25.8605 9.04543C25.7114 9.04434 25.5635 9.04325 25.4155 9.04216C25.4111 8.9071 25.4067 8.77205 25.4045 8.63808C25.1373 8.60432 24.8723 8.55966 24.6062 8.52263C24.6073 8.38757 24.6073 8.25143 24.6073 8.11637C24.4549 8.11528 24.3036 8.1142 24.1523 8.11311C24.1534 7.98459 24.1546 7.85606 24.1557 7.72754C23.9856 7.7221 23.8156 7.71665 23.6455 7.71121C23.6455 7.5816 23.6455 7.45199 23.6466 7.32238C23.3562 7.29406 23.0669 7.25485 22.7777 7.22217C22.7777 7.10345 22.7788 6.98474 22.7799 6.86602C22.4795 6.84641 22.1792 6.81701 21.88 6.79413C21.8822 6.6765 21.8844 6.55779 21.8877 6.44016C21.3345 6.40748 20.7846 6.34322 20.2326 6.3149C20.2281 6.19618 20.2259 6.07747 20.2226 5.95875C19.6308 5.9337 19.0389 5.89776 18.446 5.90211C18.446 5.78557 18.4471 5.66794 18.4471 5.55031C17.1188 5.51546 15.7916 5.55467 14.4644 5.56665ZM21.8645 12.8891C22.0125 14.0806 21.986 15.2787 21.9771 16.4757C21.8292 16.4691 21.6812 16.4637 21.5344 16.4572C21.5288 16.7251 21.5178 16.993 21.5046 17.2599C21.6371 17.2599 21.7684 17.261 21.8998 17.262C21.891 17.1063 21.8822 16.9505 21.8733 16.7948C22.0257 16.8024 22.1781 16.81 22.3316 16.8177C22.2951 15.9398 22.315 15.0609 22.2951 14.1819C22.4508 14.1873 22.6065 14.1928 22.7633 14.1982C22.7633 13.9042 22.771 13.6101 22.7788 13.316C22.6518 13.3193 22.5259 13.3226 22.4011 13.3258C22.4056 13.1788 22.4111 13.0328 22.4166 12.8858C22.2322 12.8869 22.0478 12.888 21.8645 12.8891ZM15.8148 15.185C15.8159 15.3168 15.8181 15.4497 15.8203 15.5826C15.51 15.5804 15.1998 15.5826 14.8895 15.5804C14.8994 15.7242 14.9094 15.8668 14.9193 16.0106C14.6179 16.0095 14.3175 16.0215 14.0172 16.0291C14.0249 16.174 14.0338 16.3199 14.0415 16.4659C13.8803 16.4561 13.718 16.4463 13.5568 16.4365C13.5579 16.565 13.5579 16.6946 13.5579 16.8231C13.8295 16.8111 14.1 16.8013 14.3716 16.797C14.3639 16.6619 14.3562 16.5258 14.3496 16.3918C14.6134 16.382 14.8773 16.3635 15.1412 16.3373C15.2506 16.4898 15.3488 16.6488 15.404 16.8286C15.2075 16.8438 15.0109 16.8591 14.8133 16.8732C14.8166 16.9974 14.8199 17.1226 14.8232 17.2479C14.6731 17.249 14.5229 17.2501 14.3727 17.2512C14.3694 17.3927 14.3672 17.5332 14.365 17.6748C14.2303 17.6737 14.0967 17.6727 13.9631 17.6727C13.9454 18.4176 13.962 19.1637 13.9995 19.9076C15.298 19.9697 16.5954 19.8434 17.8939 19.8455C17.8928 19.7279 17.8917 19.6114 17.8906 19.4948C18.478 19.5003 19.0632 19.4425 19.6473 19.3881C19.6827 18.4231 19.6926 17.4559 19.6462 16.492C18.2583 16.3079 16.8505 16.3395 15.4614 16.4778C15.2296 16.4016 15.2174 16.138 15.1953 15.9387C15.5144 15.9398 15.8324 15.9354 16.1515 15.9354C16.135 15.7808 16.1184 15.6261 16.1019 15.4715C17.0371 15.5216 17.9756 15.5118 18.912 15.4715C18.8943 15.6272 18.8777 15.7819 18.8612 15.9376C19.2697 15.942 19.6772 15.9311 20.0846 15.8973C20.0846 15.8058 20.0846 15.7143 20.0846 15.6229C19.7876 15.6043 19.4906 15.5836 19.1935 15.5738C19.1957 15.4431 19.1979 15.3124 19.2002 15.1828C18.0717 15.1371 16.9421 15.1262 15.8148 15.185ZM25.9422 19.5166C25.951 19.6593 25.9588 19.8031 25.9676 19.9468C25.8042 19.9327 25.6419 19.9185 25.4796 19.9054C25.4796 20.0677 25.4807 20.2289 25.4807 20.3912C25.3437 20.3901 25.2057 20.389 25.0688 20.3879C25.0544 20.792 25.0489 21.1972 25.0533 21.6023C25.1991 21.5991 25.3459 21.5969 25.4928 21.5947C25.4895 21.7483 25.4873 21.9019 25.484 22.0554C25.7545 22.0413 26.0239 22.0282 26.2944 22.0217C26.2933 21.9106 26.2944 21.8006 26.2944 21.6906C26.1553 21.6927 26.0162 21.6949 25.8771 21.6982C25.8417 21.2244 25.8329 20.7506 25.8671 20.2779C26.0096 20.279 26.152 20.2812 26.2944 20.2834C26.2856 20.1418 26.2768 20.0002 26.2679 19.8586C26.7195 19.8793 27.17 19.8651 27.6216 19.8477C27.6205 19.7366 27.6205 19.6255 27.6216 19.5144C27.0618 19.4861 26.502 19.4894 25.9422 19.5166ZM27.2937 21.2985C27.2915 21.4281 27.2893 21.5566 27.2871 21.6862C27.1292 21.6851 26.9724 21.684 26.8156 21.6829C26.8167 21.7984 26.8167 21.9149 26.8178 22.0326C27.0961 22.0369 27.3743 22.0467 27.6526 22.0587C27.6382 21.8986 27.6238 21.7385 27.6084 21.5784C27.7674 21.5904 27.9264 21.6034 28.0854 21.6154C28.071 21.4553 28.0589 21.2941 28.0478 21.134C27.7994 21.2037 27.5488 21.2636 27.2937 21.2985ZM21.5156 21.6906C21.4792 21.9803 21.446 22.2711 21.4273 22.563C21.605 22.5597 21.7828 22.5564 21.9606 22.5543C21.9606 22.4061 21.9595 22.2591 21.9584 22.1121C22.0997 22.1132 22.2421 22.1143 22.3835 22.1153C22.4 21.9345 22.4177 21.7537 22.4354 21.574C22.1295 21.6198 21.8237 21.6622 21.5156 21.6906ZM25.0743 23.0106C25.0787 23.1555 25.0843 23.3014 25.0898 23.4463C24.053 23.382 23.0139 23.4245 21.9771 23.4408C21.9816 23.6935 21.9838 23.9473 21.9816 24.2011C22.2333 24.1924 22.4839 24.1858 22.7357 24.1826C22.7324 24.0475 22.7302 23.9114 22.7291 23.7763C23.6234 23.8166 24.5178 23.7719 25.4122 23.7676C25.4012 23.6173 25.389 23.4681 25.378 23.3189C26.4159 23.3439 27.4538 23.3711 28.4906 23.3189C28.4906 23.2165 28.4906 23.1152 28.4906 23.0139C27.3522 22.954 26.2127 23.003 25.0743 23.0106ZM26.8322 24.3089C26.8333 24.4265 26.8355 24.5453 26.8377 24.6629C26.0659 24.6476 25.2963 24.725 24.5256 24.7315C24.5244 24.8469 24.5233 24.9624 24.5233 25.0789C23.6334 25.0887 22.7434 25.128 21.8546 25.1486C21.8546 25.263 21.8546 25.3785 21.8557 25.495C20.8233 25.5179 19.792 25.5734 18.7596 25.581C18.7596 25.6954 18.7585 25.8098 18.7585 25.9252C17.5925 25.9524 16.4287 26.0189 15.2638 26.0407C15.2583 26.1572 15.2539 26.2748 15.2494 26.3914C14.3595 26.387 13.4717 26.4545 12.5818 26.4578C12.5818 26.5733 12.5829 26.6898 12.584 26.8063C11.4478 26.8129 10.3138 26.8891 9.17874 26.9131C9.15224 27.0285 9.12574 27.1429 9.09813 27.2583C8.80001 27.2649 8.50078 27.2769 8.20265 27.2878C8.20155 27.4283 8.19934 27.5698 8.19713 27.7125C9.25492 27.8127 10.3138 27.6886 11.3738 27.7147C11.3716 27.5938 11.3694 27.474 11.3683 27.3542C11.9657 27.3368 12.5619 27.2943 13.1593 27.2845C13.1593 27.169 13.1593 27.0536 13.1582 26.9381C14.3286 26.9033 15.499 26.8684 16.6683 26.8314C16.6683 26.7127 16.6672 26.595 16.6672 26.4774C17.8144 26.4698 18.9594 26.4012 20.1067 26.3827C20.1056 26.2639 20.1045 26.1463 20.1034 26.0276C21.1358 25.9906 22.1726 26.0505 23.2006 25.9383C23.1983 25.8207 23.1961 25.7019 23.1939 25.5843C24.2241 25.581 25.2532 25.5277 26.2834 25.5048C26.2823 25.3883 26.2801 25.2728 26.2801 25.1563C26.7339 25.153 27.1877 25.116 27.6415 25.092C27.6327 24.823 27.6283 24.554 27.6294 24.2849C27.3633 24.2958 27.0983 24.3045 26.8322 24.3089ZM9.63807 25.2096C9.63807 25.3436 9.63807 25.4787 9.63807 25.6137C8.74369 25.5919 7.84932 25.6028 6.95605 25.6181C6.95605 25.7259 6.95605 25.8337 6.95605 25.9426C8.09665 25.9655 9.23726 25.9666 10.3768 25.9296C10.3701 25.7869 10.3635 25.6442 10.3569 25.5015C10.8118 25.5222 11.2678 25.519 11.7238 25.5179C11.7227 25.4024 11.7227 25.287 11.7238 25.1715C11.0282 25.1617 10.3326 25.1846 9.63807 25.2096Z" fill="white"/>
<path d="M35.6506 5.11607C36.8056 5.09538 37.9594 5.09102 39.1144 5.10953C39.1353 5.24132 39.1574 5.37311 39.1795 5.50599C39.3054 5.52341 39.4313 5.54193 39.5582 5.55936C39.5593 6.2586 39.6377 6.95566 39.6322 7.65599C39.7504 7.6549 39.8685 7.6549 39.9878 7.6549C39.9889 8.26918 40.0617 8.88129 40.0639 9.49558C40.181 9.49449 40.298 9.49449 40.4162 9.4934C40.4305 10.0805 40.4548 10.6664 40.4725 11.2535C40.594 11.2546 40.7154 11.2567 40.8369 11.2589C40.8589 12.1237 40.9175 12.9874 40.9451 13.8511C41.0632 13.85 41.1825 13.8489 41.3028 13.8468C41.3061 14.1408 41.315 14.4349 41.3238 14.7301C41.4861 14.7301 41.6484 14.7312 41.8118 14.7323C41.8218 14.1474 41.8461 13.5636 41.8439 12.9787C41.962 12.9787 42.0802 12.9787 42.1994 12.9787C42.2016 12.2512 42.2866 11.5258 42.2833 10.7982C42.3993 10.796 42.5163 10.7949 42.6344 10.7928C42.6367 10.1796 42.7106 9.56855 42.7117 8.95427C42.8299 8.95535 42.948 8.95753 43.0673 8.95862C43.0772 8.11997 43.1645 7.2835 43.1733 6.44484C43.2914 6.44593 43.4096 6.44811 43.5288 6.45029C43.531 6.01027 43.5774 5.57243 43.6172 5.13458C44.9079 5.07577 46.202 5.0725 47.4928 5.13132C47.5458 10.3081 47.5193 15.4849 47.5248 20.6616C47.5557 21.4055 47.5414 22.1494 47.4729 22.8911C46.7707 22.9402 46.0673 22.9129 45.3639 22.9162C45.3628 22.7931 45.3628 22.67 45.3628 22.547C45.2072 22.5459 45.0504 22.5448 44.8958 22.5437C44.8781 19.1836 44.9366 15.8192 44.8682 12.4614C44.7765 12.4483 44.5943 12.42 44.5027 12.4069C44.4111 12.8763 44.3879 13.3556 44.4022 13.8326C44.2852 13.8391 44.1681 13.8457 44.0511 13.8511C44.0235 14.6832 43.9473 15.5121 43.9307 16.3442C43.8137 16.3442 43.6967 16.3442 43.5807 16.3453C43.5465 16.9334 43.5189 17.5227 43.5145 18.1119C43.3941 18.1097 43.2738 18.1086 43.1545 18.1065C43.138 18.8308 43.0651 19.5529 43.0585 20.2772C42.9392 20.2761 42.8222 20.2739 42.704 20.2728C42.6963 20.996 42.6322 21.7159 42.6068 22.4381C42.4666 22.4468 42.3286 22.4577 42.1906 22.4696C42.1862 22.6123 42.1828 22.755 42.1817 22.8977C41.7699 22.9086 41.3591 22.9173 40.9473 22.9206C40.9462 22.7964 40.944 22.6722 40.9429 22.5481C40.7938 22.5274 40.6447 22.5067 40.4968 22.486C40.4802 21.9272 40.4316 21.3707 40.4228 20.8119C40.3024 20.8141 40.1821 20.8163 40.0628 20.8185C40.0562 20.2042 39.9911 19.5932 39.99 18.98C39.8707 18.98 39.7526 18.9811 39.6355 18.9822C39.63 18.2851 39.5505 17.5924 39.5351 16.8953C39.418 16.8953 39.301 16.8953 39.1839 16.8953C39.1828 16.2832 39.1133 15.6733 39.1033 15.0612C38.9841 15.0612 38.8659 15.0601 38.7489 15.0601C38.7456 14.473 38.7202 13.8871 38.7102 13.3C38.538 13.2935 38.3657 13.288 38.1946 13.2815C38.2211 16.342 38.1935 19.4026 38.2156 22.462C38.0698 22.4642 37.9252 22.4686 37.7805 22.4729C37.7783 22.6178 37.7761 22.7626 37.775 22.9086C37.0717 22.914 36.3683 22.9195 35.6649 22.9097C35.5313 22.1298 35.5821 21.3391 35.5722 20.5527C35.5744 16.1231 35.5689 11.6935 35.5766 7.26389C35.5799 6.54831 35.5302 5.82729 35.6506 5.11607Z" fill="white"/>
<path d="M51.9015 5.11311C53.1117 5.0434 54.3229 5.05538 55.5331 5.11746C55.5298 5.23509 55.5276 5.35163 55.5254 5.46926C55.818 5.48995 56.1095 5.51936 56.4021 5.54877C56.3988 5.67511 56.3966 5.80145 56.3944 5.92889C56.5456 5.92997 56.6991 5.93106 56.8515 5.93324C56.8515 6.07374 56.8515 6.21424 56.8526 6.35366C56.9895 6.35257 57.1275 6.35148 57.2666 6.35148C57.2711 6.52139 57.2766 6.6913 57.2821 6.86229C57.4069 6.85903 57.5316 6.85685 57.6586 6.85467C57.6708 7.15528 57.6929 7.45589 57.7149 7.75649C57.8375 7.75432 57.959 7.75214 58.0826 7.74996C58.203 11.9247 58.2372 16.1093 58.0804 20.2829C57.9579 20.2807 57.8364 20.2786 57.716 20.2775C57.6906 20.5748 57.6641 20.8732 57.6487 21.1717C57.525 21.1684 57.4014 21.1662 57.2777 21.164C57.26 21.3307 57.2435 21.4973 57.228 21.664C57.0955 21.6629 56.9641 21.6629 56.8338 21.6618C56.8327 21.7968 56.8327 21.9319 56.8327 22.067C56.6726 22.0822 56.5136 22.0964 56.3546 22.1105C56.3524 22.2358 56.3502 22.361 56.348 22.4863C56.0741 22.5146 55.8014 22.5451 55.5276 22.568C55.5298 22.6834 55.532 22.8 55.5353 22.9165C54.2147 22.9895 52.893 22.9731 51.5747 22.8838C51.5725 22.7586 51.5714 22.6333 51.5702 22.5081C51.3958 22.5015 51.2213 22.495 51.048 22.4896C51.048 22.3578 51.0502 22.2271 51.0524 22.0964C50.9022 22.0964 50.7532 22.0964 50.6052 22.0953C50.6041 21.9515 50.6041 21.8066 50.6041 21.6629C50.4705 21.664 50.3369 21.6661 50.2044 21.6683C50.1889 21.5006 50.1746 21.334 50.1613 21.1673C50.0355 21.1695 49.9118 21.1728 49.7881 21.176C49.7705 20.8776 49.7429 20.5803 49.7186 20.2829C49.596 20.2851 49.4734 20.2884 49.352 20.2905C49.2162 16.1071 49.2239 11.916 49.3376 7.73144C49.458 7.73253 49.5794 7.73253 49.7009 7.73362C49.723 7.43846 49.7528 7.14548 49.7782 6.85031C49.9041 6.8514 50.031 6.8514 50.158 6.85249C50.1624 6.68694 50.1669 6.52139 50.1735 6.35692C50.3126 6.35692 50.4528 6.35801 50.5931 6.36019C50.5931 6.21751 50.5942 6.07374 50.5953 5.93106C50.7454 5.93106 50.8956 5.92997 51.0458 5.93106C51.0436 5.80145 51.0402 5.67293 51.0391 5.54441C51.3284 5.51392 51.6177 5.48451 51.9081 5.46381C51.9048 5.34727 51.9026 5.22965 51.9015 5.11311ZM52.8676 7.73144C52.8687 7.8567 52.8699 7.98086 52.871 8.10611C52.7208 8.11156 52.5717 8.11592 52.4238 8.12136C52.405 8.28692 52.3884 8.45247 52.3708 8.61693C52.2471 8.61584 52.1245 8.61366 52.002 8.61149C51.8717 10.3378 51.9622 12.0696 51.9401 13.7981C51.9677 15.6692 51.8728 17.5448 52.0097 19.4127C52.1444 19.4138 52.2802 19.4149 52.416 19.417C52.4171 19.5684 52.4182 19.722 52.4194 19.8745C52.5739 19.8745 52.7296 19.8767 52.8864 19.8777C52.8875 20.0117 52.8886 20.1457 52.8908 20.2796C53.444 20.3123 53.9972 20.3156 54.5504 20.2807C54.5504 20.1468 54.5526 20.0117 54.5548 19.8777C54.7094 19.8756 54.8651 19.8745 55.0208 19.8745C55.0208 19.722 55.0219 19.5706 55.023 19.4181C55.1599 19.417 55.2979 19.4159 55.4359 19.4159C55.5199 15.9317 55.4591 12.4431 55.4635 8.95675C55.3432 8.95893 55.2228 8.9611 55.1036 8.96328C55.0804 8.68337 55.0484 8.40563 55.0175 8.12681C54.8673 8.11918 54.7182 8.11265 54.5703 8.10611C54.5703 7.98086 54.5703 7.85561 54.5725 7.73144C54.0038 7.71184 53.4352 7.71293 52.8676 7.73144Z" fill="white"/>
<path d="M59.9578 5.13923C61.4318 5.05536 62.9092 5.1316 64.3844 5.10764C64.3844 5.22418 64.3844 5.33963 64.3844 5.45617C65.091 5.4529 65.7944 5.50954 66.4977 5.56073C66.4955 5.67836 66.4933 5.79708 66.4933 5.9158C66.7804 5.94956 67.0686 5.98986 67.359 6.01818C67.3623 6.15541 67.3667 6.29265 67.3723 6.43097C67.5103 6.43642 67.6483 6.44077 67.7874 6.44513C67.8161 6.72613 67.857 7.00496 67.8934 7.28487C68.0138 7.28596 68.1363 7.28705 68.2589 7.28814C68.2909 7.69875 68.3351 8.10936 68.3528 8.52107C68.4709 8.51889 68.5901 8.51671 68.7094 8.51562C68.726 9.82806 68.7823 11.1394 68.6917 12.4508C68.5703 12.4486 68.4499 12.4464 68.3318 12.4442C68.3075 12.7524 68.2766 13.0596 68.2545 13.3689C68.1286 13.3776 68.0038 13.3863 67.8802 13.3951C67.8769 13.5443 67.8746 13.6946 67.8735 13.8438C67.7355 13.8449 67.5975 13.8449 67.4617 13.8449C67.4584 13.9876 67.4551 14.1291 67.4517 14.2718C67.3115 14.2762 67.1724 14.2795 67.0344 14.2827C66.8213 15.0005 66.9582 15.7455 66.9935 16.4763C67.1095 16.4752 67.2254 16.4741 67.3424 16.473C67.3689 17.0492 67.4308 17.6232 67.4495 18.1993C67.5677 18.1972 67.6869 18.1961 67.8073 18.195C67.8161 18.6372 67.8504 19.0783 67.8791 19.5194C67.9972 19.5172 68.1165 19.5161 68.2357 19.5139C68.2478 19.954 68.2788 20.3918 68.313 20.8307C68.4311 20.8297 68.5504 20.8286 68.6696 20.8275C68.6884 21.5147 68.8342 22.2074 68.6597 22.8882C67.8305 22.8958 67.0001 22.9241 66.172 22.8751C66.1356 22.5886 66.0892 22.3033 66.0506 22.0179C65.9335 22.0201 65.8176 22.0223 65.7016 22.0245C65.6873 21.5844 65.6564 21.1466 65.6266 20.7077C65.5062 20.7088 65.3859 20.7098 65.2677 20.7109C65.2412 20.1489 65.186 19.5902 65.1562 19.0282C65.0369 19.0108 64.9199 18.9922 64.8029 18.9759C64.7896 18.5402 64.7487 18.1068 64.7245 17.6722C64.6052 17.6744 64.486 17.6765 64.3678 17.6798C64.3535 17.1243 64.2861 16.5721 64.2717 16.0177C64.1304 16.0167 63.9891 16.0156 63.8489 16.0145C63.8466 15.8653 63.8455 15.715 63.8444 15.5657C63.4348 15.5647 63.0251 15.5777 62.6177 15.606C62.4664 18.0218 62.737 20.4626 62.4554 22.8653C61.7664 22.9056 61.0763 22.9078 60.3873 22.9099C60.3851 22.7869 60.384 22.6638 60.3829 22.5407C60.2305 22.5353 60.0781 22.5287 59.9268 22.5233C59.9313 16.729 59.8672 10.9325 59.9578 5.13923ZM62.578 8.11154C62.6056 9.69954 62.5702 11.2886 62.5989 12.8766C63.3299 12.9322 64.0642 12.9158 64.7973 12.8951C64.794 12.7721 64.7918 12.6479 64.7907 12.5248C64.942 12.5226 65.0944 12.5205 65.2467 12.5172C65.2478 12.3789 65.25 12.2395 65.2511 12.1011C65.3847 12.1022 65.5195 12.1033 65.6542 12.1033C65.6564 11.9203 65.6586 11.7384 65.6608 11.5555C65.7811 11.5566 65.9015 11.5576 66.023 11.5598C66.0472 10.8726 66.0461 10.1842 66.0296 9.49695C65.9114 9.49804 65.7944 9.50022 65.6785 9.50131C65.6564 9.19961 65.6255 8.899 65.6056 8.59731C65.4631 8.5984 65.3218 8.5984 65.1805 8.5984C65.1794 8.45354 65.1805 8.30759 65.1816 8.16382C64.3159 8.08431 63.4458 8.08758 62.578 8.11154Z" fill="white"/>
<path d="M70.8965 5.10193C73.2583 5.10955 75.619 5.1052 77.9797 5.11064C77.983 5.25877 77.9874 5.40689 77.993 5.55611C78.1343 5.55938 78.2767 5.56155 78.4192 5.56373C78.3794 6.39258 78.4302 7.22252 78.3739 8.05028C76.6525 8.21692 74.909 7.9479 73.1976 8.19623C73.223 9.46292 73.2108 10.7307 73.1931 11.9985C74.3371 12.1858 75.5008 12.0573 76.6547 12.0834C76.6547 12.2327 76.6558 12.3808 76.6591 12.53C76.8016 12.5322 76.9462 12.5344 77.092 12.5354C77.0544 13.3686 77.103 14.2019 77.0632 15.034C75.7758 15.156 74.4773 14.9719 73.1965 15.1625C73.2351 16.7233 73.192 18.2851 73.1887 19.847C74.7699 20.0452 76.3709 19.8807 77.9598 19.933C78.1045 20.9013 78.1575 21.9229 77.9245 22.8803C75.6124 22.9064 73.3002 22.8868 70.9881 22.9108C70.9881 22.7855 70.9881 22.6624 70.9892 22.5383C70.8324 22.5372 70.6767 22.5372 70.5211 22.5372C70.5266 16.8485 70.5166 11.1598 70.5222 5.47115C70.6491 5.47224 70.7761 5.47442 70.9042 5.47769C70.9009 5.35244 70.8987 5.22718 70.8965 5.10193Z" fill="white"/>
<path d="M79.8298 5.12085C80.6778 5.09689 81.528 5.09471 82.3772 5.13719C82.4865 7.57364 82.4136 10.0221 82.4655 12.464C83.4979 12.4857 84.5314 12.5217 85.5649 12.4661C85.5616 12.3398 85.5605 12.2145 85.5583 12.0893C85.6852 12.0915 85.8133 12.0926 85.9425 12.0937C85.9712 9.7683 85.8498 7.43314 86.0032 5.11432C86.8568 5.1067 87.7125 5.08056 88.5649 5.13937C88.6234 11.0546 88.6433 16.9753 88.555 22.8894C87.7147 22.9286 86.8744 22.9232 86.0342 22.8992C85.8155 20.4442 85.9966 17.9653 85.9403 15.5005C85.8133 15.5016 85.6886 15.5038 85.5638 15.506C85.5649 15.3775 85.5671 15.2479 85.5693 15.1193C84.5325 15.1215 83.4946 15.1193 82.4578 15.1302C82.3948 17.717 82.5571 20.3135 82.3672 22.8938C81.5292 22.9134 80.69 22.9123 79.8519 22.8981C79.7084 22.0867 79.7757 21.2633 79.7658 20.4442C79.7713 15.689 79.7614 10.9326 79.7636 6.17625C79.7581 5.82336 79.7989 5.47156 79.8298 5.12085Z" fill="white"/>
<path d="M92.6302 5.13516C93.9563 5.04367 95.2868 5.02624 96.614 5.10902C96.6107 5.22774 96.6085 5.34646 96.6074 5.46517C96.8945 5.48587 97.1827 5.51745 97.472 5.54795C97.4687 5.67647 97.4676 5.80608 97.4676 5.93569C97.6122 5.93569 97.759 5.93569 97.907 5.93569C97.9059 6.08164 97.907 6.22868 97.9081 6.37462C98.0373 6.37353 98.1687 6.37353 98.3001 6.37353C98.3122 6.53691 98.3266 6.70028 98.342 6.86365C98.4701 6.86148 98.5993 6.8593 98.7296 6.85712C98.7495 7.15555 98.7804 7.45398 98.8058 7.75241C98.9239 7.74914 99.0443 7.74696 99.1658 7.74479C99.2596 11.9228 99.3137 16.1063 99.1569 20.2832C99.0333 20.281 98.9096 20.2788 98.7881 20.2777C98.7616 20.5718 98.734 20.867 98.7164 21.1632C98.5916 21.16 98.4679 21.1589 98.3465 21.1567C98.331 21.3277 98.3167 21.4987 98.3045 21.6708C98.1731 21.6686 98.0428 21.6664 97.9125 21.6653C97.9136 21.7949 97.9147 21.9256 97.9169 22.0563C97.7491 22.0727 97.5824 22.0901 97.4168 22.1075C97.4179 22.2328 97.4201 22.358 97.4245 22.4844C97.2633 22.4866 97.1043 22.4898 96.9464 22.4942C96.9398 22.6216 96.9353 22.749 96.9331 22.8765C95.5043 22.9985 94.0722 22.9625 92.6423 22.8917C92.6412 22.7643 92.6412 22.6358 92.6423 22.5083C92.4657 22.5018 92.2912 22.4964 92.1179 22.4909C92.119 22.3613 92.1212 22.2306 92.1256 22.101C91.9743 22.101 91.8242 22.101 91.674 22.101C91.6729 21.9572 91.6718 21.8135 91.6729 21.6708C91.5316 21.6719 91.3913 21.674 91.2533 21.6751C91.2467 21.5063 91.2423 21.3364 91.24 21.1676C91.1131 21.1698 90.9883 21.173 90.8635 21.1763C90.8481 20.8768 90.8205 20.5794 90.7984 20.281C90.6758 20.2832 90.5544 20.2854 90.434 20.2875C90.2872 18.1277 90.3545 15.9625 90.3402 13.7994C90.3567 11.754 90.296 9.70745 90.4174 7.66419C90.5356 7.66528 90.6548 7.66636 90.7752 7.66745C90.7951 7.38209 90.826 7.09782 90.8547 6.81355C90.9828 6.81029 91.112 6.80811 91.2412 6.80484C91.2412 6.65454 91.2423 6.50423 91.2456 6.35502C91.3847 6.35502 91.5249 6.35502 91.6663 6.3572C91.6652 6.21125 91.6663 6.06639 91.6696 5.92153C91.8153 5.91935 91.9622 5.91826 92.109 5.91718C92.1057 5.78539 92.1035 5.65251 92.1035 5.51963C92.2802 5.5131 92.4591 5.50656 92.639 5.50112C92.6346 5.37913 92.6313 5.25715 92.6302 5.13516ZM93.9419 7.73063C93.9431 7.85588 93.9442 7.98222 93.9464 8.10747C93.7863 8.11183 93.6262 8.1151 93.4683 8.11837C93.4583 8.28283 93.4495 8.44729 93.4418 8.61176C93.3181 8.60958 93.1955 8.60631 93.0741 8.60413C92.9813 9.5713 93.0045 10.5417 93.0089 11.5122C93.0542 14.148 92.9217 16.7903 93.0818 19.4227C93.2044 19.4195 93.328 19.4173 93.4528 19.414C93.4528 19.5807 93.455 19.7473 93.4583 19.915C93.6217 19.9183 93.7852 19.9205 93.9508 19.9238C93.9475 20.0501 93.9442 20.1754 93.9431 20.3017C94.5073 20.3257 95.0715 20.3224 95.6357 20.2875C95.6346 20.1525 95.6346 20.0185 95.6357 19.8835C95.7903 19.8813 95.946 19.8791 96.1028 19.878C96.1293 19.6079 96.158 19.3389 96.179 19.0699C96.2949 19.072 96.4131 19.0742 96.5323 19.0764C96.6317 15.7065 96.5654 12.3323 96.5367 8.96138C96.4142 8.96355 96.2927 8.96573 96.1735 8.969C96.1547 8.6978 96.1293 8.42878 96.105 8.15866C95.9493 8.1554 95.7947 8.15104 95.6424 8.14777C95.6413 8.01054 95.6424 7.87439 95.6446 7.73716C95.077 7.71102 94.5095 7.70993 93.9419 7.73063Z" fill="white"/>
<path d="M101.032 5.12084C101.883 5.0947 102.736 5.09579 103.587 5.12411C103.753 9.74106 103.583 14.3689 103.673 18.9891C103.792 18.988 103.912 18.988 104.033 18.9869C104.046 19.2843 104.068 19.5805 104.09 19.8768C104.247 19.8888 104.405 19.9007 104.564 19.9127C104.561 20.0391 104.56 20.1643 104.559 20.2907C105.116 20.3157 105.676 20.3179 106.234 20.2819C106.235 20.1436 106.237 20.0064 106.24 19.8691C106.387 19.8659 106.536 19.8648 106.685 19.8637C106.703 19.562 106.73 19.2603 106.755 18.9586C106.871 18.9597 106.988 18.9619 107.106 18.963C107.143 15.1357 107.098 11.3084 107.114 7.47996C107.126 6.69032 107.056 5.89415 107.195 5.11104C108.053 5.10451 108.913 5.06965 109.772 5.13174C109.787 10.1691 109.88 15.2119 109.733 20.2471C109.609 20.2514 109.487 20.2569 109.366 20.2634C109.358 20.4453 109.353 20.6272 109.35 20.8102C109.226 20.8058 109.103 20.8026 108.983 20.7993C108.961 21.0727 108.93 21.346 108.905 21.6194C108.777 21.6183 108.65 21.6172 108.524 21.6172C108.513 21.7621 108.503 21.907 108.494 22.0518C108.336 22.0682 108.179 22.0845 108.025 22.1019C108.025 22.2261 108.027 22.3513 108.029 22.4766C107.753 22.5027 107.477 22.5343 107.202 22.5583C107.202 22.6759 107.203 22.7935 107.206 22.9123C105.886 22.9874 104.565 22.9645 103.246 22.8927C103.245 22.7652 103.246 22.6378 103.247 22.5104C103.072 22.5038 102.899 22.4973 102.727 22.4918C102.728 22.3601 102.729 22.2283 102.732 22.0976C102.584 22.0976 102.436 22.0965 102.291 22.0965C102.29 21.9505 102.288 21.8046 102.291 21.6597C102.157 21.6597 102.026 21.6608 101.895 21.6619C101.881 21.4942 101.868 21.3275 101.856 21.1598C101.729 21.162 101.604 21.1631 101.479 21.1663C101.451 20.7557 101.4 20.3484 101.377 19.9389C101.258 19.9378 101.14 19.9356 101.024 19.9345C100.919 15.3851 100.983 10.8346 100.963 6.28407C100.952 5.89415 100.994 5.5075 101.032 5.12084Z" fill="white"/>
<path d="M113.817 5.12655C115.119 5.03724 116.426 5.03615 117.728 5.12546C117.723 5.24854 117.72 5.37161 117.718 5.49578C117.892 5.49904 118.069 5.50449 118.246 5.50885C118.245 5.63628 118.245 5.7648 118.246 5.89223C118.504 5.93035 118.762 5.97936 119.022 6.01857C119.057 6.2767 119.102 6.53266 119.14 6.79079C119.269 6.7897 119.401 6.78861 119.533 6.78752C119.535 6.9607 119.54 7.13387 119.545 7.30705C119.669 7.30487 119.794 7.3016 119.92 7.29942C119.934 7.59567 119.959 7.89193 119.985 8.18818C120.106 8.186 120.23 8.18382 120.356 8.18164C120.379 8.61731 120.4 9.05406 120.402 9.48972C120.271 9.48863 120.139 9.48754 120.011 9.48537C120.012 9.60517 120.014 9.72498 120.019 9.84479C119.26 9.86439 118.505 9.97549 117.745 9.92539C117.741 9.74894 117.738 9.5725 117.737 9.39606C117.612 9.39823 117.489 9.4015 117.368 9.40477C117.349 9.11505 117.319 8.82642 117.293 8.5378C117.162 8.53998 117.032 8.54324 116.904 8.54542C116.903 8.39838 116.902 8.25026 116.903 8.10322C116.755 8.10213 116.609 8.10104 116.465 8.10104C116.467 7.9747 116.469 7.84945 116.473 7.72311C116.006 7.7133 115.54 7.7133 115.074 7.72311C115.074 7.85054 115.078 7.97797 115.081 8.1054C114.935 8.1054 114.79 8.1054 114.647 8.10649C114.642 8.27204 114.637 8.43868 114.636 8.60424C114.508 8.60315 114.381 8.60097 114.255 8.59988C114.243 9.15971 114.244 9.71845 114.264 10.2783C114.388 10.275 114.512 10.2717 114.639 10.2696C114.642 10.4449 114.647 10.6214 114.653 10.7978C114.786 10.7978 114.92 10.7978 115.056 10.7978C115.057 10.9405 115.06 11.0843 115.066 11.2269C115.205 11.2346 115.345 11.2411 115.486 11.2476C115.491 11.3859 115.498 11.5243 115.507 11.6626C115.651 11.6659 115.795 11.668 115.942 11.6702C115.942 11.8085 115.945 11.9458 115.948 12.0841C116.098 12.0863 116.249 12.0885 116.402 12.0895C116.399 12.229 116.398 12.3695 116.399 12.5089C116.55 12.51 116.702 12.5121 116.855 12.5132C116.853 12.6407 116.852 12.7692 116.853 12.8977C117.016 12.9119 117.18 12.9249 117.346 12.9402C117.342 13.072 117.341 13.2038 117.34 13.3366C117.491 13.3366 117.645 13.3388 117.8 13.3399C117.798 13.4793 117.797 13.6176 117.798 13.757C117.944 13.7581 118.091 13.7592 118.24 13.7625C118.241 13.9041 118.242 14.0468 118.246 14.1894C118.389 14.1905 118.534 14.1927 118.681 14.1949C118.682 14.3387 118.684 14.4824 118.687 14.6273C118.828 14.6273 118.969 14.6273 119.112 14.6284C119.112 14.7776 119.113 14.9279 119.117 15.0771C119.247 15.0738 119.378 15.0717 119.512 15.0695C119.523 15.2383 119.536 15.4071 119.55 15.5759C119.674 15.5727 119.799 15.5705 119.926 15.5672C119.945 15.8635 119.975 16.1586 120.002 16.4549C120.122 16.4527 120.242 16.4494 120.365 16.4473C120.478 17.8664 120.482 19.2911 120.342 20.7081C120.212 20.7091 120.084 20.7113 119.957 20.7135C119.949 20.8856 119.943 21.0588 119.938 21.2319C119.807 21.2298 119.678 21.2287 119.55 21.2265C119.549 21.3735 119.549 21.5217 119.549 21.6698C119.402 21.6698 119.256 21.6709 119.112 21.6709C119.113 21.7994 119.116 21.9279 119.119 22.0575C118.948 22.0728 118.778 22.0891 118.609 22.1055C118.61 22.2274 118.613 22.3494 118.618 22.4714C118.342 22.4975 118.068 22.5313 117.795 22.5575C117.766 22.6751 117.74 22.7938 117.714 22.9136C116.42 22.9811 115.126 22.9626 113.832 22.8951C113.833 22.7731 113.836 22.6511 113.84 22.5291C113.658 22.5237 113.477 22.5182 113.298 22.5128C113.298 22.3865 113.299 22.2601 113.302 22.1349C113.035 22.0978 112.771 22.051 112.507 22.014C112.503 21.8767 112.498 21.7395 112.496 21.6023C112.355 21.599 112.215 21.5957 112.076 21.5935C112.049 21.3082 112.01 21.0239 111.978 20.7396C111.855 20.7407 111.733 20.7418 111.612 20.744C111.595 20.4456 111.568 20.1482 111.547 19.8509C111.424 19.8531 111.303 19.8563 111.182 19.8585C111.155 19.156 111.036 18.4513 111.158 17.751C111.46 17.7325 111.762 17.7052 112.067 17.6856C112.062 17.5669 112.06 17.4493 112.059 17.3317C112.617 17.299 113.176 17.275 113.734 17.3328C113.745 17.885 113.806 18.4339 113.837 18.9839C113.958 18.9817 114.081 18.9785 114.204 18.9774C114.217 19.1462 114.231 19.3161 114.246 19.4871C114.378 19.4849 114.511 19.4838 114.645 19.4817C114.644 19.6254 114.644 19.7692 114.645 19.913C114.811 19.9162 114.978 19.9195 115.146 19.9228C115.143 20.0491 115.141 20.1744 115.138 20.3007C115.703 20.3214 116.267 20.3181 116.831 20.2866C116.829 20.1591 116.827 20.0328 116.828 19.9064C116.982 19.8966 117.139 19.8857 117.297 19.877C117.306 19.7224 117.317 19.5677 117.33 19.4131C117.455 19.4141 117.582 19.4152 117.709 19.4174C117.726 18.9698 117.743 18.5232 117.753 18.0756C117.638 18.0712 117.525 18.0658 117.413 18.0614C117.381 17.6497 117.339 17.2391 117.292 16.8285C117.158 16.8285 117.026 16.8296 116.894 16.8296C116.893 16.6836 116.892 16.5377 116.893 16.3928C116.745 16.3917 116.599 16.3917 116.455 16.3917C116.454 16.2556 116.454 16.1194 116.455 15.9833C116.306 15.9724 116.158 15.9626 116.012 15.9528C116 15.8232 115.989 15.6947 115.98 15.5651C115.829 15.5476 115.678 15.5313 115.53 15.5149C115.528 15.3853 115.527 15.2557 115.528 15.1261C115.376 15.1261 115.226 15.125 115.076 15.125C115.074 14.9834 115.076 14.8418 115.078 14.7013C114.928 14.7013 114.777 14.7013 114.629 14.7003C114.625 14.5641 114.623 14.428 114.623 14.2929C114.355 14.2581 114.09 14.2134 113.823 14.1786C113.822 14.0457 113.821 13.9128 113.822 13.7799C113.668 13.7777 113.515 13.7767 113.363 13.7756C113.363 13.6296 113.363 13.4837 113.364 13.3377C113.217 13.3377 113.07 13.3377 112.926 13.3388C112.924 13.1874 112.922 13.036 112.922 12.8857C112.787 12.8835 112.653 12.8825 112.521 12.8825C112.486 12.6167 112.443 12.352 112.409 12.0874C112.283 12.0895 112.158 12.0928 112.035 12.095C112.021 11.9185 112.009 11.7421 111.999 11.5667C111.875 11.5689 111.751 11.5711 111.629 11.5733C111.531 10.1508 111.51 8.72404 111.622 7.3016C111.745 7.30378 111.869 7.30705 111.995 7.30923C111.998 7.13714 112.003 6.96396 112.009 6.79079C112.146 6.79188 112.284 6.79405 112.423 6.79623C112.423 6.64702 112.426 6.49671 112.429 6.3475C112.568 6.34532 112.707 6.34314 112.848 6.34205C112.85 6.20155 112.853 6.05996 112.858 5.91946C113.004 5.91619 113.152 5.9151 113.301 5.91292C113.299 5.77896 113.297 5.64499 113.298 5.51102C113.472 5.50667 113.648 5.50231 113.826 5.49795C113.821 5.37488 113.819 5.25072 113.817 5.12655Z" fill="white"/>
<path d="M122.234 5.12852C124.699 5.08822 127.168 5.08822 129.634 5.13179C129.74 6.10441 129.696 7.08901 129.609 8.06272C128.012 8.1346 126.414 8.05836 124.817 8.09648C124.856 9.42416 124.867 10.7518 124.816 12.0784C125.98 12.1242 127.144 12.0719 128.309 12.097C128.441 13.0816 128.428 14.0847 128.313 15.0704C127.156 15.0845 125.999 15.0529 124.843 15.0867C124.882 16.6976 124.762 18.3084 124.843 19.9193C126.439 19.9444 128.038 19.9008 129.636 19.9411C129.753 20.9181 129.722 21.9081 129.618 22.8862C127.166 22.933 124.711 22.9374 122.26 22.8807C122.165 22.3274 122.146 21.7654 122.164 21.2056C122.158 16.1955 122.163 11.1853 122.161 6.1752C122.156 5.82449 122.2 5.47705 122.234 5.12852Z" fill="white"/>
<path d="M36.0028 25.5593C36.7437 25.4961 37.4901 25.4939 38.2266 25.6083C38.2277 25.7553 38.2299 25.9035 38.2321 26.0516C38.3679 26.0549 38.5026 26.0581 38.6385 26.0614C38.6694 26.6082 38.6826 27.156 38.6672 27.7038C38.369 27.7115 38.0709 27.7256 37.7739 27.7365C37.7739 27.6069 37.7761 27.4762 37.7783 27.3466C37.658 27.3477 37.5387 27.3499 37.4195 27.3521C37.3941 27.0536 37.3609 26.7563 37.3355 26.4579C37.0716 26.4677 36.8088 26.4742 36.5461 26.4764C36.3915 27.9021 36.4942 29.3398 36.4765 30.7698C36.7835 30.7742 37.0926 30.7796 37.4007 30.7851C37.4062 30.3701 37.4206 29.9551 37.4261 29.5413C37.8412 29.4922 38.2608 29.4803 38.6793 29.5075C38.7025 30.0695 38.6749 30.6304 38.6638 31.1924C38.5402 31.1913 38.4165 31.1913 38.294 31.1913C38.2917 31.3547 38.2884 31.5192 38.2862 31.6825C38.1184 31.6858 37.9517 31.6891 37.7838 31.6934C37.7849 31.8176 37.786 31.9439 37.7871 32.0692C37.224 32.0779 36.6598 32.0736 36.0967 32.054C36.0956 31.9156 36.0956 31.7784 36.0945 31.6401C35.941 31.639 35.7886 31.6379 35.6362 31.6379C35.634 31.4821 35.6329 31.3275 35.6318 31.1728C35.4971 31.1696 35.3646 31.1663 35.231 31.1641C35.1747 29.7144 35.199 28.2626 35.1946 26.8129C35.3127 26.8129 35.4297 26.814 35.549 26.8151C35.56 26.5276 35.5777 26.2389 35.5954 25.9525C35.7312 25.9514 35.867 25.9514 36.0039 25.9525C36.0028 25.8207 36.0028 25.69 36.0028 25.5593Z" fill="white"/>
<path d="M39.9997 25.5751C40.7394 25.4826 41.4881 25.4815 42.2279 25.5817C42.2411 25.7331 42.2544 25.8845 42.2676 26.0359C42.3924 26.0348 42.5183 26.0326 42.643 26.0315C42.7016 27.7763 42.7435 29.5233 42.653 31.2682C42.5282 31.2649 42.4034 31.2616 42.2798 31.2595C42.2787 31.4 42.2787 31.5405 42.2776 31.6821C42.1296 31.6842 41.9827 31.6875 41.8359 31.6897C41.8127 31.8149 41.7906 31.9402 41.7685 32.0665C41.2065 32.0774 40.6445 32.072 40.0836 32.0437C40.0814 31.9053 40.0781 31.7681 40.0758 31.6309C39.9246 31.6265 39.7733 31.6243 39.622 31.6222C39.6253 31.4751 39.6287 31.3281 39.632 31.1821C39.4984 31.1636 39.3637 31.1462 39.2301 31.132C39.1539 29.5909 39.2002 28.0454 39.219 26.5031C39.3438 26.4998 39.4697 26.4977 39.5955 26.4955C39.6011 26.3179 39.6066 26.1404 39.6121 25.9629C39.7424 25.9651 39.8738 25.9672 40.0052 25.9705C40.003 25.8376 40.0008 25.7058 39.9997 25.5751ZM40.5241 26.4737C40.4049 27.9005 40.4468 29.3371 40.5043 30.7672C40.9172 30.7802 41.3313 30.7672 41.7431 30.7301C41.795 29.4547 41.7442 28.1793 41.7763 26.9039C41.6471 26.8941 41.5179 26.8843 41.3887 26.8756C41.3854 26.7329 41.3821 26.5913 41.3799 26.4497C41.0939 26.4574 40.809 26.4683 40.5241 26.4737Z" fill="white"/>
<path d="M43.5526 25.5346C43.8441 25.5368 44.1356 25.5423 44.4283 25.5477C44.5497 27.2806 44.4459 29.0221 44.479 30.7583C45.3458 30.7495 46.2082 30.8312 47.0738 30.8476C47.023 29.0744 47.1456 27.3024 47.0683 25.5325C47.3764 25.539 47.6855 25.5532 47.9936 25.576C47.9616 27.2991 48.03 29.0243 48.0146 30.7528C48.7544 30.7909 49.4975 30.8018 50.2362 30.8792C50.2362 29.13 50.256 27.3797 50.245 25.6305C51.2597 25.4878 52.2877 25.5434 53.3091 25.5695C53.3024 25.8625 53.2925 26.1555 53.277 26.4474C52.7073 26.4583 52.1375 26.4626 51.5689 26.4746C51.5358 26.9092 51.4949 27.3437 51.4883 27.7805C51.771 27.7892 52.0536 27.7979 52.3363 27.8034C52.3363 27.921 52.3363 28.0397 52.3363 28.1573C52.5085 28.1552 52.6808 28.153 52.853 28.1508C52.8564 28.4547 52.8575 28.7575 52.8586 29.0613C52.4268 29.069 51.9951 29.081 51.5634 29.082C51.4993 29.6419 51.475 30.2061 51.5479 30.7681C52.121 30.7681 52.6951 30.7724 53.2671 30.8105C53.3179 31.2277 53.2914 31.6459 53.2351 32.0609C52.3805 32.0783 51.5247 32.0587 50.6701 32.0663C50.6679 31.9324 50.6657 31.7984 50.6646 31.6644C50.3488 31.6307 50.033 31.6056 49.7161 31.598C49.7139 31.7527 49.7128 31.9073 49.7117 32.062C48.856 32.0652 48.0002 32.0674 47.1445 32.0565C47.1412 31.9062 47.139 31.7559 47.1368 31.6056C46.8177 31.6056 46.4997 31.6132 46.1817 31.6263C46.1817 31.7723 46.1817 31.9182 46.1828 32.0652C45.3248 32.0707 44.4669 32.0642 43.609 32.0674C43.5052 29.8924 43.5924 27.7119 43.5526 25.5346Z" fill="white"/>
<path d="M54.2151 25.61C55.0664 25.5087 55.9254 25.4978 56.7778 25.6046C56.78 25.7549 56.7822 25.9041 56.7867 26.0544C56.9181 26.0599 57.0506 26.0642 57.1831 26.0697C57.225 26.6121 57.2327 27.1545 57.214 27.6979C56.8043 27.7241 56.3947 27.723 55.9861 27.6925C55.9674 27.2841 55.9144 26.8789 55.8768 26.4726C55.6151 26.4737 55.3535 26.4705 55.0929 26.4639C54.9096 27.8929 55.1127 29.3295 55.0388 30.7628C55.3424 30.7759 55.6461 30.7944 55.9508 30.8119C55.9839 30.3795 55.9607 29.946 55.8801 29.5201C55.7344 29.519 55.5886 29.519 55.4451 29.5179C55.4451 29.2239 55.4495 28.9309 55.4539 28.6379C56.0425 28.5987 56.6321 28.6019 57.2206 28.652C57.2327 29.7848 57.2581 30.9186 57.1996 32.0502C56.3439 32.0197 55.4893 32.0905 54.6346 32.0698C54.6346 31.9424 54.6368 31.8161 54.6379 31.6897C54.4867 31.6799 54.3365 31.6701 54.1863 31.6614C54.1709 31.4969 54.1554 31.3336 54.1411 31.1702C54.0185 31.1713 53.896 31.1735 53.7745 31.1756C53.737 29.6094 53.7458 28.0421 53.7623 26.4759C53.8783 26.4759 53.9942 26.4748 54.1124 26.4748C54.1422 26.1851 54.183 25.8987 54.2151 25.61Z" fill="white"/>
<path d="M57.7299 25.6104C58.7391 25.4863 59.7582 25.556 60.773 25.5494C60.7719 25.849 60.7697 26.1496 60.7697 26.4491C60.2088 26.472 59.6478 26.485 59.088 26.4872C59.0096 27.0307 58.9997 27.5785 59.0891 28.1209C59.5153 28.1264 59.9415 28.1395 60.3689 28.1482C60.3622 28.452 60.3468 28.7559 60.3291 29.0598C59.9106 29.0729 59.4944 29.0892 59.077 29.0914C58.9931 29.6458 58.9897 30.2056 59.0604 30.7611C59.628 30.7545 60.1944 30.7937 60.7608 30.8242C60.7796 31.237 60.7752 31.6487 60.7465 32.0615C59.7516 32.0583 58.7546 32.104 57.7608 32.0321C57.7023 29.893 57.7707 27.7506 57.7299 25.6104Z" fill="white"/>
</svg>
