<svg width="123" height="43" viewBox="0 0 123 43" fill="none" xmlns="http://www.w3.org/2000/svg">
<g clip-path="url(#clip0_0_350)">
<path d="M56.3887 1.19719C57.726 1.18179 59.0633 1.18372 60.4006 1.20874C60.3935 1.31459 60.3873 1.42044 60.3812 1.52725C60.9651 1.50704 61.547 1.56382 62.1309 1.57921C62.1227 1.68314 62.1156 1.78707 62.1095 1.89099C62.4943 1.88522 62.8782 1.9266 63.261 1.97278C63.2875 2.33268 63.3386 2.69064 63.3559 3.05246C63.4651 3.04573 63.5754 3.03899 63.6867 3.03225C63.6897 3.19873 63.6928 3.36424 63.6979 3.52975C63.8153 3.53071 63.9327 3.53071 64.0501 3.53071C64.0623 4.04168 64.144 4.5488 64.1797 5.05881C64.0327 5.04823 63.8867 5.03957 63.7418 5.03187C63.7285 4.89138 63.7163 4.75185 63.704 4.61232C63.5764 4.61135 63.4488 4.61039 63.3222 4.61135C63.3171 4.48529 63.313 4.35924 63.311 4.23414C63.1783 4.23125 63.0456 4.2274 62.9149 4.22355C62.9078 4.09846 62.9016 3.97336 62.8976 3.84827C62.7506 3.84153 62.6046 3.83576 62.4596 3.82902C62.4606 3.71643 62.4637 3.60481 62.4668 3.49222C62.3198 3.49222 62.1738 3.49126 62.0288 3.4903C62.0288 3.37386 62.0309 3.25743 62.0339 3.14195C61.7583 3.12175 61.4837 3.08614 61.2111 3.05342C61.2173 2.95142 61.2254 2.84942 61.2336 2.74742C60.8447 2.71663 60.4578 2.66659 60.0688 2.65504C60.075 2.55304 60.0821 2.45008 60.0903 2.34807C58.556 2.27398 57.0165 2.27302 55.4822 2.34422C55.4884 2.44719 55.4945 2.55015 55.5016 2.65408C55.1106 2.65504 54.7227 2.69257 54.3358 2.73683C54.3399 2.8398 54.345 2.94276 54.3501 3.04573C54.0816 3.08133 53.8152 3.12078 53.5457 3.14388C53.5457 3.26224 53.5457 3.38156 53.5457 3.49992C53.4089 3.50088 53.2731 3.50088 53.1374 3.49992C53.0986 3.73183 53.0567 3.96374 53.0302 4.19661C52.9016 4.19757 52.7729 4.1995 52.6464 4.20238C52.6433 4.33422 52.6423 4.46605 52.6423 4.59788C52.5269 4.59018 52.4116 4.58345 52.2972 4.57671C52.2942 4.73549 52.2911 4.89426 52.288 5.05304C52.1604 5.05015 52.0339 5.04727 51.9073 5.04342C51.9011 5.30997 51.8869 5.57652 51.8746 5.84307C51.7593 5.84499 51.6439 5.84692 51.5296 5.84884C51.4949 6.82748 51.4775 7.80901 51.5367 8.78764C51.65 8.79149 51.7644 8.79438 51.8787 8.79919C51.8828 8.96278 51.8869 9.12733 51.892 9.29188C52.0032 9.28514 52.1145 9.27841 52.2278 9.27167C52.2503 9.51416 52.286 9.7557 52.3166 9.99723C52.431 9.99145 52.5453 9.98664 52.6606 9.98087C52.6627 10.1137 52.6647 10.2474 52.6668 10.3802C52.8209 10.3831 52.9751 10.387 53.1302 10.3908C53.1261 10.5082 53.1221 10.6256 53.119 10.743C53.3722 10.7728 53.6243 10.8094 53.8785 10.8354C53.8714 10.9403 53.8642 11.0451 53.8591 11.151C54.1337 11.1789 54.4083 11.2068 54.685 11.2222C54.6819 11.3348 54.6788 11.4474 54.6768 11.5609C54.9555 11.5734 55.2342 11.5869 55.5139 11.5946C55.5067 11.6995 55.4996 11.8044 55.4935 11.9093C56.0304 11.9285 56.5643 11.994 57.1023 12.0132C57.1043 12.12 57.1074 12.2278 57.1115 12.3356C57.3953 12.3461 57.6801 12.3587 57.9649 12.3625C57.9567 12.4664 57.9496 12.5704 57.9424 12.6733C58.2497 12.6964 58.557 12.7291 58.8653 12.7484C58.8561 12.8494 58.8489 12.9505 58.8418 13.0525C59.2563 13.0544 59.6697 13.0958 60.0831 13.1333C60.075 13.2353 60.0678 13.3383 60.0607 13.4403C60.3424 13.4499 60.6242 13.4701 60.9059 13.4922C60.9008 13.599 60.8957 13.7068 60.8916 13.8136C61.2765 13.8252 61.6583 13.8791 62.0421 13.9137C62.037 14.0292 62.0339 14.1446 62.0319 14.2611C62.1932 14.2659 62.3555 14.2697 62.5178 14.2746C62.5117 14.3833 62.5056 14.493 62.5005 14.6027C62.7516 14.6344 63.0027 14.6691 63.2569 14.6903C63.2549 14.8105 63.2549 14.9318 63.2569 15.0521C63.3957 15.053 63.5366 15.053 63.6775 15.0521C63.6744 15.1772 63.6714 15.3032 63.6714 15.4283C63.8081 15.4283 63.946 15.4264 64.0848 15.4254C64.1175 15.6602 64.1542 15.895 64.1767 16.1318C64.3043 16.1318 64.4339 16.1327 64.5636 16.1346C64.5636 16.2665 64.5636 16.3983 64.5625 16.5301C64.7014 16.5244 64.8412 16.5196 64.9821 16.5147C64.978 16.6466 64.975 16.7794 64.9709 16.9122C65.0801 16.9112 65.1893 16.9102 65.3006 16.9112C65.3292 15.2696 65.2975 13.6279 65.4006 11.9891C65.5068 11.994 65.615 11.9997 65.7243 12.0055C65.7396 11.7082 65.7651 11.4118 65.7804 11.1154C65.8886 11.1221 65.9978 11.1279 66.1081 11.1356C66.1152 10.7449 66.153 10.3552 66.1938 9.9674C66.301 9.97413 66.4103 9.98087 66.5195 9.9876C66.5317 9.72298 66.5562 9.46028 66.5838 9.19661C66.6961 9.20142 66.8084 9.2072 66.9227 9.21297C66.938 8.94931 66.9686 8.6866 67.0003 8.42486C67.1095 8.43064 67.2188 8.43737 67.329 8.44315C67.3474 8.18622 67.3811 7.93025 67.4168 7.67429C67.5291 7.68006 67.6434 7.68487 67.7577 7.69065C67.7904 7.45296 67.8272 7.21528 67.8486 6.97567C67.9721 6.9776 68.0956 6.97952 68.2212 6.98048C68.2222 6.84288 68.2232 6.70527 68.2243 6.56767C68.3437 6.57248 68.4631 6.57729 68.5846 6.58114C68.5867 6.43487 68.5897 6.28957 68.5948 6.1433C68.7275 6.14523 68.8623 6.14715 68.997 6.15004C68.994 6.01917 68.993 5.8883 68.994 5.75839C69.1298 5.75935 69.2665 5.76031 69.4044 5.76224C69.4013 5.63233 69.4003 5.50242 69.4003 5.37252C69.5371 5.37348 69.6739 5.3754 69.8127 5.37733C69.8096 5.24838 69.8086 5.11847 69.8076 4.98953C69.9454 4.99049 70.0842 4.99145 70.2231 4.99242C70.219 4.86539 70.2169 4.73934 70.2169 4.61232C70.3711 4.60847 70.5273 4.60558 70.6845 4.60269C70.6773 4.49396 70.6722 4.38522 70.6671 4.27648C70.9172 4.24376 71.1684 4.20816 71.4215 4.18603C71.4205 4.06767 71.4205 3.95027 71.4215 3.83191C71.5644 3.82998 71.7084 3.82806 71.8533 3.82806C71.8452 3.72028 71.838 3.61251 71.8329 3.50473C72.1045 3.47202 72.378 3.43834 72.6526 3.41909C72.6475 3.3065 72.6445 3.19295 72.6424 3.07941C72.8088 3.07459 72.9752 3.07074 73.1437 3.06593C73.1355 2.95816 73.1294 2.85135 73.1232 2.74357C73.5112 2.71278 73.8981 2.66563 74.289 2.65312C74.2809 2.54823 74.2747 2.44238 74.2686 2.33653C74.4432 2.33364 74.6188 2.33075 74.7944 2.32787C74.7944 2.2172 74.7944 2.1075 74.7954 1.99684C75.4426 1.96894 76.0867 1.87848 76.737 1.88907C76.7299 1.78418 76.7227 1.67929 76.7176 1.5744C77.3015 1.54842 77.8854 1.50897 78.4704 1.52725C78.4632 1.4214 78.4571 1.31555 78.451 1.20874C80.1976 1.17217 81.9443 1.19141 83.6899 1.19238C83.6828 1.30015 83.6776 1.40793 83.6725 1.5157C84.4821 1.50608 85.2875 1.58114 86.096 1.6177C86.097 1.72452 86.1001 1.83229 86.1031 1.93911C86.4125 1.95065 86.7228 1.96124 87.0331 1.96701C87.025 2.06901 87.0178 2.17198 87.0117 2.27398C87.5211 2.30092 88.0264 2.3779 88.5368 2.39619C88.5399 2.503 88.544 2.60885 88.5501 2.71566C88.7257 2.72048 88.9013 2.72432 89.0789 2.72721C89.0707 2.83787 89.0636 2.94757 89.0574 3.05727C89.1748 3.0515 89.2922 3.04476 89.4117 3.03899C89.4147 3.20258 89.4188 3.36616 89.4239 3.52975C89.5403 3.53071 89.6577 3.53071 89.7771 3.53071C89.7914 3.91563 89.821 4.29861 89.8425 4.68256C89.9568 4.68256 90.0722 4.68256 90.1895 4.68256C90.2089 5.04149 90.2242 5.40138 90.2304 5.76128C90.1069 5.76128 89.9854 5.76128 89.8649 5.76224C89.868 5.64965 89.871 5.5361 89.8761 5.42352C89.72 5.42063 89.5648 5.4187 89.4107 5.41582C89.4117 5.28783 89.4137 5.15889 89.4168 5.03091C89.2718 5.03187 89.1279 5.03187 88.986 5.03187C88.986 4.91351 88.989 4.79419 88.9931 4.67583C88.743 4.64407 88.496 4.60365 88.2469 4.57382C88.25 4.45931 88.253 4.34576 88.2561 4.23125C88.0907 4.22644 87.9253 4.22163 87.762 4.21778C87.7671 4.11097 87.7743 4.00416 87.7814 3.89638C87.5262 3.86462 87.272 3.82806 87.0168 3.80689C87.0229 3.70392 87.0301 3.60192 87.0382 3.49896C86.7585 3.46913 86.4809 3.4393 86.2011 3.4239C86.2073 3.31998 86.2134 3.21605 86.2216 3.11309C85.9419 3.08422 85.6632 3.05439 85.3845 3.03803C85.3906 2.93699 85.3977 2.83691 85.4059 2.73587C84.8659 2.68872 84.3238 2.64734 83.7818 2.64061C83.7797 2.53187 83.7787 2.42217 83.7787 2.31247C83.3336 2.30188 82.8875 2.28841 82.4424 2.2836C82.4486 2.17775 82.4547 2.0719 82.4629 1.96605C80.9888 1.95161 79.5137 1.96124 78.0396 1.97471C78.0457 2.08152 78.0518 2.1893 78.059 2.29707C77.6078 2.2913 77.1566 2.30573 76.7064 2.33845C76.7105 2.44045 76.7156 2.54245 76.7207 2.64446C76.1776 2.65023 75.6365 2.69064 75.0965 2.7378C75.1026 2.84076 75.1098 2.94469 75.118 3.04861C74.8342 3.0592 74.5524 3.08422 74.2707 3.1102C74.2768 3.21412 74.2829 3.31805 74.2911 3.42198C74.0144 3.43834 73.7388 3.47009 73.4652 3.50185C73.4714 3.60577 73.4775 3.71066 73.4856 3.81459C73.2315 3.84442 72.9793 3.88002 72.7251 3.90504C72.7282 4.02244 72.7312 4.13984 72.7343 4.25627C72.574 4.26108 72.4138 4.26493 72.2555 4.26878C72.2586 4.38137 72.2627 4.49492 72.2678 4.6075C72.1249 4.6075 71.982 4.6075 71.8411 4.60847C71.8421 4.73356 71.8441 4.85866 71.8482 4.98375C71.7063 4.98279 71.5644 4.98375 71.4246 4.98472C71.4236 5.10885 71.4246 5.23395 71.4276 5.35904C71.2919 5.35808 71.1581 5.35808 71.0244 5.35904C71.0234 5.49088 71.0234 5.62271 71.0254 5.75358C70.8937 5.75069 70.7631 5.7478 70.6334 5.74588C70.6314 5.88156 70.6304 6.01724 70.6314 6.15389C70.5109 6.15004 70.3905 6.14715 70.271 6.14426C70.2496 6.29438 70.2292 6.44353 70.2108 6.59365C70.0995 6.58787 69.9903 6.58114 69.8811 6.5744C69.8464 6.81208 69.8066 7.04881 69.779 7.28745C69.6555 7.2836 69.533 7.28071 69.4115 7.27879C69.4064 7.4366 69.4023 7.59442 69.4003 7.75319C69.287 7.74646 69.1736 7.73972 69.0624 7.73299C69.0491 7.99761 69.0236 8.26128 68.997 8.52494C68.8837 8.51917 68.7704 8.51339 68.6581 8.50762C68.6387 8.89542 68.5867 9.28033 68.5642 9.66813C68.4529 9.66332 68.3427 9.65947 68.2335 9.65466C68.2294 10.055 68.1998 10.4533 68.1773 10.8527C68.0681 10.8479 67.9599 10.844 67.8527 10.8392C67.8221 12.2114 67.8323 13.5836 67.8588 14.9549C67.9742 14.9559 68.0895 14.9578 68.2069 14.9597C68.2161 15.3562 68.2324 15.7526 68.2375 16.1491C68.3468 16.1423 68.456 16.1356 68.5652 16.1289C68.5805 16.5475 68.6306 16.9632 68.6469 17.3818C68.7541 17.3741 68.8613 17.3673 68.9695 17.3596C68.9848 17.7522 69.0256 18.142 69.0501 18.5336C69.1583 18.5269 69.2676 18.5201 69.3768 18.5134C69.4013 18.9916 69.4779 19.4661 69.5095 19.9443C69.6249 19.952 69.7412 19.9607 69.8586 19.9693C69.876 20.2166 69.8964 20.4649 69.9138 20.7122C70.0373 20.7247 70.1608 20.7372 70.2853 20.7497C70.2833 20.8816 70.2812 21.0144 70.2792 21.1462C70.4048 21.1423 70.5324 21.1385 70.66 21.1356C70.663 21.2925 70.6681 21.4493 70.6732 21.6071C70.7855 21.6004 70.8978 21.5936 71.0122 21.5869C71.0407 21.8256 71.0795 22.0642 71.1071 22.3038C71.2337 22.3009 71.3613 22.298 71.4899 22.2971C71.4899 22.4318 71.4899 22.5675 71.4909 22.7022C71.6094 22.6974 71.7298 22.6926 71.8503 22.6887C71.8533 22.8369 71.8574 22.9851 71.8625 23.1333C71.9932 23.1304 72.1259 23.1285 72.2586 23.1256C72.2566 23.2536 72.2555 23.3816 72.2555 23.5095C72.3944 23.5086 72.5342 23.5076 72.6741 23.5057C72.671 23.6356 72.67 23.7655 72.67 23.8964C72.8058 23.8945 72.9436 23.8925 73.0814 23.8916C73.0783 24.0205 73.0773 24.1495 73.0773 24.2794C73.2151 24.2784 73.3529 24.2774 73.4928 24.2765C73.4877 24.39 73.4846 24.5045 73.4816 24.6181C73.6347 24.621 73.7888 24.6239 73.944 24.6277C73.9409 24.7509 73.9379 24.875 73.9348 24.9992C74.187 25.029 74.4391 25.0617 74.6933 25.0819C74.6892 25.1983 74.6872 25.3148 74.6872 25.4312C74.8505 25.436 75.0159 25.4399 75.1813 25.4437C75.1741 25.5496 75.167 25.6545 75.1619 25.7603C75.4191 25.7863 75.6764 25.819 75.9356 25.8402C75.9275 25.9412 75.9203 26.0432 75.9142 26.1452C76.3113 26.1905 76.7105 26.2347 77.1116 26.2559C77.1137 26.3637 77.1168 26.4724 77.1208 26.5811C77.2944 26.586 77.4679 26.5898 77.6435 26.5936C77.6353 26.7005 77.6282 26.8073 77.621 26.9151C78.2785 26.9083 78.9297 27.0113 79.5872 27.0055C79.58 27.1075 79.5739 27.2095 79.5688 27.3115C81.5165 27.3846 83.4684 27.3731 85.4172 27.3173C85.411 27.2134 85.4069 27.1094 85.4029 27.0065C86.193 27.0248 86.979 26.9151 87.7691 26.9131C87.761 26.8073 87.7538 26.7014 87.7477 26.5965C88.057 26.5908 88.3663 26.5773 88.6756 26.558C88.6705 26.4503 88.6665 26.3435 88.6634 26.2357C89.0717 26.2251 89.479 26.1847 89.8864 26.1462C89.8792 26.0413 89.8721 25.9364 89.867 25.8315C90.1446 25.8258 90.4223 25.8142 90.701 25.8036C90.6959 25.6881 90.6918 25.5727 90.6887 25.4582C90.946 25.4389 91.2022 25.4062 91.4595 25.3783C91.4513 25.2705 91.4452 25.1627 91.4401 25.0559C91.6024 25.0521 91.7667 25.0482 91.9311 25.0444C91.927 24.9231 91.9239 24.8028 91.9219 24.6826C92.0607 24.6826 92.2016 24.6806 92.3435 24.6787C92.3455 24.5613 92.3486 24.4449 92.3517 24.3275C92.6028 24.3025 92.8498 24.2563 93.0979 24.2072C93.0805 24.4603 93.0581 24.7134 93.0418 24.9664C92.9162 24.9693 92.7927 24.9722 92.6702 24.9761C92.6661 25.1137 92.6651 25.2513 92.6661 25.3889C92.5507 25.3821 92.4354 25.3754 92.3221 25.3687C92.3037 25.5255 92.2863 25.6824 92.269 25.8402C92.1557 25.8335 92.0424 25.8277 91.9301 25.8219C91.9045 26.0634 91.8688 26.303 91.8413 26.5446C91.7157 26.5398 91.5901 26.5359 91.4656 26.533C91.4595 26.6649 91.4544 26.7967 91.4503 26.9295C91.0307 26.9372 90.6132 26.9747 90.1946 26.9872C90.2008 27.0892 90.2079 27.1912 90.2171 27.2942C89.6618 27.2961 89.1105 27.3635 88.5562 27.3644C88.5613 27.4674 88.5685 27.5713 88.5756 27.6753C87.518 27.6724 86.4655 27.783 85.408 27.7801C85.411 27.8821 85.4151 27.9851 85.4202 28.0881C82.42 28.1727 79.4167 28.1448 76.4185 28.0544C76.4226 27.9524 76.4287 27.8504 76.4359 27.7484C75.9857 27.7195 75.5355 27.6887 75.0853 27.6897C75.0914 27.5867 75.0986 27.4857 75.1077 27.3837C74.6902 27.3731 74.2747 27.3365 73.8593 27.3067C73.8644 27.2047 73.8715 27.1027 73.8797 27.0007C73.4663 26.9911 73.0549 26.9507 72.6435 26.9179C72.6496 26.815 72.6567 26.713 72.6649 26.611C72.3872 26.5985 72.1116 26.5734 71.836 26.5455C71.8411 26.4368 71.8472 26.329 71.8544 26.2212C71.594 26.201 71.3358 26.1712 71.0765 26.1481C71.0816 26.0403 71.0877 25.9326 71.0949 25.8258C70.9295 25.8209 70.7651 25.8171 70.6008 25.8123C70.6018 25.6978 70.6038 25.5842 70.6079 25.4697C70.3568 25.4428 70.1098 25.4033 69.8617 25.3696C69.8637 25.2484 69.8668 25.1281 69.8688 25.0078C69.7269 25.0078 69.585 25.0078 69.4442 25.0088C69.4452 24.8789 69.4472 24.749 69.4493 24.62C69.3115 24.62 69.1736 24.6219 69.0379 24.6239C69.0389 24.493 69.0409 24.3631 69.042 24.2322C68.9041 24.2332 68.7684 24.2341 68.6326 24.237C68.6336 24.1071 68.6346 23.9772 68.6357 23.8473C68.5019 23.8492 68.3692 23.8512 68.2365 23.854C68.2028 23.6173 68.164 23.3816 68.1426 23.1439C68.017 23.1458 67.8935 23.1468 67.771 23.1477C67.768 23.0101 67.7669 22.8725 67.768 22.7349C67.6506 22.7397 67.5342 22.7445 67.4188 22.7503C67.3821 22.4963 67.3453 22.2432 67.3259 21.9891C67.2045 21.9911 67.084 21.994 66.9646 21.9959C66.9595 21.8342 66.9564 21.6726 66.9533 21.5119C66.8421 21.5176 66.7308 21.5244 66.6205 21.5311C66.6032 21.2722 66.5726 21.0144 66.5419 20.7574C66.4 20.7555 66.2592 20.7536 66.1183 20.7526C66.1183 21.0124 66.1162 21.2722 66.1193 21.5321C66.006 21.5253 65.8927 21.5186 65.7804 21.5128C65.7814 21.9324 65.7498 22.3519 65.7202 22.7705C65.6109 22.7638 65.5027 22.757 65.3955 22.7503C65.37 23.1179 65.318 23.4826 65.3006 23.8512C65.1904 23.8435 65.0821 23.8367 64.9739 23.8309C64.9392 24.0879 64.9004 24.3458 64.88 24.6046C64.7524 24.6027 64.6258 24.6027 64.5003 24.6027C64.4982 24.7374 64.4972 24.8731 64.4972 25.0088C64.3819 25.003 64.2665 24.9972 64.1522 24.9915C64.1318 25.1396 64.1124 25.2888 64.094 25.437C63.9705 25.4341 63.849 25.4322 63.7275 25.4293C63.7285 25.5486 63.7306 25.667 63.7336 25.7873C63.5856 25.8007 63.4396 25.8152 63.2936 25.8286C63.2855 25.9528 63.2783 26.0769 63.2722 26.202C63.1344 26.2039 62.9976 26.2059 62.8618 26.2078C62.8649 26.3194 62.869 26.432 62.8731 26.5446C62.7281 26.5446 62.5831 26.5446 62.4392 26.5465C62.4392 26.6649 62.4412 26.7842 62.4443 26.9025C62.1656 26.9179 61.888 26.9487 61.6123 26.9776C61.6185 27.0815 61.6256 27.1864 61.6327 27.2903C61.0846 27.3163 60.5374 27.3779 59.9882 27.3721C59.9933 27.478 59.9994 27.5848 60.0066 27.6906C56.4663 27.7484 52.924 27.7416 49.3817 27.7253C49.3674 26.456 49.3858 25.1858 49.3685 23.9156C49.2623 23.9156 49.1571 23.9147 49.052 23.9137C49.0581 24.0446 49.0642 24.1764 49.0714 24.3082C48.9285 24.2986 48.7876 24.29 48.6457 24.2813C48.6314 24.5257 48.6028 24.7692 48.5763 25.0136C48.4579 25.0097 48.3405 25.0059 48.2231 25.003C48.2129 25.1483 48.2037 25.2946 48.1955 25.4408C48.0649 25.438 47.9362 25.4341 47.8076 25.4312C47.8076 25.5659 47.8076 25.7007 47.8066 25.8363C47.6739 25.8354 47.5422 25.8335 47.4115 25.8315C47.4136 25.9557 47.4156 26.0798 47.4176 26.2049C47.2737 26.2049 47.1308 26.2049 46.9879 26.2049C46.9899 26.3309 46.992 26.457 46.995 26.584C46.8378 26.5869 46.6816 26.5898 46.5254 26.5927C46.5305 26.7043 46.5356 26.8159 46.5418 26.9285C46.3907 26.9295 46.2406 26.9314 46.0906 26.9343C46.0855 27.044 46.0814 27.1547 46.0783 27.2663C45.5659 27.2923 45.0575 27.3625 44.545 27.3789C44.5522 27.4818 44.5583 27.5858 44.5665 27.6897C39.7992 27.7561 35.0288 27.7619 30.2605 27.6849C30.2605 27.5809 30.2605 27.477 30.2605 27.3741C30.7842 27.3875 31.3069 27.3606 31.8265 27.2961C31.8254 27.1662 31.8265 27.0373 31.8285 26.9083C31.9581 26.9064 32.0878 26.9064 32.2185 26.9064C32.2695 18.8261 32.2287 10.7449 32.2389 2.6637C32.1215 2.66947 32.0051 2.67525 31.8887 2.68198C31.8897 2.55111 31.8897 2.42024 31.8897 2.28937C31.7519 2.29034 31.6131 2.2913 31.4753 2.29419C31.4784 2.18641 31.4814 2.0796 31.4845 1.97278C31.0751 1.96028 30.6688 1.90254 30.2595 1.88618C30.2595 1.7861 30.2605 1.68603 30.2605 1.58691C33.8048 1.55419 37.3512 1.57633 40.8955 1.57055C40.8894 1.68025 40.8823 1.78899 40.8761 1.89773C41.5632 1.86886 42.2481 1.91986 42.9331 1.96894C42.925 2.07094 42.9178 2.1739 42.9107 2.2759C43.3027 2.2913 43.6916 2.33845 44.0826 2.36251C44.0734 2.46355 44.0662 2.56459 44.0591 2.66563C44.3327 2.69931 44.6052 2.73683 44.8809 2.758C44.8788 2.87733 44.8788 2.99665 44.8799 3.11597C45.0217 3.1179 45.1647 3.11886 45.3066 3.11886C45.3025 3.24203 45.2994 3.3652 45.2964 3.48837C45.4393 3.48934 45.5822 3.4903 45.7251 3.48934C45.7241 3.62213 45.7241 3.75493 45.7251 3.88676C45.8578 3.88483 45.9915 3.88195 46.1253 3.8781C46.1232 4.01185 46.1232 4.14561 46.1242 4.27937C46.2529 4.2784 46.3815 4.27648 46.5111 4.27456C46.5295 4.53341 46.5642 4.79034 46.5969 5.04823C46.7102 5.04245 46.8245 5.03572 46.9389 5.02994C46.9399 5.17236 46.943 5.31382 46.947 5.45623C47.0634 5.46105 47.1808 5.46586 47.2992 5.47067C47.4187 6.87271 47.4779 8.28245 47.3472 9.68641C47.238 9.67968 47.1298 9.6739 47.0226 9.66813C47.0093 10.0328 46.9521 10.3937 46.9154 10.7574C46.8031 10.7507 46.6908 10.744 46.5795 10.7382C46.5765 10.895 46.5724 11.0528 46.5693 11.2097C46.4407 11.2068 46.3121 11.203 46.1845 11.1991C46.1845 11.329 46.1855 11.4599 46.1855 11.5898C46.0487 11.5898 45.9119 11.5888 45.7761 11.5879C45.7772 11.7168 45.7782 11.8458 45.7792 11.9747C45.6414 11.9747 45.5036 11.9737 45.3668 11.9718C45.3688 12.1008 45.3688 12.2297 45.3699 12.3587C45.231 12.3587 45.0932 12.3577 44.9554 12.3567C44.9585 12.4799 44.9625 12.6031 44.9656 12.7263C44.7992 12.7311 44.6338 12.7349 44.4685 12.7397C44.3858 13.2286 44.9564 13.1371 45.2923 13.1458C45.2841 13.2488 45.278 13.3517 45.2719 13.4547C45.6751 13.4941 46.0793 13.5317 46.4856 13.5528C46.4887 13.6616 46.4928 13.7713 46.4979 13.881C46.6439 13.8839 46.7909 13.8848 46.9389 13.8868C46.9532 14.0003 46.9695 14.1139 46.9869 14.2284C47.1298 14.2284 47.2727 14.2303 47.4166 14.2322C47.4136 14.3506 47.4115 14.4689 47.4095 14.5873C47.6545 14.6142 47.8995 14.6498 48.1445 14.6787C48.1812 14.9068 48.2231 15.1348 48.2537 15.3639C48.3762 15.3619 48.4997 15.361 48.6232 15.361C48.6243 15.4976 48.6253 15.6352 48.6263 15.7728C48.7417 15.7671 48.858 15.7622 48.9744 15.7574C49.0081 16.0124 49.0438 16.2674 49.0643 16.5234C49.1827 16.5205 49.3031 16.5176 49.4226 16.5157C49.4328 16.8005 49.444 17.0863 49.4511 17.3712C49.5624 17.3654 49.6737 17.3587 49.786 17.3529C49.8033 17.7513 49.8462 18.1487 49.8564 18.548C49.9626 18.5423 50.0698 18.5365 50.178 18.5307C50.2076 19.5247 50.1923 20.5188 50.1749 21.5119C50.0636 21.507 49.9534 21.5032 49.8431 21.4993C49.8084 21.9247 49.8023 22.3529 49.8176 22.7801C49.9309 22.7821 50.0443 22.785 50.1586 22.7869C50.1637 23.2719 50.2484 23.7501 50.2801 24.2332C50.3913 24.2264 50.5026 24.2197 50.6159 24.213C50.619 24.3717 50.6231 24.5315 50.6282 24.6912C50.7527 24.6893 50.8783 24.6864 51.0038 24.6835C51.0038 24.8115 51.0049 24.9395 51.0069 25.0684C51.1427 25.0704 51.2784 25.0713 51.4142 25.0713C51.4132 25.1945 51.4122 25.3186 51.4132 25.4428C51.5541 25.4437 51.696 25.4437 51.8389 25.4437C51.8348 25.5669 51.8307 25.6901 51.8287 25.8132C51.993 25.8161 52.1574 25.819 52.3238 25.8229C52.3156 25.9278 52.3085 26.0336 52.3023 26.1404C52.5861 26.1549 52.8679 26.1837 53.1517 26.2116C53.1435 26.3136 53.1364 26.4156 53.1292 26.5186C53.6784 26.5388 54.2246 26.6081 54.7748 26.6052C54.7676 26.7091 54.7615 26.814 54.7554 26.9179C56.3632 26.9276 57.971 26.9497 59.5788 26.9006C59.5717 26.7986 59.5656 26.6966 59.5594 26.5956C59.977 26.5638 60.3945 26.5301 60.813 26.5196C60.8049 26.4166 60.7977 26.3146 60.7906 26.2126C61.0723 26.1837 61.3541 26.1529 61.6379 26.1366C61.6297 26.0317 61.6225 25.9268 61.6164 25.8229C61.7828 25.8113 61.9502 25.7988 62.1176 25.7863C62.1125 25.6718 62.1064 25.5582 62.1023 25.4437C62.2432 25.4437 62.3851 25.4428 62.528 25.4418C62.527 25.3167 62.527 25.1916 62.526 25.0675C62.6577 25.0684 62.7904 25.0694 62.9241 25.0694C62.9241 24.9356 62.9241 24.8028 62.9241 24.6691C63.0537 24.6729 63.1844 24.6758 63.3161 24.6787C63.3192 24.5276 63.3233 24.3756 63.3284 24.2245C63.4417 24.2303 63.557 24.2361 63.6724 24.2418C63.6999 23.9984 63.7336 23.7549 63.754 23.5105C63.8623 23.5172 63.9715 23.524 64.0817 23.5307C64.1879 22.223 64.1879 20.9047 64.0817 19.5969C63.9725 19.6037 63.8633 19.6104 63.7561 19.6171C63.7234 19.3785 63.6846 19.1408 63.6581 18.9022C63.5305 18.905 63.4049 18.907 63.2804 18.9089C63.2783 18.7722 63.2783 18.6366 63.2794 18.5009C63.1579 18.5038 63.0374 18.5076 62.917 18.5105C62.9149 18.3806 62.9139 18.2517 62.9129 18.1227C62.7557 18.1189 62.5995 18.115 62.4443 18.1121C62.4464 17.9938 62.4504 17.8773 62.4545 17.7599C62.2014 17.7311 61.9492 17.6935 61.696 17.6666C61.7022 17.5617 61.7093 17.4578 61.7165 17.3538C61.4378 17.325 61.1601 17.298 60.8814 17.2836C60.8875 17.1787 60.8947 17.0729 60.9018 16.968C60.6221 16.9401 60.3424 16.9141 60.0617 16.9016C60.0688 16.7986 60.076 16.6966 60.0841 16.5956C59.6707 16.5648 59.2573 16.5234 58.8428 16.5138C58.85 16.4118 58.8571 16.3098 58.8653 16.2078C58.4569 16.1702 58.0496 16.1298 57.6413 16.1144C57.6413 16.0047 57.6413 15.896 57.6423 15.7873C57.3585 15.7757 57.0758 15.7622 56.793 15.7565C56.7981 15.6525 56.8032 15.5496 56.8093 15.4456C56.3949 15.436 55.9824 15.3879 55.57 15.361C55.5761 15.259 55.5843 15.157 55.5925 15.055C55.2913 15.029 54.9912 14.9982 54.6901 14.9809C54.6941 14.8769 54.6992 14.774 54.7054 14.6701C54.4226 14.6566 54.1419 14.6287 53.8611 14.6046C53.8673 14.5007 53.8744 14.3977 53.8826 14.2948C53.6233 14.2765 53.366 14.2447 53.1088 14.2178C53.1139 14.11 53.12 14.0013 53.1261 13.8935C52.9659 13.8906 52.8046 13.8868 52.6453 13.8829C52.6474 13.7588 52.6504 13.6346 52.6545 13.5115C52.5167 13.5124 52.3799 13.5134 52.2441 13.5134C52.2431 13.3825 52.2441 13.2526 52.2472 13.1227C52.1104 13.1237 51.9746 13.1256 51.8389 13.1266C51.8389 12.9938 51.8399 12.8619 51.8419 12.7301C51.7235 12.7349 51.6071 12.7407 51.4908 12.7455C51.455 12.4905 51.4214 12.2355 51.404 11.9786C51.2805 11.9814 51.157 11.9834 51.0345 11.9863C51.0294 11.8284 51.0253 11.6706 51.0232 11.5128C50.9099 11.5196 50.7976 11.5263 50.6853 11.533C50.6598 11.1654 50.6098 10.7978 50.5955 10.4293C50.4853 10.436 50.376 10.4428 50.2668 10.4495C50.1565 9.0311 50.1749 7.60885 50.2699 6.19045C50.3801 6.19719 50.4904 6.20296 50.6016 6.2097C50.6108 5.82094 50.6629 5.43506 50.6955 5.04919C50.816 5.05208 50.9375 5.05496 51.06 5.05785C51.063 4.89907 51.0671 4.7403 51.0712 4.58152C51.1825 4.5873 51.2948 4.59403 51.4071 4.59981C51.4367 4.36212 51.4765 4.12444 51.5081 3.8858C51.6327 3.88964 51.7582 3.89253 51.8838 3.89542C51.8838 3.76166 51.8838 3.6279 51.8838 3.49511C52.0216 3.48837 52.1604 3.4826 52.2993 3.47586C52.2972 3.35462 52.2942 3.23241 52.2921 3.11116C52.431 3.10635 52.5698 3.10154 52.7096 3.09769C52.7076 2.97452 52.7045 2.85135 52.7025 2.72914C52.9557 2.70123 53.2088 2.6714 53.464 2.65408C53.46 2.53668 53.4579 2.41928 53.4559 2.30188C53.6182 2.29707 53.7815 2.29322 53.9449 2.28937C53.9387 2.1816 53.9326 2.07382 53.9275 1.96605C54.2144 1.9545 54.5002 1.92852 54.787 1.90543C54.7799 1.80439 54.7728 1.70238 54.7666 1.60135C55.3138 1.57344 55.8599 1.50897 56.4091 1.51859C56.402 1.41081 56.3949 1.304 56.3887 1.19719ZM35.5515 2.29515C35.5372 6.03553 35.5454 9.77302 35.5464 13.5134C37.4645 13.499 39.3847 13.575 41.2998 13.447C41.2916 13.344 41.2855 13.2411 41.2784 13.1391C41.5611 13.1256 41.8429 13.0987 42.1256 13.0717C42.1185 12.9697 42.1124 12.8677 42.1052 12.7667C42.3584 12.7465 42.6105 12.7147 42.8637 12.6849C42.8617 12.553 42.8606 12.4212 42.8617 12.2903C42.9882 12.2913 43.1169 12.2932 43.2445 12.2961C43.27 12.0555 43.3078 11.8169 43.3374 11.5773C43.4456 11.584 43.5528 11.5908 43.661 11.5975C43.7141 11.2203 43.759 10.8421 43.7702 10.462C43.8856 10.461 44.0009 10.461 44.1173 10.4601C44.1204 10.2917 44.1234 10.1242 44.1265 9.95585C44.2378 9.96162 44.35 9.96643 44.4623 9.97221C44.5042 8.71932 44.5052 7.46547 44.4613 6.21258C44.3511 6.2174 44.2418 6.22317 44.1326 6.22798C44.0969 5.84307 44.0611 5.45912 44.0417 5.07325C43.9192 5.07132 43.7967 5.06844 43.6753 5.06555C43.6722 4.92602 43.6702 4.78745 43.6691 4.64792C43.5548 4.65466 43.4415 4.66043 43.3272 4.6662C43.3078 4.51801 43.2884 4.36982 43.269 4.22259C43.1475 4.22452 43.027 4.2274 42.9066 4.22933C42.9015 4.09942 42.8964 3.96951 42.8913 3.83961C42.7443 3.83672 42.5973 3.83383 42.4503 3.83191C42.4523 3.72028 42.4544 3.60866 42.4574 3.49607C42.2053 3.4672 41.9521 3.43737 41.6989 3.42005C41.702 3.3065 41.7051 3.19392 41.7081 3.08037C41.5376 3.07652 41.3682 3.07267 41.1987 3.06978C41.2049 2.96297 41.211 2.85616 41.2191 2.74838C40.4321 2.69449 39.645 2.63002 38.8559 2.6483C38.859 2.54245 38.8631 2.43757 38.8671 2.33171C37.7616 2.33941 36.656 2.32594 35.5515 2.29515ZM35.5566 14.2688C35.5566 17.9533 35.4912 21.6437 35.6076 25.3283C35.7781 24.6325 36.0599 25.4129 35.9996 25.7545C36.1303 25.7545 36.261 25.7565 36.3926 25.7584C36.3947 25.8854 36.3957 26.0134 36.3957 26.1414C36.5315 26.1395 36.6683 26.1395 36.8051 26.1404C36.8142 26.2597 36.8234 26.38 36.8316 26.4993C37.2369 26.5224 37.6401 26.5638 38.0433 26.5994C38.0362 26.7014 38.029 26.8044 38.0219 26.9074C39.9053 26.9593 41.7898 26.9478 43.6742 26.9189C43.6661 26.814 43.66 26.7091 43.6538 26.6052C43.956 26.5937 44.2582 26.5686 44.5614 26.5426C44.5532 26.4368 44.5471 26.3309 44.5399 26.2261C44.7931 26.1953 45.0442 26.1597 45.2984 26.1356C45.2964 26.0124 45.2964 25.8902 45.2964 25.768C45.4352 25.768 45.575 25.769 45.7139 25.7709C45.7118 25.6391 45.7098 25.5082 45.7098 25.3773C45.8394 25.3764 45.9701 25.3773 46.1008 25.3783C46.1222 25.1204 46.161 24.8644 46.1947 24.6085C46.3039 24.6133 46.4131 24.6191 46.5234 24.6248C46.5459 24.2293 46.5887 23.8348 46.5969 23.4393C46.7071 23.4451 46.8174 23.4518 46.9297 23.4595C46.947 22.0671 46.943 20.6747 46.9317 19.2823C46.8215 19.288 46.7112 19.2948 46.601 19.3005C46.5908 18.8829 46.5489 18.4662 46.5275 18.0496C46.4182 18.0553 46.31 18.0621 46.2018 18.0688C46.1814 17.7041 46.1243 17.3433 46.0977 16.9795C45.9762 16.9834 45.8568 16.9872 45.7363 16.9911C45.7302 16.8333 45.7241 16.6764 45.72 16.5196C45.6057 16.5263 45.4924 16.5321 45.3801 16.5398C45.3433 16.304 45.3015 16.0692 45.2749 15.8334C45.1442 15.8325 45.0136 15.8315 44.8839 15.8296C44.8819 15.7016 44.8809 15.5736 44.8809 15.4466C44.7451 15.4466 44.6093 15.4466 44.4746 15.4456C44.4705 15.3234 44.4674 15.2022 44.4654 15.0809C44.1959 15.0569 43.9284 15.0184 43.662 14.9818C43.6671 14.876 43.6722 14.7701 43.6783 14.6643C43.3925 14.6614 43.1067 14.6527 42.8219 14.6431C42.8208 14.5315 42.8208 14.4208 42.8208 14.3092C40.3994 14.264 37.978 14.2486 35.5566 14.2688Z" fill="white"/>
<path d="M6.58164 33.9222C6.82154 33.929 7.06246 33.9328 7.30235 33.9328C7.31154 34.2879 7.31562 34.643 7.3146 34.9981C7.0696 34.9933 6.82562 34.9933 6.58062 34.9971C6.5796 34.6391 6.58062 34.2802 6.58164 33.9222Z" fill="white"/>
<path d="M20.8753 33.9157C21.1121 33.9292 21.3489 33.9417 21.5868 33.9494C21.6062 34.2958 21.6103 34.6422 21.6021 34.9887C21.2356 34.9963 20.8691 34.9915 20.5037 34.9704C20.4945 34.749 20.4812 34.5277 20.4669 34.3064C20.6088 34.3112 20.7507 34.317 20.8926 34.3218C20.8875 34.1861 20.8814 34.0504 20.8753 33.9157Z" fill="white"/>
<path d="M32.7104 33.9192C33.0973 33.9249 33.4852 33.9201 33.8731 33.9057C33.8956 34.6544 33.7853 35.4492 33.9221 36.1699C34.8184 36.3759 35.7903 36.0641 36.7131 36.244C36.7264 37.3651 36.8734 38.4813 36.7958 39.6053C37.1061 39.5572 37.2735 39.689 37.2531 39.995C36.6937 40.0162 36.1343 40.0056 35.5749 39.996C35.5749 39.9026 35.5749 39.8102 35.5749 39.7179C35.8188 39.6832 36.0608 39.6351 36.3048 39.5937C36.316 38.8316 36.2986 38.0695 36.3201 37.3083C36.2037 37.3102 36.0894 37.3122 35.974 37.3141C35.9801 37.0552 35.9812 36.7954 35.9842 36.5375C35.4054 36.5375 34.8266 36.5308 34.2478 36.5327C34.2549 36.6626 34.2631 36.7925 34.2713 36.9234C34.1334 36.9186 33.9967 36.9147 33.8599 36.9128C33.8762 37.802 33.8486 38.6921 33.8711 39.5812C33.964 39.7727 34.2192 39.6736 34.3927 39.7092C34.3733 39.7814 34.3335 39.9248 34.3131 39.9969C33.7813 40.0239 33.2484 39.9979 32.7165 39.9969C32.7165 39.8959 32.7155 39.7948 32.7145 39.6948C32.8533 39.6996 32.9922 39.7054 33.131 39.7102C33.134 37.879 33.1269 36.0477 33.1361 34.2156C32.9932 34.2223 32.8513 34.229 32.7094 34.2367C32.7094 34.1309 32.7094 34.0241 32.7104 33.9192Z" fill="white"/>
<path d="M71.4979 33.9157C72.0165 33.9186 72.5351 33.9147 73.0537 33.9234C73.0322 34.6932 73.0516 35.464 73.0414 36.2348C73.3528 36.231 73.6652 36.2319 73.9785 36.2271C73.9785 36.3051 73.9775 36.459 73.9775 36.537C73.6682 36.5321 73.3589 36.5321 73.0506 36.5283C73.0424 37.5887 73.0384 38.6492 73.0537 39.7096C73.1894 39.7029 73.3273 39.6961 73.4651 39.6903C73.464 39.7914 73.463 39.8934 73.464 39.9954C72.9087 40.0031 72.3534 40.0089 71.7991 39.9983C71.8756 39.776 71.9318 39.5479 71.9389 39.3131C72.0655 39.3179 72.1941 39.3237 72.3228 39.3285C72.3166 37.7504 72.3187 36.1723 72.3217 34.5941C72.1839 34.5999 72.0461 34.6066 71.9103 34.6143C71.9165 34.4806 71.9236 34.3478 71.9318 34.215C71.7858 34.2208 71.6408 34.2275 71.4969 34.2352C71.4969 34.1284 71.4969 34.0216 71.4979 33.9157Z" fill="white"/>
<path d="M104.165 33.9124C104.552 33.9192 104.941 33.9163 105.33 33.9057C105.304 35.838 105.332 37.7712 105.316 39.7034C105.452 39.6967 105.591 39.69 105.732 39.6842C105.73 39.7891 105.73 39.8959 105.731 40.0027C105.21 40.0027 104.689 40.0017 104.169 40.0008C104.168 39.8949 104.167 39.79 104.168 39.6851C104.306 39.6919 104.446 39.6986 104.586 39.7063C104.581 37.8751 104.579 36.0448 104.587 34.2146C104.445 34.2223 104.304 34.23 104.164 34.2377C104.163 34.129 104.163 34.0202 104.165 33.9124Z" fill="white"/>
<path d="M106.93 33.9165C107.345 33.9146 107.76 33.9165 108.176 33.9194C108.154 35.8468 108.17 37.7743 108.169 39.7017C108.307 39.6959 108.448 39.6892 108.59 39.6844C108.588 39.7893 108.587 39.8951 108.589 40.001C108.066 40.0029 107.545 40.0029 107.023 40.0039C107.022 39.8942 107.022 39.7854 107.022 39.6767C107.108 39.6863 107.277 39.7065 107.363 39.7161C107.527 37.9715 107.389 36.1971 107.435 34.4409C107.462 34.1734 107.116 34.2283 106.937 34.2158C106.936 34.1407 106.932 33.9915 106.93 33.9165Z" fill="white"/>
<path d="M0.47975 34.3343C1.67413 34.2736 2.87054 34.341 4.06492 34.2986C4.05471 34.3776 4.03327 34.5354 4.02306 34.6152C4.29256 34.697 4.57635 34.7076 4.85708 34.7018C4.86321 35.1868 4.86321 35.6709 4.86933 36.1558C4.73152 36.153 4.59371 36.1501 4.45692 36.1481C4.461 36.2771 4.4661 36.407 4.47223 36.5379C3.91077 36.3666 3.89954 37.2047 4.46815 37.0065C4.45998 37.1345 4.45181 37.2634 4.44365 37.3924C4.58962 37.3847 4.7356 37.377 4.88158 37.3702C4.87342 37.5088 4.86627 37.6474 4.85913 37.7869C4.99592 37.7802 5.13271 37.7744 5.2695 37.7686C5.27665 38.2517 5.27562 38.7348 5.25623 39.2178C5.1225 39.2149 4.98979 39.212 4.85606 39.2101C4.86219 39.3487 4.86831 39.4863 4.87546 39.6258C4.72744 39.6191 4.58044 39.6133 4.43242 39.6085C4.43242 39.7307 4.43344 39.8539 4.43344 39.978C3.24315 40.004 2.05285 40.0098 0.861542 40.0001C0.861542 39.8962 0.861542 39.7933 0.860521 39.6893C1.00038 39.6951 1.14023 39.7018 1.27906 39.7086C1.26988 39.546 1.26069 39.3853 1.25048 39.2236C1.36685 39.2265 1.48323 39.2284 1.5996 39.2313C1.58429 37.8418 1.58633 36.4522 1.59858 35.0637C1.51794 35.0762 1.35767 35.1021 1.27804 35.1156C1.27498 34.9463 1.27294 34.7769 1.27192 34.6075C1.00752 34.6027 0.743125 34.5921 0.478729 34.5854C0.47975 34.5017 0.47975 34.418 0.47975 34.3343ZM2.00385 34.6027C2.01815 35.1974 2.00181 35.7921 2.00896 36.3868C2.1825 37.4549 1.84767 38.5885 2.07123 39.6345C2.59696 39.7779 3.19619 39.6662 3.7505 39.7028C3.74335 39.5739 3.73621 39.4449 3.72906 39.3169C3.86279 39.3217 3.9955 39.3266 4.12821 39.3323C4.14965 38.779 4.15169 38.2257 4.12923 37.6734C3.99346 37.6791 3.85769 37.6859 3.72294 37.6926C3.73008 37.5617 3.73723 37.4318 3.74438 37.3019C3.56471 37.3038 3.38606 37.3067 3.20742 37.3106C3.18496 36.9305 3.18394 36.4493 3.74029 36.6139C3.73315 36.484 3.72498 36.3541 3.71783 36.2251C3.85565 36.2319 3.99346 36.2396 4.13127 36.2463C4.10881 35.821 4.18742 35.3851 4.05777 34.9703C3.971 34.9809 3.79746 35.003 3.71069 35.0146C3.71988 34.8799 3.72906 34.7461 3.73825 34.6123C3.16046 34.6085 2.58267 34.5989 2.00385 34.6027Z" fill="white"/>
<path d="M54.3721 34.3187C55.2908 34.3091 56.2106 34.3072 57.1294 34.3052C57.1324 34.7912 57.1273 35.2762 57.1243 35.7621C57.0201 35.7612 56.916 35.7612 56.8129 35.7621C56.8149 35.4994 56.8109 35.2367 56.8119 34.975C56.672 34.9817 56.5332 34.9894 56.3954 34.9981C56.4025 34.8682 56.4097 34.7383 56.4178 34.6093C55.9666 34.5978 55.5154 34.591 55.0642 34.5987C55.0673 34.7258 55.0703 34.8528 55.0754 34.9808C54.9427 34.9769 54.811 34.9731 54.6804 34.9711C54.6794 35.2694 54.6763 35.5677 54.6743 35.867C54.8059 35.8641 54.9376 35.8622 55.0703 35.8593C55.0683 35.9873 55.0673 36.1153 55.0673 36.2442C55.2092 36.2413 55.3511 36.2375 55.494 36.2346C55.4868 36.3597 55.4807 36.4848 55.4756 36.6109C55.7502 36.6157 56.0258 36.6243 56.3015 36.6291C56.2974 36.7542 56.2943 36.8803 56.2923 37.0073C56.4393 37.0006 56.5863 36.9948 56.7333 36.989C56.7251 37.1228 56.718 37.2565 56.7108 37.3913C56.8558 37.3826 57.0007 37.3749 57.1457 37.3672C57.1375 37.5077 57.1314 37.6492 57.1253 37.7906C57.257 37.7868 57.3886 37.7848 57.5224 37.782C57.5305 38.2621 57.5305 38.7433 57.5316 39.2244C57.3958 39.2186 57.261 39.2129 57.1263 39.209C57.1324 39.3495 57.1406 39.491 57.1488 39.6324C56.9997 39.6228 56.8517 39.6122 56.7037 39.6026C56.7108 39.7344 56.719 39.8662 56.7282 39.999C56.3096 39.9913 55.8911 39.9885 55.4726 39.9721C55.4848 40.1107 55.497 40.2492 55.5093 40.3878C55.2643 40.3763 55.0203 40.3676 54.7763 40.3647C54.7814 40.2415 54.7865 40.1184 54.7927 39.9952C54.5089 39.9981 54.2261 39.9981 53.9433 40.0039C53.9474 39.7373 53.9464 39.4708 53.9505 39.2052C53.8157 39.2129 53.682 39.2206 53.5493 39.2292C53.5483 38.9963 53.5432 38.7644 53.536 38.5325C53.6412 38.5316 53.7473 38.5306 53.8535 38.5296C53.7912 38.8424 53.9546 38.9896 54.2843 38.928C54.2761 39.0599 54.268 39.1927 54.2618 39.3254C54.4007 39.3206 54.5405 39.3149 54.6804 39.31C54.6722 39.4371 54.6651 39.5651 54.6589 39.693C55.2449 39.7075 55.8319 39.7084 56.4189 39.7007C56.4056 39.5631 56.3933 39.4265 56.3821 39.2908C56.4699 39.3014 56.6445 39.3226 56.7323 39.3331C56.8282 39.0435 56.8088 38.7385 56.8068 38.4401C56.67 38.4459 56.5342 38.4527 56.3984 38.4604C56.4035 38.3247 56.4087 38.19 56.4148 38.0552C56.2749 38.0572 56.1371 38.06 55.9993 38.0639C56.0034 37.935 56.0075 37.807 56.0115 37.679C55.8645 37.6838 55.7165 37.6905 55.5705 37.6973C55.5787 37.5654 55.5869 37.4346 55.595 37.3047C55.3174 37.3037 55.0407 37.2989 54.7641 37.3008C54.7692 37.168 54.7743 37.0362 54.7804 36.9053C54.6365 36.9101 54.4936 36.9169 54.3517 36.9236C54.3578 36.7889 54.3649 36.6542 54.3711 36.5204C54.2302 36.5262 54.0893 36.532 53.9484 36.5387C53.9454 35.9248 53.9362 35.3118 53.9627 34.6988C54.0995 34.7007 54.2363 34.7027 54.3741 34.7036C54.3731 34.5747 54.3721 34.4467 54.3721 34.3187Z" fill="white"/>
<path d="M94.001 34.3385C95.3118 34.3019 96.6246 34.298 97.9353 34.3317C97.9578 34.8129 97.9731 35.295 97.9762 35.778C97.8577 35.7771 97.7403 35.778 97.625 35.779C97.6291 35.6385 97.6352 35.498 97.6413 35.3575C97.5086 35.3604 97.3769 35.3633 97.2473 35.3681C97.2473 35.2372 97.2483 35.1064 97.2503 34.9764C97.1146 34.9726 96.9808 34.9707 96.8481 34.9687C96.8481 34.8475 96.8491 34.7272 96.8512 34.6079C96.1244 34.5761 95.3975 34.6117 94.6707 34.604C94.6829 34.7359 94.6962 34.8677 94.7105 35.0005C94.5625 34.9938 94.4165 34.988 94.2715 34.9832C94.2746 35.114 94.2797 35.2459 94.2858 35.3787C94.146 35.3719 94.0082 35.3671 93.8714 35.3623C93.8775 35.5018 93.8836 35.6414 93.8928 35.7809C93.8132 35.7732 93.6539 35.7569 93.5753 35.7492C93.3967 36.6412 93.46 37.5688 93.5682 38.4666C93.6754 38.4609 93.7836 38.456 93.8928 38.4512C93.8857 38.6129 93.8795 38.7746 93.8755 38.9381C94.0051 38.9295 94.1368 38.9227 94.2695 38.9151C94.3063 39.1518 94.3644 39.3837 94.4236 39.6166C94.1296 39.6175 93.8367 39.6166 93.5437 39.6223C93.5498 39.4895 93.5559 39.3567 93.5641 39.2239C93.4181 39.2307 93.2742 39.2374 93.1303 39.2451C93.1374 39.1056 93.1456 38.967 93.1548 38.8294C93.0159 38.8342 92.8791 38.84 92.7434 38.8467C92.725 37.8219 92.7383 36.7971 92.7331 35.7713C92.872 35.7645 93.0129 35.7569 93.1537 35.7501C93.1476 35.5221 93.1445 35.294 93.1415 35.0669C93.2844 35.0727 93.4294 35.0784 93.5743 35.0842C93.5682 34.9533 93.5621 34.8234 93.557 34.6935C93.6999 34.6964 93.8438 34.6993 93.9888 34.7022C93.9918 34.58 93.9959 34.4587 94.001 34.3385Z" fill="white"/>
<path d="M69.8843 35.0845C69.9833 35.0854 70.0824 35.0864 70.1834 35.0874C70.1885 35.4299 70.1783 35.7735 70.21 36.1151C70.3886 36.3431 70.7541 36.1969 71.0164 36.2334C71.0144 36.3335 71.0144 36.4336 71.0164 36.5337C70.7408 36.5317 70.4662 36.5346 70.1926 36.5346C70.212 37.5498 70.1681 38.567 70.213 39.5812C70.3182 39.7506 70.5468 39.6726 70.7173 39.7005C70.7091 39.7977 70.6938 39.9921 70.6867 40.0902C70.2732 40.097 69.867 40.0287 69.4586 39.9921C69.4566 38.8768 69.4709 37.7615 69.4535 36.6463C69.3565 36.4576 69.1064 36.5625 68.9349 36.5356C68.9431 36.4365 68.9615 36.2382 68.9696 36.1391C69.1034 36.1449 69.2371 36.1507 69.3718 36.1574C69.4249 35.9236 69.4678 35.6878 69.476 35.4492C69.6169 35.4578 69.7587 35.4675 69.9006 35.4771C69.8945 35.3452 69.8894 35.2144 69.8843 35.0845Z" fill="white"/>
<path d="M6.16417 36.2413C6.54902 36.2105 6.92979 36.1489 7.31567 36.1277C7.37284 37.3229 7.22277 38.5354 7.39325 39.718C7.47798 39.7084 7.64744 39.6891 7.73217 39.6795C7.73115 39.7883 7.73115 39.897 7.73115 40.0067C7.2095 40.0057 6.68786 40.0057 6.16621 40.0028C6.16621 39.898 6.16621 39.7921 6.16519 39.6872C6.30504 39.693 6.44592 39.6988 6.58679 39.7055C6.5919 38.646 6.58781 37.5866 6.58986 36.5271C6.44796 36.5329 6.30607 36.5386 6.16417 36.5454C6.16417 36.4434 6.16417 36.3423 6.16417 36.2413Z" fill="white"/>
<path d="M8.91772 36.2467C9.764 36.0696 10.6174 36.2871 11.4729 36.1476C11.481 36.2457 11.4974 36.4401 11.5055 36.5373C11.0615 36.544 10.6174 36.5402 10.1733 36.5286C10.1631 37.5872 10.1703 38.6466 10.1672 39.7051C10.3081 39.6984 10.449 39.6926 10.5899 39.6868C10.5899 39.7908 10.5888 39.8957 10.5888 40.0015C10.0325 40.0015 9.47612 40.0092 8.92079 39.9996C9.15456 39.2971 8.99327 38.5494 9.0392 37.8258C9.01675 37.2985 9.12393 36.7529 8.91772 36.2467Z" fill="white"/>
<path d="M12.2852 36.2346C12.7068 36.1335 13.1346 36.1865 13.5592 36.2384C13.5439 36.504 13.5184 36.7706 13.4531 37.0313C13.3694 37.0207 13.2019 37.0005 13.1182 36.99C13.1264 37.7367 13.1305 38.4824 13.1152 39.2282C13.2315 39.2263 13.3479 39.2244 13.4643 39.2224C13.4541 39.3831 13.4439 39.5448 13.4347 39.7065C13.5745 39.6997 13.7134 39.694 13.8532 39.6882C13.8522 39.7911 13.8522 39.8941 13.8522 39.998C13.203 40.0096 12.5527 40.0048 11.9024 39.9817C11.9024 39.8903 11.9024 39.7998 11.9024 39.7094C12.1576 39.666 12.5272 39.8094 12.6946 39.5804C12.7181 38.6383 12.7038 37.6934 12.7017 36.7503C12.7344 36.5213 12.4465 36.5319 12.2842 36.53C12.2852 36.4309 12.2852 36.3318 12.2852 36.2346Z" fill="white"/>
<path d="M14.6545 36.1377C16.0153 36.3696 17.3842 36.0578 18.7368 36.2561C18.7736 37.329 18.7511 38.4029 18.7572 39.4758C18.7246 39.6991 19.0155 39.6914 19.1737 39.7029C19.1717 39.8049 19.1707 39.9079 19.1707 40.0099C18.649 40.0041 18.1274 40.0022 17.6047 40.0003C17.6047 39.8954 17.6047 39.7924 17.6037 39.6885C17.7415 39.6943 17.8793 39.701 18.0182 39.7077C17.9906 38.6925 18.0396 37.6764 17.9988 36.6631C17.5261 36.3783 16.8411 36.6169 16.2858 36.5255C16.3144 37.5869 16.3032 38.6483 16.296 39.7097C16.4338 39.7039 16.5716 39.6981 16.7105 39.6924C16.7095 39.7934 16.7084 39.8944 16.7084 39.9964C16.1582 40.0032 15.608 40.0061 15.0577 40.0099C15.0057 39.7174 15.168 39.5365 15.4875 39.6067C15.4753 38.7349 15.4742 37.8631 15.4906 36.9922C15.3752 36.997 15.2609 37.0018 15.1476 37.0066C15.1537 36.8479 15.1598 36.69 15.166 36.5322C14.9893 36.5361 14.8127 36.5409 14.6361 36.5457C14.6402 36.4437 14.6504 36.2397 14.6545 36.1377Z" fill="white"/>
<path d="M20.3935 36.2224C20.8039 36.2484 21.2091 36.1723 21.6165 36.1377C21.5909 37.3271 21.6185 38.5174 21.6011 39.7068C21.739 39.7001 21.8768 39.6933 22.0146 39.6875C22.0136 39.7905 22.0136 39.8935 22.0136 39.9974C21.4929 40.0012 20.9723 40.0032 20.4517 40.0041C20.4517 39.8944 20.4517 39.7857 20.4507 39.677C20.5354 39.6866 20.7049 39.7058 20.7896 39.7154C20.9499 38.7407 20.8192 37.738 20.8621 36.7526C20.8906 36.4755 20.5415 36.5361 20.3547 36.5207C20.3639 36.4466 20.3833 36.2965 20.3935 36.2224Z" fill="white"/>
<path d="M22.9101 36.2414C23.4685 36.2135 24.03 36.0692 24.5812 36.2385C24.57 36.3338 24.5475 36.5253 24.5373 36.6206C24.4036 36.6186 24.2709 36.6177 24.1392 36.6158C24.1463 37.6252 24.1555 38.6365 24.1331 39.646C24.374 39.6912 24.619 39.7104 24.866 39.7124C24.865 39.8028 24.865 39.8952 24.865 39.9866C24.2137 40.0088 23.5634 40.0078 22.9121 39.9972C22.9121 39.8952 22.9111 39.7922 22.9111 39.6912C23.05 39.696 23.1898 39.7018 23.3307 39.7076C23.3276 38.6462 23.3317 37.5848 23.3276 36.5234C23.1878 36.5282 23.0489 36.534 22.9101 36.5407C22.9101 36.4406 22.9101 36.3405 22.9101 36.2414Z" fill="white"/>
<path d="M25.682 36.1277C26.0944 36.1566 26.5007 36.2355 26.9152 36.2403C26.9152 36.6233 26.9244 37.0063 26.9193 37.3893C27.0561 37.3864 27.1918 37.3845 27.3286 37.3826C27.3041 38.1582 27.3235 38.9347 27.3133 39.7113C27.4511 39.7074 27.59 39.7026 27.7298 39.6997C27.7278 39.795 27.7268 39.8903 27.7268 39.9874C27.0765 40.0077 26.4262 40.0086 25.7759 39.9942C25.7759 39.8931 25.7749 39.7921 25.7749 39.692C25.9138 39.6978 26.0526 39.7026 26.1914 39.7084C26.1833 38.6874 26.2108 37.6655 26.173 36.6455C26.0638 36.4761 25.8341 36.556 25.6637 36.5319C25.6677 36.4309 25.6769 36.2288 25.682 36.1277Z" fill="white"/>
<path d="M28.6383 36.2452C28.8833 36.2414 29.1283 36.2298 29.3733 36.2202C29.4019 36.2674 29.4611 36.3626 29.4907 36.4107C29.6224 36.4377 29.7561 36.4656 29.8868 36.4993C29.7092 36.5127 29.5326 36.5233 29.3549 36.532C29.3437 37.0747 29.3458 37.6174 29.36 38.1602C29.5295 38.1563 29.7 38.1544 29.8705 38.1515C29.8674 38.2535 29.8623 38.4575 29.8592 38.5595C29.7245 38.5509 29.5897 38.5432 29.456 38.5364C29.3886 38.7895 29.3478 39.0474 29.3376 39.3091C30.1553 39.3265 30.973 39.3062 31.7896 39.3303C31.7886 39.4544 31.7876 39.5795 31.7876 39.7046C31.9305 39.6998 32.0744 39.695 32.2194 39.6902C32.2245 40.3032 32.2296 40.9171 32.2041 41.5301C31.9244 41.533 31.6447 41.5387 31.365 41.531C31.3823 41.6619 31.3997 41.7928 31.417 41.9246C30.4891 41.9188 29.5612 41.9362 28.6332 41.915C28.6383 41.787 28.6424 41.659 28.6475 41.532C28.5015 41.5378 28.3566 41.5435 28.2126 41.5512C28.2137 41.0663 28.2126 40.5822 28.2412 40.0982C28.376 40.0982 28.5117 40.0982 28.6485 40.0992C28.6312 39.6825 28.6189 39.2668 28.6148 38.8511C28.7629 38.8482 28.9099 38.8463 29.0589 38.8453C28.9844 38.6076 28.9395 38.3632 28.9456 38.1159C28.7118 38.0813 28.478 38.0572 28.2422 38.0447C28.2167 37.577 28.2228 37.1084 28.2453 36.6407C28.378 36.6388 28.5107 36.6378 28.6434 36.6359C28.6414 36.5051 28.6404 36.3751 28.6383 36.2452ZM29.0181 40.0818C28.9293 40.4648 28.9568 40.8594 28.9548 41.2491C29.0926 41.2414 29.2304 41.2347 29.3682 41.2279C29.359 41.3588 29.3509 41.4906 29.3437 41.6234C29.9317 41.6186 30.5207 41.6157 31.1098 41.6273C31.1047 41.5022 31.0995 41.3771 31.0944 41.2529C31.2251 41.2549 31.3568 41.2577 31.4885 41.2606C31.4905 40.9623 31.4936 40.664 31.4977 40.3657C31.3578 40.3705 31.219 40.3763 31.0802 40.3821C31.0863 40.2541 31.0924 40.1261 31.0995 39.9981C30.4054 40.0318 29.702 39.9385 29.0181 40.0818Z" fill="white"/>
<path d="M30.6558 36.5239C30.664 36.3911 30.6721 36.2574 30.6803 36.1246C31.1907 36.216 31.7093 36.2497 32.2279 36.2295C32.2279 36.3334 32.2279 36.4383 32.2289 36.5432C32.0901 36.5355 31.9513 36.5297 31.8124 36.523C31.8216 37.032 31.8124 37.541 31.8053 38.0501C31.5194 38.0713 31.2408 38.1319 30.9631 38.1925C31.055 37.6844 31.1223 37.1677 31.0682 36.6519C30.9743 36.5201 30.7987 36.5461 30.6558 36.5239Z" fill="white"/>
<path d="M39.9703 36.1382C40.3837 36.1334 40.7951 36.1642 41.2024 36.2363C41.3239 37.3497 41.2902 38.4688 41.2902 39.5879C41.5321 39.6313 41.7731 39.6813 42.017 39.7179C42.016 39.8016 42.016 39.8853 42.016 39.97C41.6056 40.098 41.182 40.0787 40.7665 39.9834C40.7961 39.3772 40.791 38.77 40.7971 38.1628C40.3888 38.1041 39.5231 37.8174 39.5425 38.4621C39.4139 38.4544 39.2863 38.4467 39.1597 38.439C39.1597 38.8605 39.1567 39.2819 39.1546 39.7034C39.318 39.6938 39.4823 39.6832 39.6467 39.6736C39.6507 39.817 39.6558 39.9604 39.6609 40.1037C39.2455 40.0758 38.8371 39.9815 38.4196 39.9979C38.4268 39.5052 38.4257 39.0125 38.4145 38.5198C38.5585 38.5275 38.7024 38.5362 38.8463 38.5448C38.8382 38.4092 38.83 38.2735 38.8228 38.1388C39.0372 38.1493 39.2516 38.1599 39.467 38.1734C39.5568 38.0454 39.6375 37.9117 39.6946 37.7683C39.956 37.7692 40.2163 37.7702 40.4786 37.7741C40.4817 37.3593 40.4756 36.9446 40.4674 36.5298C40.2928 36.5327 40.1193 36.5366 39.9458 36.5404C39.9519 36.4394 39.9641 36.2392 39.9703 36.1382Z" fill="white"/>
<path d="M42.8572 36.2247C43.5637 36.1584 44.2578 36.1882 44.9653 36.2498C44.9745 36.32 44.9928 36.4605 45.002 36.5308C44.7131 36.5356 44.4232 36.5346 44.1353 36.5221C43.9812 37.5729 44.117 38.6487 44.0629 39.7092C44.2007 39.7024 44.3385 39.6957 44.4773 39.689C44.4763 39.7919 44.4763 39.8958 44.4763 39.9998C43.9557 40.0036 43.435 40.0055 42.9154 40.0065C42.9144 39.8968 42.9144 39.7881 42.9134 39.6793C42.9991 39.6899 43.1686 39.7092 43.2533 39.7188C43.4116 38.744 43.2829 37.7403 43.3248 36.755C43.3544 36.4817 42.9971 36.5336 42.8123 36.5202C42.8236 36.4461 42.846 36.2988 42.8572 36.2247Z" fill="white"/>
<path d="M45.2933 36.1451C45.7373 36.1355 46.1753 36.2153 46.6173 36.2394C46.5826 37.3768 46.6132 38.5152 46.5908 39.6536C46.8347 39.6911 47.0818 39.7074 47.3298 39.7074C47.3288 39.8027 47.3288 39.8989 47.3298 39.9952C46.6765 40.0096 46.0242 40.0086 45.3719 39.999C45.3709 39.896 45.3709 39.794 45.3698 39.693C45.5077 39.6988 45.6455 39.7046 45.7843 39.7113C45.769 38.6528 45.7782 37.5943 45.7833 36.5358C45.6108 36.5367 45.4393 36.5387 45.2688 36.5396C45.2749 36.4415 45.2872 36.2442 45.2933 36.1451Z" fill="white"/>
<path d="M47.735 36.1414C48.2811 36.1163 48.8161 36.227 49.3591 36.253C49.3949 37.4029 49.3714 38.5538 49.3745 39.7037C49.5133 39.697 49.6521 39.6902 49.792 39.6845C49.7899 39.7903 49.7899 39.8971 49.791 40.0049C49.2714 40.0049 48.7507 40.0039 48.2311 39.9972C48.2311 39.8952 48.2301 39.7932 48.2301 39.6912C48.3689 39.697 48.5078 39.7018 48.6476 39.7085C48.6466 38.6875 48.668 37.6666 48.6313 36.6465C48.4047 36.4214 48.0045 36.5792 47.7054 36.5407C47.7125 36.4406 47.7279 36.2414 47.735 36.1414Z" fill="white"/>
<path d="M59.2366 36.2202C59.4887 36.227 59.7419 36.2318 59.9951 36.2318C59.994 36.3347 59.994 36.4387 59.9961 36.5435C59.8521 36.5358 59.7082 36.5301 59.5653 36.5243C59.5714 36.6581 59.5775 36.7918 59.5847 36.9265C59.4469 36.9188 59.3101 36.9111 59.1743 36.9034C59.2202 37.7079 59.0743 38.5297 59.2621 39.3207C59.3407 39.3139 59.4969 39.2985 59.5755 39.2918C59.4969 39.6315 59.7837 39.7633 60.0971 39.7008C60.0931 39.7787 60.0859 39.9327 60.0818 40.0097C59.8042 40.002 59.5265 39.9991 59.2488 40.002C59.256 39.8701 59.2631 39.7393 59.2713 39.6094C59.1304 39.6171 58.9916 39.6257 58.8527 39.6344C58.9109 39.3611 58.7302 39.1532 58.4291 39.2283C58.4413 38.4825 58.4342 37.7358 58.4352 36.99C58.5751 36.9968 58.7149 37.0035 58.8568 37.0112C58.8487 36.8726 58.8415 36.735 58.8344 36.5974C58.9803 36.609 59.1263 36.6205 59.2733 36.6321C59.2601 36.4945 59.2478 36.3569 59.2366 36.2202Z" fill="white"/>
<path d="M61.1761 36.231C61.464 36.2281 61.7518 36.2329 62.0407 36.2329C62.0336 36.3647 62.0275 36.4966 62.0224 36.6303C62.1632 36.6236 62.3062 36.6168 62.4491 36.6111C62.443 36.7477 62.4389 36.8853 62.4348 37.0239C62.5644 37.0239 62.6951 37.0248 62.8258 37.0268C62.8605 37.6263 62.8584 38.2277 62.8298 38.8282C62.6982 38.8262 62.5675 38.8253 62.4378 38.8243C62.443 38.9658 62.4501 39.1072 62.4572 39.2496C62.3746 39.24 62.2071 39.2217 62.1234 39.2131C62.0867 39.3536 62.052 39.496 62.0203 39.6384C61.8805 39.6278 61.7416 39.6191 61.6028 39.6105C61.6794 39.3516 61.7202 39.0851 61.7212 38.8166C61.7998 38.8272 61.956 38.8474 62.0336 38.858C62.0326 38.3653 62.0326 37.8717 62.0316 37.378C61.9509 37.3886 61.7896 37.4098 61.709 37.4203C61.709 37.2481 61.709 37.0758 61.711 36.9046C61.5824 36.9103 61.4548 36.9171 61.3282 36.9238C61.3006 36.689 61.2384 36.459 61.1761 36.231Z" fill="white"/>
<path d="M63.3365 36.2374C63.7356 36.3259 64.2542 36.0007 64.5605 36.2566C64.5748 37.2507 64.5635 38.2457 64.5645 39.2407C64.6431 39.231 64.8014 39.2128 64.881 39.2031C64.9086 39.3638 64.8371 39.5746 65.0086 39.6814C65.5415 39.7199 66.0774 39.6872 66.6113 39.7093C66.5909 38.646 66.6001 37.5827 66.6083 36.5203C66.4694 36.5251 66.3326 36.5299 66.1958 36.5357C66.1958 36.4375 66.1969 36.3394 66.1979 36.2422C66.595 36.3221 67.1156 35.9949 67.4178 36.2595C67.4341 37.371 67.4168 38.4833 67.4239 39.5957C67.6699 39.6275 67.9159 39.6708 68.163 39.7083C68.1609 39.8065 68.1609 39.9037 68.162 40.0028C66.8196 39.9248 65.4945 40.1317 64.1654 39.9912C64.0398 38.8702 64.0603 37.7424 64.0766 36.6156C63.8326 36.5626 63.5856 36.527 63.3355 36.5213C63.3355 36.426 63.3355 36.3317 63.3365 36.2374Z" fill="white"/>
<path d="M74.2322 36.5388C74.1903 35.8604 75.0887 36.2231 75.5235 36.2366C75.5133 36.3675 75.5052 36.4983 75.498 36.6292C75.6358 36.6225 75.7747 36.6157 75.9145 36.61C75.9104 37.6415 75.9176 38.6741 75.9125 39.7066C76.0503 39.6998 76.1891 39.6931 76.329 39.6864C76.3269 39.7913 76.3269 39.8962 76.3279 40.001C75.8063 40.0039 75.2847 40.0049 74.764 40.0059C74.763 39.8981 74.763 39.7913 74.763 39.6845C74.8773 39.6893 74.9927 39.6941 75.1091 39.6998C75.1142 38.8107 75.057 37.9177 75.1826 37.0343C75.1101 36.863 74.912 36.9266 74.764 36.9169C74.7702 36.788 74.7783 36.66 74.7865 36.532C74.6007 36.534 74.4169 36.5368 74.2322 36.5388Z" fill="white"/>
<path d="M78.0201 36.2169C78.1682 36.2237 78.3182 36.2294 78.4683 36.2342C78.3764 36.4527 78.3387 36.6846 78.3427 36.9184C78.211 36.9117 78.0804 36.9059 77.9518 36.9001C77.9497 37.1965 77.9426 37.4977 78.0283 37.7864C78.3009 37.7748 78.5734 37.7691 78.847 37.7585C78.8562 37.8374 78.8736 37.9952 78.8828 38.0741C78.599 38.0741 78.3141 38.0732 78.0314 38.0635C77.9303 38.3532 77.9262 38.663 78.0273 38.9536C78.1141 38.9421 78.2856 38.92 78.3723 38.9084C78.3631 39.047 78.356 39.1846 78.3499 39.3241C78.4908 39.3174 78.6327 39.3116 78.7766 39.3058C78.7674 39.4338 78.7592 39.5618 78.7531 39.6917C79.3074 39.6956 79.8617 39.7119 80.415 39.683C80.414 39.7927 80.414 39.9024 80.415 40.0121C79.6127 40.0179 78.8317 40.1016 78.0293 39.9977C78.0365 39.8678 78.0436 39.7379 78.0528 39.609C77.9048 39.6157 77.7578 39.6234 77.6118 39.632C77.619 39.4925 77.6261 39.353 77.6353 39.2135C77.4975 39.2183 77.3617 39.224 77.227 39.2308C77.2116 38.486 77.2127 37.7421 77.2239 36.9973C77.3607 37.0031 77.4985 37.0098 77.6363 37.0166C77.6292 36.8761 77.622 36.7356 77.6159 36.5951C77.7619 36.6086 77.9099 36.6211 78.0579 36.6355C78.0436 36.496 78.0314 36.3564 78.0201 36.2169Z" fill="white"/>
<path d="M79.5768 36.2169C79.8544 36.2265 80.1341 36.2314 80.4128 36.2285C80.4047 36.3622 80.3975 36.496 80.3924 36.6297C80.5292 36.6249 80.667 36.6201 80.8058 36.6153C80.8058 36.8405 80.812 37.0666 80.8222 37.2927C80.5721 37.3245 80.325 37.3726 80.08 37.4217C79.9882 37.1667 79.98 36.8963 79.9912 36.6297C79.6574 36.6932 79.5257 36.5123 79.5768 36.2169Z" fill="white"/>
<path d="M81.5934 36.2447C82.1896 36.0176 82.8031 36.339 83.4085 36.1918C83.7392 36.1206 84.2588 36.0503 84.2108 36.5324C83.7535 36.5488 83.2972 36.5411 82.8419 36.5267C82.8491 36.6604 82.8582 36.7932 82.8684 36.9279C82.7521 36.9231 82.6357 36.9193 82.5214 36.9174C82.5377 37.8094 82.5224 38.7014 82.5346 39.5944C82.9042 39.6627 83.2768 39.7253 83.6565 39.7214C83.6545 39.8061 83.6545 39.8918 83.6555 39.9774C82.9767 40.0063 82.2978 40.0072 81.6189 40.0092C81.5618 39.7436 81.7312 39.5309 82.0283 39.6089C82.1702 38.6139 82.159 37.5977 82.0252 36.6017C81.9456 36.6133 81.7884 36.6364 81.7088 36.647C81.6679 36.5132 81.6302 36.3785 81.5934 36.2447Z" fill="white"/>
<path d="M84.8548 36.242C85.6306 36.0659 86.4095 36.3354 87.1843 36.1785C87.6447 36.0861 88.1031 36.2295 88.5645 36.2362C88.7135 37.3534 88.639 38.4803 88.6523 39.6042C88.8952 39.6523 89.1412 39.6956 89.3924 39.7101C89.3903 39.8063 89.3903 39.9016 89.3913 39.9978C88.8421 40.0045 88.2919 40.0036 87.7427 40.0074C87.6815 39.7322 87.8642 39.5244 88.1674 39.6071C88.149 38.7372 88.1531 37.8673 88.1653 36.9984C88.0479 36.9993 87.9316 37.0022 87.8162 37.0051C87.8264 36.8473 87.8366 36.6895 87.8478 36.5326C87.2721 36.5394 86.6964 36.5365 86.1206 36.5288C86.1135 37.5892 86.1186 38.6487 86.1155 39.7091C86.2533 39.7033 86.3911 39.6985 86.531 39.6937C86.5289 39.7928 86.5279 39.8929 86.5289 39.9939C85.8797 40.0093 85.2294 40.0093 84.5812 39.9862C84.5791 39.891 84.5781 39.7957 84.5781 39.7014C84.7149 39.7053 84.8537 39.7091 84.9926 39.713C84.9119 38.5592 85.1457 37.3698 84.8548 36.242Z" fill="white"/>
<path d="M99.6852 36.2234C99.9292 36.2292 100.174 36.232 100.42 36.2301C100.418 36.3341 100.419 36.4389 100.421 36.5438C100.276 36.5361 100.133 36.5284 99.9914 36.5217C99.9996 36.6526 100.01 36.7844 100.022 36.9162C99.8741 36.9307 99.6781 36.87 99.6107 37.0375C99.5872 37.6726 99.6199 38.3086 99.5984 38.9447C99.7301 38.9389 99.8618 38.9341 99.9955 38.9293C100.035 39.1737 99.8924 39.5134 100.132 39.6809C100.363 39.703 100.597 39.6963 100.83 39.6934C100.828 39.7954 100.828 39.8993 100.829 40.0023C100.442 40.0003 100.056 40.0023 99.6699 40.0061C99.677 39.8723 99.6852 39.7396 99.6954 39.6068C99.5484 39.6135 99.4035 39.6222 99.2595 39.6308C99.2656 39.4913 99.2728 39.3527 99.2809 39.2151C99.1421 39.2199 99.0053 39.2257 98.8696 39.2324C98.8634 38.4896 98.8512 37.7467 98.8757 37.0038C99.0094 37.0086 99.1442 37.0134 99.2809 37.0192C99.2728 36.8835 99.2646 36.7498 99.2575 36.615C99.5586 36.692 99.7709 36.514 99.6852 36.2234Z" fill="white"/>
<path d="M101.635 36.2202C101.905 36.226 102.177 36.2289 102.449 36.225C102.371 36.5281 102.568 36.6821 102.879 36.6157C102.87 36.7514 102.863 36.8871 102.858 37.0228C102.987 37.0218 103.117 37.0199 103.25 37.0189C103.275 37.629 103.26 38.24 103.273 38.8501C103.135 38.8424 102.999 38.8367 102.865 38.8299C102.866 39.0936 102.864 39.3582 102.869 39.6228C102.722 39.6161 102.577 39.6113 102.432 39.6074C102.431 39.7306 102.432 39.8538 102.434 39.9779C102.153 39.9856 101.873 39.9972 101.595 40.0058C101.674 39.7845 101.743 39.5593 101.76 39.3255C101.886 39.3264 102.012 39.3284 102.141 39.3303C102.134 39.1658 102.128 39.0022 102.121 38.8386C102.234 38.8415 102.346 38.8443 102.46 38.8492C102.436 38.3257 102.446 37.8012 102.456 37.2778C102.375 37.2883 102.212 37.3076 102.132 37.3172C102.173 36.9381 102.206 36.3761 101.616 36.5301C101.62 36.4521 101.629 36.2972 101.635 36.2202Z" fill="white"/>
<path d="M110.288 36.2234C110.4 36.2234 110.512 36.2234 110.628 36.2234C110.621 36.4572 110.62 36.692 110.626 36.9259C110.512 36.921 110.4 36.9182 110.289 36.9153C110.295 37.2011 110.298 37.4869 110.304 37.7727C110.682 37.7678 111.06 37.7755 111.44 37.7746C111.438 37.8727 111.438 37.9728 111.44 38.0719C111.072 38.07 110.703 38.0623 110.338 38.0902C110.267 38.3385 110.304 38.5993 110.294 38.8543C110.406 38.8475 110.519 38.8417 110.635 38.836C110.627 38.9976 110.621 39.1603 110.616 39.3229C110.757 39.3152 110.899 39.3075 111.042 39.2998C111.033 39.4297 111.025 39.5606 111.018 39.6914C111.597 39.6934 112.178 39.7107 112.759 39.6857C112.752 39.7954 112.747 39.9051 112.745 40.0157C111.922 40.01 111.122 40.0879 110.298 39.9936C110.303 39.8637 110.309 39.7347 110.316 39.6058C110.169 39.6116 110.024 39.6183 109.88 39.626C109.885 39.4865 109.892 39.3479 109.9 39.2093C109.766 39.2103 109.633 39.2122 109.503 39.2151C109.469 38.4799 109.475 37.7448 109.497 37.0096C109.629 37.0125 109.765 37.0163 109.901 37.0192C109.894 36.8806 109.888 36.7421 109.882 36.6035C110.025 36.6131 110.17 36.6227 110.315 36.6324C110.305 36.4957 110.296 36.3591 110.288 36.2234Z" fill="white"/>
<path d="M111.909 36.2202C112.163 36.225 112.418 36.226 112.675 36.2221C112.665 36.3559 112.657 36.4906 112.652 36.6253C112.79 36.6186 112.929 36.6128 113.07 36.6061C113.068 36.839 113.073 37.0709 113.083 37.3037C112.834 37.3442 112.584 37.3817 112.334 37.4086C112.34 37.1363 112.333 36.864 112.278 36.5965C112.194 36.6042 112.025 36.6196 111.941 36.6282C111.929 36.4916 111.919 36.3559 111.909 36.2202Z" fill="white"/>
<path d="M113.993 36.2408C114.365 36.2321 114.739 36.2293 115.112 36.2302C115.111 36.3341 115.111 36.4381 115.113 36.542C114.975 36.5353 114.837 36.5285 114.701 36.5228C114.697 37.0684 114.697 37.613 114.7 38.1586C114.867 38.1548 115.038 38.1529 115.208 38.15C115.206 38.2529 115.203 38.4589 115.202 38.5609C115.067 38.5522 114.933 38.5445 114.8 38.5378C114.733 38.7908 114.69 39.0487 114.681 39.3105C115.373 39.3134 116.065 39.3336 116.757 39.3057C116.746 39.3836 116.723 39.5414 116.712 39.6203C116.985 39.7021 117.273 39.7079 117.557 39.6983C117.568 40.3103 117.567 40.9233 117.55 41.5362C117.407 41.5324 117.265 41.5285 117.126 41.5266C117.12 41.6488 117.118 41.771 117.117 41.8942C116.069 41.9452 115.02 41.9231 113.972 41.9192C113.975 41.7874 113.979 41.6565 113.984 41.5256C113.844 41.5276 113.706 41.5314 113.568 41.5353C113.565 41.1773 113.562 40.8193 113.56 40.4623C113.699 40.4671 113.838 40.4729 113.98 40.4796C113.971 40.3468 113.963 40.215 113.955 40.0841C114.504 40.2612 114.503 39.4587 113.957 39.6107C113.962 39.3769 113.962 39.143 113.96 38.9092C114.106 38.9179 114.253 38.9275 114.402 38.9371C114.375 38.684 114.328 38.4348 114.274 38.1865C114.14 38.15 114.007 38.1134 113.876 38.0749C113.867 37.46 113.89 36.848 113.993 36.2408ZM114.682 40.0014C114.687 40.1303 114.694 40.2593 114.702 40.3892C114.563 40.3805 114.426 40.3728 114.291 40.3651C114.32 40.6904 114.126 41.3669 114.717 41.2389C114.706 41.3669 114.696 41.4958 114.689 41.6248C115.276 41.619 115.864 41.6171 116.452 41.6286C116.449 41.5064 116.447 41.3851 116.447 41.2639C116.575 41.2629 116.706 41.262 116.839 41.262C116.779 40.8578 116.972 40.3478 116.705 40.012C116.031 39.986 115.356 40.0177 114.682 40.0014Z" fill="white"/>
<path d="M115.897 36.5104C115.936 36.3795 115.977 36.2477 116.02 36.1178C116.529 36.2198 117.05 36.241 117.571 36.2256C117.57 36.3305 117.57 36.4344 117.572 36.5402C117.431 36.5335 117.292 36.5277 117.155 36.522C117.163 37.0387 117.152 37.5554 117.152 38.0722C117.011 38.0664 116.872 38.0616 116.735 38.0578C116.739 38.1896 116.745 38.3224 116.753 38.4552C116.475 38.4542 116.198 38.4609 115.923 38.4706C115.919 38.3926 115.911 38.2377 115.907 38.1598C116.075 38.1328 116.299 38.1992 116.412 38.0385C116.445 37.5631 116.406 37.0868 116.433 36.6124C116.257 36.5643 116.077 36.5306 115.897 36.5104Z" fill="white"/>
<path d="M118.867 36.2336C119.113 36.2355 119.36 36.2326 119.607 36.2269C119.605 36.3337 119.605 36.4395 119.607 36.5473C119.467 36.5358 119.329 36.5252 119.191 36.5146C119.193 36.9341 119.178 37.3547 119.168 37.7742C119.449 37.7713 119.732 37.7723 120.016 37.7675C120.014 37.8704 120.014 37.9734 120.016 38.0783C119.739 38.0725 119.462 38.0725 119.188 38.0696C119.203 38.4911 119.131 38.9251 119.27 39.3341C119.357 39.3235 119.53 39.3023 119.617 39.2917C119.606 39.4255 119.598 39.5592 119.591 39.694C120.276 39.6824 120.961 39.7122 121.646 39.693C121.645 39.796 121.645 39.8989 121.646 40.0019C120.711 40.0115 119.806 40.0702 118.872 39.9942C118.875 39.8643 118.88 39.7353 118.888 39.6064C118.742 39.6122 118.598 39.6179 118.455 39.6256C118.456 39.3119 118.586 38.7163 118.044 38.8404C118.052 38.4536 118.047 38.0667 118.043 37.6809C118.15 37.6857 118.256 37.6924 118.364 37.6992C118.401 37.3373 118.473 36.9784 118.474 36.6137C118.61 36.6195 118.747 36.6252 118.886 36.631C118.878 36.4982 118.872 36.3654 118.867 36.2336Z" fill="white"/>
<path d="M120.492 36.5489C120.498 36.4075 120.506 36.2651 120.514 36.1246C120.756 36.1621 120.999 36.2044 121.244 36.2372C121.279 36.3661 121.314 36.496 121.35 36.6259C121.424 36.6192 121.57 36.6057 121.643 36.599C121.648 36.8309 121.691 37.0599 121.75 37.2851C121.572 37.3197 121.394 37.3563 121.218 37.3929C121.228 37.4679 121.246 37.618 121.255 37.6931C120.977 37.6892 120.698 37.6912 120.421 37.6969C120.416 37.618 120.406 37.4602 120.401 37.3823C120.573 37.3852 120.746 37.388 120.922 37.3929C120.914 37.1051 120.912 36.8165 120.916 36.5287C120.773 36.5355 120.632 36.5422 120.492 36.5489Z" fill="white"/>
<path d="M50.7055 37.7899C51.4814 37.7678 52.2592 37.7755 53.0361 37.7832C53.029 38.0016 53.0259 38.22 53.0259 38.4394C52.2388 38.4904 51.4507 38.4606 50.6637 38.4693C50.68 38.2422 50.6953 38.016 50.7055 37.7899Z" fill="white"/>
</g>
<defs>
<clipPath id="clip0_0_350">
<rect width="122.5" height="41.6667" fill="white" transform="translate(1.52588e-05 0.58905)"/>
</clipPath>
</defs>
</svg>
