<svg width="113" height="66" viewBox="0 0 113 66" fill="none" xmlns="http://www.w3.org/2000/svg">
<g clip-path="url(#clip0_0_410)">
<path opacity="0.97" d="M54.99 0.922058H55.2789C53.903 4.07265 57.4301 3.91971 55.6817 0.922058H57.4833C56.2594 4.16441 59.7485 3.86618 57.8785 0.922058H58.1978C59.0795 1.18206 59.9613 1.44971 60.8431 1.71735C60.6682 2.79559 60.5162 3.88147 60.3642 4.96735C61.1927 3.78206 62.0061 2.59676 62.8422 1.42676C62.6978 2.90265 62.5306 4.37853 62.4165 5.85441C62.8042 5.18147 63.5719 3.82794 63.9596 3.155C64.6057 3.46088 65.2518 3.75912 65.9056 4.065C65.4343 5.13559 64.9706 6.19853 64.5145 7.26912C65.6167 6.47382 66.7189 5.67853 67.8515 4.92912C67.3422 6.275 66.6885 7.55971 66.0424 8.84441C66.9469 8.21735 67.8515 7.59029 68.7561 6.95559C68.9765 7.41441 69.4174 8.33206 69.6378 8.78324C68.8929 9.42559 68.148 10.0679 67.4106 10.7179C68.7485 10.565 70.0787 10.3968 71.4241 10.2438C70.4056 11.1309 69.3642 11.9874 68.3532 12.8744C69.3718 12.7444 70.398 12.6144 71.4165 12.4768C71.5002 13.1726 71.5838 13.8609 71.6674 14.5491C70.6564 14.8244 69.653 15.0997 68.6497 15.3903C69.9571 15.7879 71.2721 16.1626 72.5795 16.5679C71.1961 16.9121 69.8203 17.2485 68.4444 17.5926C69.5542 17.8221 70.664 18.0209 71.7814 18.2121C71.6218 19.0074 71.4622 19.8103 71.3025 20.6132C70.2155 20.3915 69.1209 20.1774 68.0187 19.9785C69.1893 20.8809 70.3752 21.7526 71.5458 22.6474C70.1927 22.4868 68.8321 22.3109 67.479 22.135C68.186 22.7315 68.9005 23.3203 69.615 23.9091C69.349 24.5974 69.0905 25.2856 68.8321 25.9662C67.8439 25.3697 66.8481 24.7885 65.8448 24.2226C66.5745 25.4691 67.3194 26.7003 68.0339 27.9544C66.8633 27.2891 65.7079 26.6009 64.5525 25.9279C64.9934 26.7768 65.4419 27.6332 65.898 28.4821C65.4875 28.8415 64.6741 29.5527 64.2637 29.9044C63.6024 28.9638 62.9334 28.0156 62.2341 27.0979C62.4774 28.5126 62.751 29.9274 63.0018 31.3421C62.0821 30.2715 61.2003 29.1856 60.2958 28.1074C60.4858 29.1779 60.691 30.2562 60.8963 31.3344C60.1361 31.3727 59.3836 31.4109 58.6311 31.4491C58.4106 30.585 58.1826 29.7209 57.9545 28.8568C57.4757 30.1415 57.0272 31.4338 56.5103 32.7032C56.3051 31.3574 56.1074 30.0191 55.9174 28.6732C55.5297 29.5985 55.1497 30.5238 54.7848 31.4568C54.3363 31.4338 53.4317 31.3956 52.9833 31.3803C53.0897 30.3021 53.1961 29.2238 53.2873 28.1456C52.4056 29.1932 51.539 30.2638 50.642 31.3115C50.8169 29.9274 51.0069 28.5432 51.1665 27.1515C50.5356 28.0462 49.9275 28.9562 49.3194 29.8662C48.7113 29.4303 48.1032 29.0021 47.4951 28.5662C48.0272 27.6638 48.5517 26.7615 49.0762 25.8515C47.8904 26.5397 46.7198 27.2509 45.5339 27.9315C46.2181 26.685 46.9326 25.4462 47.6319 24.2074C46.6361 24.7809 45.6556 25.3774 44.675 25.9815C44.3785 25.2932 44.0821 24.605 43.7856 23.9168C44.5458 23.3279 45.2983 22.7391 46.0508 22.1426C44.7206 22.2726 43.3904 22.4256 42.0601 22.5403C43.1775 21.6838 44.3025 20.8503 45.4047 19.9862C44.3481 20.185 43.2915 20.4068 42.2426 20.6285C42.0677 19.8409 41.8929 19.0609 41.7105 18.2732C42.8127 18.0515 43.9149 17.8221 45.0094 17.5468C43.6488 17.2485 42.2882 16.9579 40.9275 16.6674C42.1817 16.2315 43.4436 15.8262 44.7054 15.4056C43.7172 15.1074 42.729 14.8091 41.7409 14.5262C41.9005 13.8303 42.0525 13.1344 42.2121 12.4385C43.1927 12.6221 44.1809 12.8056 45.1615 12.9891C44.1733 12.0485 43.1699 11.1309 42.1817 10.1979C43.474 10.3815 44.7738 10.5726 46.0736 10.7485C45.2907 10.0679 44.4926 9.40265 43.702 8.745C44.0973 8.14853 44.5002 7.55971 44.9106 6.97088C45.2603 7.47559 45.9672 8.49265 46.3169 9.005C48.2248 7.81971 50.0795 6.09912 47.7231 4.16441C48.2704 3.805 48.8329 3.46853 49.3954 3.12441C49.7983 3.78971 50.6116 5.11265 51.0145 5.77794C50.9537 4.37853 50.8549 2.97912 50.7789 1.57971C51.4858 2.60441 52.1699 3.63676 52.854 4.67676C52.9833 4.47029 53.2493 4.07265 53.3861 3.87382C53.1885 3.16265 52.9833 2.44382 52.7856 1.73265C53.3329 1.52618 54.4351 1.12088 54.99 0.922058ZM53.8878 4.90618C52.816 7.52147 55.2637 9.97618 55.2485 12.6526C52.9072 10.7638 53.4317 6.49676 49.8515 6.03029C49.175 9.48676 53.0365 10.7026 53.8574 13.6085C51.2426 12.4768 49.9655 9.05088 46.7578 9.31853C46.9554 10.1521 47.1454 10.9856 47.3431 11.8268C49.0838 12.5685 50.8321 13.2874 52.588 14.0062C52.3295 15.0003 52.0787 16.0021 51.8507 17.0115C49.3042 17.1721 46.3473 16.5297 44.4622 18.7474C47.2594 21.0338 50.0415 18.0897 52.9453 17.7379C51.4858 20.5138 46.9478 19.8256 46.4385 23.4885C49.7299 24.0315 51.273 20.6438 53.7358 19.1679C53.5154 21.4085 51.463 22.6244 50.0187 24.0697C49.9959 25.0103 49.9883 25.9509 49.9731 26.8991C50.7865 26.5321 51.6074 26.165 52.4208 25.7903C53.2721 23.9474 53.3633 21.355 55.5069 20.4985C54.952 22.4638 54.1767 24.3679 53.3329 26.2262C53.5762 28.3597 54.9444 28.6885 56.1986 27.0368C56.1454 24.8497 56.0466 22.6244 56.6243 20.4832C58.1598 23.045 56.039 27.0903 59.3228 28.5968C59.5128 28.0079 59.8929 26.8303 60.0829 26.2415C59.2848 24.3679 58.5247 22.4715 58.0078 20.4985C60.729 21.8903 60.1057 26.1803 63.4275 26.9756C63.4427 25.9891 63.4579 25.0026 63.4655 24.0238C62.0061 22.5785 60.1133 21.3244 59.6496 19.1832C62.2569 20.4756 63.6328 23.9856 66.9545 23.5115C66.7493 22.915 66.354 21.7297 66.1564 21.1332C64.2181 20.2768 62.2721 19.4356 60.4022 18.4262C63.2679 17.0574 65.9892 21.3474 68.8473 18.9079C68.4064 18.4644 67.5247 17.5774 67.0838 17.1338C65.077 17.1109 63.0703 17.1109 61.0711 17.0191C62.1125 14.9009 65.077 16.2391 66.9774 15.9179C67.6083 15.2144 68.2316 14.5032 68.8549 13.7921C66.0196 12.3697 63.3743 14.5568 60.6606 15.1532C61.5576 12.9968 64.2257 12.8591 66.0728 11.9109C66.3616 11.0774 66.6429 10.2515 66.9317 9.42559C66.3008 9.44088 65.0466 9.47912 64.4157 9.49441C62.9562 11.0391 61.5956 12.8132 59.5204 13.5397C60.6682 10.8479 64.1649 9.43324 63.61 6.06853C60.0297 6.535 60.6834 10.9856 58.061 12.6297C58.2738 9.99147 60.6682 7.52147 59.5736 4.88323C56.2062 4.67676 57.5745 9.48676 57.3084 11.6356C57.0196 11.6126 56.4571 11.5821 56.1682 11.5668C55.9706 9.43324 57.2552 4.55441 53.8878 4.90618ZM44.5078 13.8456C46.0204 16.3462 49.7071 16.7362 51.7975 14.8091C49.4638 13.9603 46.9858 12.5838 44.5078 13.8456Z" fill="white"/>
<path opacity="0.97" d="M17.421 37.1411C21.2673 35.1146 24.209 41.4541 20.1043 42.8076C16.3644 44.5664 13.7724 38.6476 17.421 37.1411ZM18.09 37.7529C15.4143 38.5558 16.5697 42.9835 19.3594 42.1041C22.4759 41.7676 21.0317 36.5599 18.09 37.7529Z" fill="white"/>
<path opacity="0.97" d="M24.2626 36.5039C24.9619 37.5439 24.9467 38.798 25.0379 39.991C26.2389 38.7139 27.5159 37.4827 29.0666 36.6416C28.3369 37.7274 27.5235 38.7521 26.695 39.7616C27.63 40.901 28.5573 42.0404 29.3859 43.2639C28.0024 42.5221 26.8166 41.4821 25.6384 40.4651C25.1291 41.4439 24.6198 42.4304 24.0801 43.3939C24.0345 41.0921 24.0041 38.7904 24.2626 36.5039Z" fill="white"/>
<path opacity="0.97" d="M35.6186 43.2019C36.5992 40.8925 37.4125 38.453 39.0772 36.5336C40.149 38.7283 41.1372 40.9613 42.0873 43.2172C40.2934 40.9919 37.4049 40.9383 35.6186 43.2019ZM38.6287 38.6977C36.1051 41.8789 42.0949 40.2272 38.6287 38.6977V38.6977Z" fill="white"/>
<path opacity="0.97" d="M44.1044 43.4166C43.2683 41.2219 43.2683 38.6754 44.0968 36.4807C44.1956 37.2378 44.4009 38.7366 44.5073 39.4937C45.6019 39.4937 46.6889 39.5013 47.7835 39.5013C47.8443 38.7595 47.9735 37.2684 48.0343 36.5266C49.4558 38.3007 48.5664 40.7784 48.8097 42.866C48.574 42.8889 48.0951 42.9348 47.8519 42.9501C47.8519 42.3078 47.8443 41.0078 47.8367 40.3578C46.7269 40.3578 45.6171 40.3578 44.5073 40.3578C44.4085 41.1225 44.2032 42.6519 44.1044 43.4166Z" fill="white"/>
<path opacity="0.97" d="M52.399 37.1411C56.2909 35.0688 59.2783 41.5382 55.0747 42.8153C51.3957 44.4823 48.8264 38.7241 52.399 37.1411ZM53.0984 37.8217C50.4455 38.5329 51.6237 42.9376 54.3222 42.0964C57.5908 41.8976 56.0325 36.4835 53.0984 37.8217Z" fill="white"/>
<path opacity="0.97" d="M59.1218 36.5039C60.3076 37.9416 61.3718 39.471 62.4892 40.9698C63.2417 39.3868 63.9563 37.7121 65.3701 36.6033C65.4993 38.6833 65.4917 40.771 65.5145 42.851C65.2789 42.8739 64.8152 42.9121 64.5796 42.9274C64.5568 41.7574 64.5264 40.5798 64.4959 39.4098C63.6978 40.3963 62.9301 41.398 62.1471 42.3921C61.4022 41.2757 60.6725 40.1592 59.9123 39.058C59.8895 40.3504 59.8667 41.6427 59.8591 42.9427L59.0534 42.958C59.023 40.8016 59.0154 38.6527 59.1218 36.5039Z" fill="white"/>
<path opacity="0.97" d="M69.8265 36.5402C71.6661 38.3372 72.3426 40.899 73.346 43.1931C72.1373 42.0155 70.6627 41.3425 68.9676 41.3349C68.3291 41.9849 67.6906 42.6196 67.0368 43.2466C67.7818 40.9372 68.7471 38.7043 69.8265 36.5402ZM69.7809 38.6355C68.6711 39.1096 68.96 41.3043 70.3586 40.8913C71.5748 40.5549 71.0275 38.2531 69.7809 38.6355Z" fill="white"/>
<path opacity="0.97" d="M77.2981 39.922C76.9713 36.802 81.2736 36.0144 83.0296 38.0026C81.2432 37.735 78.1571 37.2456 78.1343 39.9297C78.0431 42.6673 81.2508 42.0326 83.0068 41.8873C81.2356 43.8526 76.8953 43.065 77.2981 39.922Z" fill="white"/>
<path opacity="0.97" d="M86.6817 37.0154C89.0153 36.9236 91.3489 36.9925 93.6901 37.0842C94.2526 38.0401 94.8227 38.9883 95.3928 39.9442C96.191 38.7207 96.9739 37.4666 98.1065 36.5336C97.24 38.6366 95.9477 40.6019 95.7273 42.9189C95.5905 42.9189 95.3092 42.9113 95.1724 42.9113C94.9672 40.7701 93.8498 38.9272 92.6563 37.1989C92.0026 37.3595 90.6876 37.6807 90.0263 37.8413C89.9959 39.6919 89.9807 41.5501 89.7982 43.393C88.5744 41.8254 89.1825 39.7072 89.0153 37.8719C88.43 37.6577 87.2594 37.2295 86.6817 37.0154Z" fill="white"/>
<path opacity="0.97" d="M1.66343 49.3952C2.0283 46.5046 5.72255 46.2982 7.54688 47.9423C5.69215 47.8964 2.75803 47.1011 2.52238 49.8387C2.52238 52.6987 5.67694 51.9799 7.53167 51.8117C5.56292 54.297 1.00211 52.7217 1.66343 49.3952Z" fill="white"/>
<path opacity="0.97" d="M9.91126 47.2341C13.5675 44.9094 17.0413 50.9047 13.1646 52.7018C9.75163 54.8659 6.32342 49.1612 9.91126 47.2341ZM10.6562 47.8765C7.98051 48.9394 9.79724 53.2141 12.4425 51.9829C15.4222 51.2641 13.4155 46.3547 10.6562 47.8765Z" fill="white"/>
<path opacity="0.97" d="M16.8049 46.5074C18.0895 47.815 19.0625 49.3903 20.0354 50.9274C20.9096 49.3521 21.8522 47.7997 23.0456 46.4385C23.19 48.7709 23.2508 51.1109 23.0304 53.4432C22.0422 52.2044 22.3615 50.5603 22.1714 49.115C21.4721 50.1779 20.7804 51.2409 20.0887 52.3115C19.3057 51.3862 18.5228 50.4609 17.7246 49.5432C17.679 50.6444 17.6486 51.7456 17.6258 52.8468C17.3826 52.8468 16.9037 52.8468 16.6604 52.8391C16.668 50.7285 16.6604 48.6179 16.8049 46.5074Z" fill="white"/>
<path opacity="0.97" d="M25.735 46.4617C26.9588 47.8152 27.9014 49.3828 28.7755 50.9811C29.7333 49.4364 30.6759 47.8611 31.9225 46.5305C32.0669 48.6181 32.0669 50.7134 32.0897 52.8087C31.8541 52.824 31.3904 52.847 31.1547 52.8546C31.1319 51.7381 31.1015 50.6217 31.0635 49.5052C30.273 50.4305 29.4976 51.3711 28.7147 52.3117C28.0154 51.2717 27.3161 50.2393 26.5863 49.2223C26.5407 50.4534 26.4951 51.6923 26.4571 52.9234L25.6438 52.9923C25.6134 50.8128 25.5906 48.6334 25.735 46.4617Z" fill="white"/>
<path opacity="0.97" d="M34.369 46.8956L35.1747 46.8191C35.2431 48.5856 35.3648 50.352 35.6004 52.1032C39.3479 53.0132 38.6257 48.9373 38.8462 46.4979C40.2144 48.5091 40.1916 53.0515 36.961 53.1509C33.6544 53.082 34.4754 49.1362 34.369 46.8956Z" fill="white"/>
<path opacity="0.97" d="M41.9737 46.5742C43.5092 47.8819 44.7862 49.4495 46.1164 50.9636C46.2001 49.4648 46.2685 47.966 46.4357 46.4748C47.8648 48.3636 46.9298 50.9713 47.1046 53.166C45.4095 52.0801 44.2085 50.4283 42.9543 48.8836C42.8707 50.3824 42.7947 51.8889 42.635 53.3877C41.1908 51.4301 42.0801 48.8148 41.9737 46.5742Z" fill="white"/>
<path opacity="0.97" d="M50.2899 53.2983C48.952 51.5013 48.9596 48.3201 50.2747 46.5078C50.4571 48.7636 50.4495 51.0348 50.2899 53.2983Z" fill="white"/>
<path opacity="0.97" d="M51.6776 46.8737C53.9809 46.8813 56.2841 46.9502 58.5873 47.0649C59.1498 48.0131 59.7199 48.9537 60.29 49.9019C61.1337 48.686 61.9699 47.4472 63.1177 46.4913C62.1219 48.7472 60.9285 50.9266 60.2292 53.3125C59.8491 51.0566 58.8533 49.0072 57.5839 47.1337C56.6641 47.4549 55.7444 47.7684 54.8246 48.0743C54.8626 49.6649 54.8854 51.2478 54.9158 52.8384C54.665 52.8307 54.1633 52.8307 53.9124 52.8307C53.9428 51.2784 53.958 49.726 53.9885 48.1737C53.2131 47.7455 52.4378 47.3172 51.6776 46.8737Z" fill="white"/>
<path opacity="0.97" d="M67.262 49.0995C67.7029 46.3848 71.2983 46.3848 72.963 47.9524C70.8574 47.6771 68.5086 47.4707 67.5357 49.8413C68.3566 52.3648 70.8118 52.1583 72.9326 51.8448C70.8726 54.4677 66.1294 52.4871 67.262 49.0995Z" fill="white"/>
<path opacity="0.97" d="M75.2844 47.2466C77.0404 46.4207 79.8529 46.9101 80.1797 49.1813C80.9627 51.6589 78.0285 53.976 75.8089 52.806C73.3309 52.1407 73.0801 48.4166 75.2844 47.2466ZM74.7372 49.8618C74.4331 51.4218 76.303 51.873 77.2304 52.6148C78.2718 51.7813 79.7768 50.9095 79.2752 49.3113C78.7203 46.8948 74.6611 47.3154 74.7372 49.8618Z" fill="white"/>
<path opacity="0.97" d="M82.1578 52.8756C82.3858 50.7726 81.5497 48.3256 82.8875 46.4979C83.0623 48.402 83.0623 50.3138 83.0699 52.2256C84.1493 52.2638 85.2211 52.302 86.3005 52.3326L86.2853 53.0897C84.9095 53.0285 83.5336 52.9673 82.1578 52.8756Z" fill="white"/>
<path opacity="0.97" d="M93.6002 46.9338C95.1509 46.9338 96.7016 46.9414 98.2446 47.0867C96.8916 47.9661 94.5276 47.232 94.2083 49.2967C95.4853 49.465 96.8536 49.4267 98.009 50.115C96.7776 50.2603 95.5461 50.375 94.3147 50.4744C94.2767 52.8755 97.0816 52.0573 98.6323 52.6155C96.9828 53.0897 95.2573 53.0744 93.5622 52.8602C93.6002 50.8797 93.6002 48.9067 93.6002 46.9338Z" fill="white"/>
<path opacity="0.97" d="M99.5292 49.9786C99.3999 47.2716 102.235 46.5757 104.379 46.958C104.622 47.2333 105.109 47.7916 105.352 48.0745C103.756 47.9904 101.262 46.9886 100.631 49.1527C99.7572 51.3321 102.053 52.3492 103.832 52.2192C104.113 51.3092 104.447 50.4069 104.972 49.6039C105.025 50.6057 105.063 51.6074 105.078 52.6169C102.859 53.6339 99.5292 52.8922 99.5292 49.9786Z" fill="white"/>
<path opacity="0.97" d="M107.245 46.9272C108.804 46.9348 110.362 46.9425 111.912 47.0954C110.537 47.9901 108.036 47.1795 107.914 49.4201C109.016 49.4584 110.119 49.489 111.228 49.5119C111.221 49.7031 111.213 50.0931 111.206 50.2919C110.126 50.3301 109.047 50.376 107.967 50.4219C107.853 52.7925 110.483 52.089 111.981 52.6013C110.476 53.259 108.819 53.0066 107.238 52.9148C107.253 50.9189 107.26 48.9231 107.245 46.9272Z" fill="white"/>
<path opacity="0.23" d="M55.2839 0.922119H55.6867C57.435 3.91977 53.908 4.07271 55.2839 0.922119Z" fill="white"/>
<path opacity="0.23" d="M57.4891 0.922058H57.8843C59.7543 3.86618 56.2652 4.16441 57.4891 0.922058Z" fill="white"/>
<path opacity="0.51" d="M44.9055 6.97182C45.6732 5.87829 46.6234 4.93005 47.718 4.16534C50.0744 6.10005 48.2197 7.82064 46.3117 9.00593C45.9621 8.49358 45.2551 7.47652 44.9055 6.97182Z" fill="white"/>
<path opacity="0.88" d="M30.7027 36.9626L31.8049 36.9702C31.8125 38.6602 31.8201 40.3426 31.8277 42.0326C32.7475 42.0708 33.6672 42.1014 34.5946 42.1396L34.6478 43.0649C33.3404 43.0649 32.033 43.0649 30.7331 43.0649C30.7027 41.0308 30.7027 38.9967 30.7027 36.9626Z" fill="white"/>
<path opacity="0.75" d="M84.5425 36.8625L85.5915 36.8243C85.6371 38.9043 85.6447 40.9843 85.6219 43.0643L84.5273 43.0337C84.5197 40.9766 84.5273 38.9196 84.5425 36.8625Z" fill="white"/>
<path opacity="0.75" d="M87.7913 46.8405L88.8782 46.8252C88.8934 48.4999 88.9011 50.1823 88.9011 51.857C90.1553 52.0252 91.4095 52.2164 92.6561 52.4611C91.113 53.1723 89.4027 53.0881 87.7533 53.1111C87.7533 51.0158 87.7684 48.9281 87.7913 46.8405Z" fill="white"/>
</g>
<defs>
<clipPath id="clip0_0_410">
<rect width="112.5" height="65" fill="white" transform="translate(0.444427 0.922302)"/>
</clipPath>
</defs>
</svg>
