<svg width="122" height="45" viewBox="0 0 122 45" fill="none" xmlns="http://www.w3.org/2000/svg">
<g clip-path="url(#clip0_0_446)">
<path d="M50.1687 0.75647H70.4302C70.4667 7.42098 70.5195 14.0855 70.4059 20.75C63.6696 20.8583 56.909 20.9988 50.1606 20.7901C50.116 14.1136 50.1119 7.43301 50.1687 0.75647ZM50.9636 1.59906C50.996 7.73394 50.992 13.8728 50.9636 20.0117C55.1732 19.9756 59.3788 19.9876 63.5926 19.8793C65.5838 19.9234 67.567 19.7028 69.5623 19.763C69.6232 13.7886 69.6394 7.81419 69.5542 1.84382C66.7235 1.91203 63.9008 1.54289 61.0741 1.81974C57.7242 1.42653 54.3297 1.73548 50.9636 1.59906Z" fill="white"/>
<path d="M50.9604 1.60046C54.3265 1.73688 57.721 1.42793 61.0709 1.82114C57.8021 1.94553 54.5293 1.77299 51.2605 1.88935C51.1429 7.82763 51.151 13.7699 51.2565 19.7042C55.3648 19.8968 59.4852 19.5597 63.5894 19.8807C59.3757 19.989 55.1701 19.977 50.9604 20.0131C50.9888 13.8742 50.9929 7.73534 50.9604 1.60046Z" fill="white"/>
<path d="M61.0802 1.8212C63.907 1.54435 66.7296 1.91348 69.5604 1.84527C69.6456 7.81564 69.6294 13.79 69.5685 19.7644C67.5732 19.7042 65.59 19.9249 63.5987 19.8808C59.4945 19.5598 55.3741 19.8968 51.2658 19.7042C51.1604 13.77 51.1522 7.82768 51.2699 1.88941C54.5386 1.77305 57.8115 1.94558 61.0802 1.8212ZM60.0339 3.90762C59.2593 5.98601 61.8711 6.13447 63.2946 6.23879C61.9522 7.88385 60.8247 9.68138 59.746 11.503C59.3282 11.0857 58.9105 10.6684 58.4928 10.2551C57.9291 11.2863 58.3144 12.3055 58.9795 13.1761C58.0872 14.4842 57.2721 16.5385 55.3416 16.366C53.8857 16.4542 53.7235 14.7731 53.468 13.7499C51.2901 15.6598 54.202 18.7734 56.5461 17.6499C59.7784 17.0079 59.6649 11.8721 63.2946 12.5181C63.254 13.9987 62.7917 15.6678 63.5987 17.028C64.6856 18.5005 67.05 17.5536 67.6381 16.069C66.7702 16.045 65.7239 16.5585 64.9695 16.0008C64.6694 14.7209 64.8519 13.4008 65.002 12.1169C65.5454 12.1931 66.0889 12.2693 66.6364 12.3456C67.0987 11.2061 66.2916 10.4317 65.2129 10.2351C65.6549 8.21286 66.2105 6.2107 67.1149 4.34095C66.9 4.22058 66.4701 3.98385 66.2551 3.86348C64.5153 5.22768 61.5953 5.82552 60.0339 3.90762Z" fill="white"/>
<path d="M5.74853 28.6763C6.00403 28.6683 6.51097 28.6563 6.76647 28.6483C6.75431 29.4828 6.7462 30.3134 6.7462 31.1479C7.63842 31.1439 8.53064 31.1439 9.42286 31.1479C9.41881 30.3174 9.4107 29.4908 9.39853 28.6643C9.65808 28.6603 10.1731 28.6563 10.4286 28.6563C10.3597 30.6344 10.3638 32.6165 10.4327 34.5986C10.1691 34.5986 9.64592 34.5946 9.38636 34.5905C9.41475 33.5714 9.43503 32.5523 9.4472 31.5331C8.5347 31.5291 7.62625 31.5331 6.71781 31.5412C6.72997 32.5603 6.75025 33.5834 6.77864 34.6026C6.51908 34.5986 5.99997 34.5905 5.74042 34.5865C5.80125 32.6165 5.7972 30.6464 5.74853 28.6763Z" fill="white"/>
<path d="M30.8766 28.6548C31.128 28.6589 31.6349 28.6669 31.8904 28.6709C31.8539 30.641 31.8458 32.615 31.9026 34.5851C31.6431 34.5891 31.128 34.5931 30.8725 34.5971C30.9333 32.615 30.9293 30.6369 30.8766 28.6548Z" fill="white"/>
<path d="M85.6261 28.6648C85.8816 28.6648 86.3926 28.6648 86.6481 28.6688C86.5953 30.4944 86.6075 32.32 86.6034 34.1497C87.3659 34.1537 88.1324 34.1657 88.8948 34.2139C87.885 34.8318 86.6562 34.5429 85.5409 34.6071C85.695 32.629 85.6828 30.6429 85.6261 28.6648Z" fill="white"/>
<path d="M60.0305 3.90302C61.5919 5.82092 64.5119 5.22308 66.2517 3.85889C66.4666 3.97926 66.8965 4.21599 67.1115 4.33636C66.2071 6.20611 65.6515 8.20827 65.2094 10.2305C66.2882 10.4271 67.0953 11.2015 66.6329 12.341C66.0854 12.2648 65.542 12.1885 64.9985 12.1123C64.8485 13.3962 64.666 14.7163 64.9661 15.9962C65.7204 16.5539 66.7668 16.0404 67.6347 16.0644C67.0466 17.549 64.6822 18.4959 63.5953 17.0234C62.7883 15.6632 63.2506 13.9941 63.2911 12.5135C59.6614 11.8675 59.775 17.0033 56.5427 17.6453C54.1986 18.7688 51.2867 15.6552 53.4645 13.7453C53.72 14.7685 53.8823 16.4496 55.3382 16.3614C57.2686 16.5339 58.0838 14.4796 58.976 13.1715C58.3109 12.3009 57.9257 11.2817 58.4894 10.2506C58.9071 10.6638 59.3248 11.0811 59.7425 11.4984C60.8213 9.67679 61.9488 7.87926 63.2911 6.2342C61.8676 6.12987 59.2559 5.98142 60.0305 3.90302ZM61.7784 11.0972C62.3503 11.0249 62.9261 10.9487 63.498 10.8765C63.8468 9.63666 64.1428 8.37679 64.2523 7.09284C63.2384 8.30457 62.4152 9.65673 61.7784 11.0972Z" fill="white"/>
<path d="M61.7809 11.0986C62.4176 9.65813 63.2409 8.30597 64.2548 7.09424C64.1453 8.37819 63.8492 9.63807 63.5005 10.8779C62.9286 10.9501 62.3527 11.0263 61.7809 11.0986Z" fill="white"/>
<path d="M11.7285 28.6446C12.9167 28.6647 14.174 28.4801 15.269 29.0418C14.3889 29.0779 13.5048 29.0659 12.6207 29.0498C12.645 29.744 12.6653 30.4341 12.6896 31.1282C13.3061 31.1643 13.9185 31.2125 14.5268 31.2727C13.9306 31.4974 13.3061 31.6498 12.6856 31.7983C12.6612 32.5968 12.645 33.3912 12.6288 34.1856C13.5616 34.1656 14.4944 34.1415 15.4271 34.1856C14.32 34.8878 12.9411 34.5026 11.7082 34.5989C11.8217 32.6128 11.8177 30.6267 11.7285 28.6446Z" fill="white"/>
<path d="M18.552 28.6217C18.7831 28.6257 19.2536 28.6297 19.4848 28.6297C19.7078 30.4313 18.3735 34.1989 21.257 34.1708C23.7715 33.4566 21.1029 29.2878 23.1753 28.5615C23.5606 30.5677 23.2483 32.626 23.3821 34.6563C23.0658 34.568 22.4372 34.3915 22.1249 34.3032C21.034 34.7044 19.3063 35.1458 18.6858 33.8097C18.4344 32.0964 18.6209 30.351 18.552 28.6217Z" fill="white"/>
<path d="M24.6657 28.4725C26.8313 29.0743 27.2612 31.7465 28.851 33.1188C28.9037 31.6342 28.8875 30.1496 28.8267 28.6651C29.0011 28.6611 29.3458 28.649 29.5161 28.645C29.2403 30.7114 29.8811 32.9262 29.0254 34.8802C27.6911 33.2632 26.7137 31.3814 25.2497 29.8648C24.7671 31.2731 26.0446 34.1861 24.5846 34.5672C24.6941 32.537 24.7508 30.5067 24.6657 28.4725Z" fill="white"/>
<path d="M32.6275 28.5714C32.8546 28.6075 33.3129 28.6838 33.54 28.7199C34.1362 30.2807 34.5823 31.9057 35.3326 33.4063C36.0017 31.8776 36.5573 30.3007 36.9548 28.6797C37.1859 28.6597 37.6483 28.6155 37.8794 28.5955C36.898 30.6859 36.0666 32.8405 35.0406 34.9109C33.8239 32.985 33.467 30.6699 32.6275 28.5714Z" fill="white"/>
<path d="M38.5247 28.6501C39.6886 28.6661 40.9256 28.4856 42.0003 29.0393C41.1203 29.0754 40.2361 29.0633 39.352 29.0513C39.3804 29.7495 39.4048 30.4436 39.4331 31.1377C40.0577 31.1698 40.6782 31.218 41.2987 31.2782C40.6823 31.4828 40.0496 31.6433 39.4129 31.7958C39.3926 32.6143 39.3804 33.4368 39.3683 34.2593C40.2605 34.1831 41.1486 34.0627 42.0287 33.8862C41.9638 34.0587 41.834 34.4038 41.7691 34.5723C40.6823 34.5803 39.5913 34.5883 38.5044 34.6004C38.6261 32.6183 38.622 30.6322 38.5247 28.6501Z" fill="white"/>
<path d="M42.9828 28.6472C44.1671 28.7354 46.0205 28.0333 46.5882 29.4817C46.86 30.4286 45.8582 30.9984 45.3351 31.6203C45.8826 32.3626 46.4301 33.1089 46.9816 33.8512C48.2226 33.8793 50.1693 35.0749 50.6154 33.2533C50.4126 31.7647 48.393 31.6765 47.9266 30.4527C47.5007 28.5669 50.3842 27.8688 51.4306 29.0484C50.6073 29.1647 49.0297 28.4626 48.8837 29.6783C48.689 31.4518 51.9781 31.2712 51.4265 33.2694C50.6235 35.4561 47.9387 34.4972 46.2476 34.2243C45.4932 33.3095 44.9011 32.2543 43.944 31.516C43.8953 32.5311 43.8953 33.5462 43.9156 34.5614C43.6804 34.5774 43.21 34.6015 42.9747 34.6135C43.064 32.6274 43.064 30.6373 42.9828 28.6472ZM44.013 28.8478C43.94 29.7104 43.8953 30.5731 43.871 31.4397C46.1502 31.7647 46.3814 28.5308 44.013 28.8478Z" fill="white"/>
<path d="M52.6552 28.6283C52.8905 28.6283 53.3528 28.6243 53.588 28.6243C53.5515 30.6305 53.5394 32.6367 53.6124 34.6428C53.3893 34.5706 52.9391 34.4262 52.7161 34.354C52.6187 32.4481 52.7607 30.5342 52.6552 28.6283Z" fill="white"/>
<path d="M54.3256 29.0283C55.8545 28.2339 57.716 28.8358 59.3788 28.6592C61.0335 28.2901 61.1186 30.3043 61.6378 31.3395C62.7571 30.6453 62.6435 29.0003 63.8359 28.4064C63.6818 30.0796 61.877 31.1188 62.023 32.8641C61.8933 33.5944 62.3556 34.9546 61.1065 34.6216C61.3782 32.5913 60.8794 30.5972 59.6546 28.9481C58.8435 29.0364 58.0364 29.1086 57.2253 29.1808C56.763 30.866 58.1216 33.9114 56.5034 34.6577C56.0816 32.8922 56.4913 30.9824 56.3331 29.1648C55.6639 29.1327 54.9948 29.0885 54.3256 29.0283Z" fill="white"/>
<path d="M68.4507 28.6735C70.2392 27.9793 72.5306 29.179 72.2914 31.2414C72.6645 33.2074 70.9206 35.1574 68.8725 34.688C65.8633 34.367 65.766 29.5642 68.4507 28.6735ZM69.2294 28.9583C66.6217 29.4278 67.0556 34.7321 69.931 34.2546C72.2427 33.5043 71.898 28.7938 69.2294 28.9583Z" fill="white"/>
<path d="M73.2969 28.6463C74.4122 28.7506 75.7262 28.3213 76.6792 29.0797C75.8478 29.0877 75.0124 29.0596 74.181 29.0275C74.185 29.7939 74.1891 30.5602 74.1932 31.3266C74.9678 31.3627 75.7424 31.4028 76.517 31.471C75.7505 31.6756 74.9678 31.8241 74.185 31.9565C74.1891 32.8473 74.2013 33.738 74.2175 34.6247C73.9904 34.6287 73.5321 34.6287 73.305 34.6327C73.3212 32.6386 73.3293 30.6405 73.2969 28.6463Z" fill="white"/>
<path d="M81.6537 28.7017C81.9903 28.6816 82.3269 28.6575 82.6635 28.6375C83.2353 30.7078 84.0099 32.714 84.9103 34.668C83.4097 34.6921 83.4057 32.9427 82.9231 31.9356C82.2214 31.9276 81.5158 31.9236 80.8142 31.9196C80.2586 32.8946 80.364 34.6319 78.9162 34.676C79.9179 32.73 81.0332 30.8162 81.6537 28.7017ZM81.8767 29.5242C81.5807 30.1702 81.2927 30.8202 81.0129 31.4702C81.6293 31.4702 82.2458 31.4782 82.8663 31.4862C82.5499 30.8242 82.2296 30.1662 81.8767 29.5242Z" fill="white"/>
<path d="M91.6833 28.6243C92.0158 28.6524 92.3444 28.6845 92.6769 28.7166C93.3055 30.7348 94.141 32.6848 94.7817 34.699C93.0338 34.5546 93.8125 31.4851 91.8171 31.8944C89.7812 31.453 90.7789 34.8595 88.9336 34.6428C89.9151 32.6648 91.0263 30.7388 91.6833 28.6243ZM91.9104 29.479C91.5981 30.157 91.3102 30.8472 91.0385 31.5413C91.586 31.5453 92.1335 31.5453 92.685 31.5453C92.5147 30.8271 92.2754 30.1249 91.9104 29.479Z" fill="white"/>
<path d="M95.5506 28.6111C96.6294 28.6392 97.7568 28.4305 98.8032 28.7595C99.7116 29.4256 99.0668 30.4126 98.5071 31.0506C99.0425 31.6444 99.9306 32.3064 99.5372 33.2213C99.0506 35.0148 96.7592 34.5413 95.3519 34.6015C95.6317 32.6154 95.579 30.6092 95.5506 28.6111ZM96.4307 28.8919C96.4712 30.6373 96.455 32.3787 96.4023 34.124C98.5923 35.0549 99.5129 31.6725 97.2012 31.3515C97.9475 30.85 98.4301 30.1237 98.3327 29.1929C97.696 29.0926 97.0633 28.9922 96.4307 28.8919Z" fill="white"/>
<path d="M102.341 28.6962C102.669 28.6761 102.998 28.6601 103.33 28.644C103.991 30.6944 104.823 32.6805 105.577 34.6987C104.178 34.5743 104.146 32.9011 103.61 31.9302C102.905 31.9261 102.199 31.9221 101.493 31.9181C100.942 32.8971 101.043 34.6345 99.5912 34.6786C100.605 32.7286 101.716 30.8107 102.341 28.6962ZM102.56 29.5227C102.264 30.1687 101.976 30.8187 101.696 31.4687C102.312 31.4687 102.929 31.4768 103.549 31.4848C103.229 30.8227 102.913 30.1647 102.56 29.5227Z" fill="white"/>
<path d="M106.435 28.6057C106.695 28.6137 107.222 28.6257 107.486 28.6337C108.057 30.0581 108.532 31.5226 109.063 32.9631C109.976 31.651 110.446 30.1183 111.132 28.6899C111.359 28.6578 111.813 28.5936 112.044 28.5615C112.243 30.5516 112.085 32.5618 112.348 34.552C112.056 34.564 111.472 34.5881 111.184 34.6001C111.217 33.0152 111.249 31.4304 111.172 29.8455C110.276 31.318 109.692 32.939 109.023 34.5118C108.175 33.0112 107.769 31.306 106.841 29.8455C106.46 31.3662 107.271 33.5408 106.399 34.6563C105.961 32.8748 106.476 30.5837 106.435 28.6057Z" fill="white"/>
<path d="M115.612 28.6666C115.819 28.6546 116.232 28.6265 116.443 28.6144C117.149 30.6567 117.956 32.6629 118.751 34.6731C116.877 34.8015 117.7 31.5194 115.75 31.8965C113.73 31.4712 114.695 34.8215 112.87 34.661C113.827 32.683 114.947 30.7731 115.612 28.6666ZM114.967 31.5354C115.49 31.5435 116.017 31.5515 116.545 31.5595C116.386 30.8734 116.22 30.1873 116.042 29.5092C115.539 30.103 115.214 30.8092 114.967 31.5354Z" fill="white"/>
<path d="M0.172302 28.6893C1.75802 28.621 3.35591 28.597 4.92947 28.8618C4.26841 28.9982 3.60736 29.1266 2.9463 29.247C2.93008 31.0285 2.93414 32.8099 2.95036 34.5954C2.71919 34.5874 2.26091 34.5754 2.0338 34.5714C2.09869 32.7778 2.09464 30.9843 2.09058 29.1948C1.4498 29.1547 0.81308 29.1186 0.172302 29.0825V28.6893Z" fill="white"/>
<path opacity="0.66" d="M119.343 30.035C119.043 28.5504 120.864 28.6347 121.833 28.731V30.9458C120.949 31.0862 119.379 31.343 119.343 30.035Z" fill="#6C1424"/>
<path opacity="0.31" d="M11.5514 41.0665C11.9326 41.4678 12.3098 41.873 12.6829 42.2823C13.1169 41.2952 13.7049 41.3153 14.2686 42.21C14.6053 41.869 14.9378 41.532 15.2785 41.1949C15.0919 42.1619 14.8973 43.1249 14.7026 44.0918H12.3666C12.0259 43.1008 11.7785 42.0857 11.5514 41.0665Z" fill="white"/>
<path opacity="0.31" d="M17.6092 41.1821C18.3635 42.3657 19.2436 42.3376 20.0425 41.2021C20.0547 42.1651 20.0709 43.1281 20.0912 44.091H17.5605C17.5808 43.12 17.6011 42.149 17.6092 41.1821Z" fill="white"/>
<path opacity="0.31" d="M26.9397 41.1986C27.5926 41.2347 28.2455 41.2748 28.9025 41.315C28.9107 42.2418 28.9147 43.1647 28.9269 44.0915H26.891C26.9072 43.1285 26.9234 42.1616 26.9397 41.1986Z" fill="white"/>
<path opacity="0.31" d="M57.0728 41.1485C57.6325 41.5497 58.1922 41.955 58.7518 42.3602C58.9789 41.9389 59.2061 41.5176 59.4372 41.0963C59.4818 42.0954 59.5183 43.0945 59.5508 44.0935H56.9755C57.0039 43.1105 57.0363 42.1315 57.0728 41.1485Z" fill="white"/>
<path opacity="0.31" d="M73.7941 44.0926C74.2686 43.0413 74.7837 42.0061 75.4488 41.0632C75.8787 42.0663 76.264 43.0895 76.702 44.0926H73.7941Z" fill="white"/>
<path opacity="0.31" d="M78.8641 41.2249C79.5374 41.2329 80.2106 41.237 80.8838 41.245C80.8798 42.1959 80.8798 43.1428 80.8757 44.0897H78.7993C78.8195 43.1348 78.8398 42.1799 78.8641 41.2249Z" fill="white"/>
<path opacity="0.31" d="M97.2497 41.3737C98.4177 41.3617 98.3244 43.2876 98.9327 44.0901H96.0736C96.467 43.1873 96.7711 42.2404 97.2497 41.3737Z" fill="white"/>
<path opacity="0.31" d="M101.154 41.1624C101.949 41.2386 102.748 41.3228 103.551 41.4071C103.539 42.3059 103.494 43.2046 103.332 44.0914H101.105C101.117 43.1124 101.134 42.1374 101.154 41.1624Z" fill="white"/>
<path opacity="0.58" d="M22.588 41.2806C23.2572 41.2726 23.9264 41.2606 24.5915 41.2526C24.0967 41.5374 23.6019 41.8183 23.1112 42.1032C23.5411 42.3038 23.971 42.5044 24.4009 42.705C23.9466 42.9016 23.4884 43.0982 23.0341 43.2948C23.61 43.5637 24.19 43.8325 24.774 44.0853H22.5394C22.5556 43.1504 22.5718 42.2155 22.588 41.2806Z" fill="white"/>
<path opacity="0.58" d="M31.4867 41.2752C32.1558 41.2672 32.8291 41.2632 33.4982 41.2592C33.04 41.52 32.5817 41.7808 32.1234 42.0416C32.4113 42.2823 32.6993 42.523 32.9872 42.7678C32.752 42.9163 32.2816 43.2172 32.0504 43.3697C32.5979 43.6144 33.1454 43.8592 33.701 44.0879H31.434C31.4502 43.149 31.4664 42.2141 31.4867 41.2752Z" fill="white"/>
<path opacity="0.58" d="M43.1893 41.2526C43.8788 41.2566 44.5682 41.2646 45.2536 41.2726C44.7791 41.5254 44.3046 41.7822 43.8301 42.035C44.1302 42.2677 44.4303 42.5004 44.7304 42.7331C44.479 42.8896 43.9761 43.1945 43.7246 43.347C44.2965 43.5998 44.8683 43.8486 45.4483 44.0853H43.1285C43.1488 43.1384 43.169 42.1955 43.1893 41.2526Z" fill="white"/>
<path opacity="0.58" d="M47.9202 44.0891C46.736 42.2635 48.4231 40.3175 50.3089 41.6576C49.583 41.7419 48.857 41.8181 48.1311 41.8863C48.1473 42.4079 48.1595 42.9295 48.1757 43.4511C48.6502 43.5314 49.1206 43.6116 49.5951 43.6919C49.3924 43.2625 49.1855 42.8372 48.9828 42.4079C49.2301 42.444 49.7249 42.5122 49.9723 42.5443C50.0453 43.0619 50.1224 43.5755 50.1954 44.0891H47.9202Z" fill="white"/>
<path opacity="0.58" d="M52.6417 41.2982C53.3149 41.2781 53.9841 41.2621 54.6573 41.246C54.1828 41.5028 53.7083 41.7556 53.2379 42.0124C53.6434 42.2692 54.049 42.522 54.4545 42.7787C54.126 42.875 53.4609 43.0717 53.1324 43.1679C53.6718 43.4649 54.2031 43.7778 54.7384 44.0868H52.6174C52.6255 43.1559 52.6336 42.2291 52.6417 41.2982Z" fill="white"/>
<path opacity="0.58" d="M62.1355 41.1193C64.0416 40.7943 65.019 42.5959 63.9483 44.0885H62.0666C62.0828 43.0974 62.1071 42.1104 62.1355 41.1193ZM62.6506 41.665C62.6587 42.3552 62.6708 43.0453 62.6871 43.7394C63.0764 43.5749 63.4657 43.4064 63.8551 43.2419C63.8023 42.7805 63.7456 42.319 63.6928 41.8616C63.4333 41.8095 62.9101 41.7132 62.6506 41.665Z" fill="white"/>
<path opacity="0.58" d="M67.0926 41.2624C67.4049 41.2383 68.0254 41.1942 68.3377 41.1701C68.1309 41.4349 67.9281 41.7037 67.7212 41.9686C68.1633 42.6707 68.5891 43.3769 69.0109 44.0871H66.9264C66.9061 43.9346 66.8615 43.6337 66.8371 43.4812C67.2508 43.4571 67.6604 43.4331 68.0741 43.405C67.6401 42.9436 67.2021 42.4862 66.7682 42.0247C66.8493 41.8321 67.0115 41.451 67.0926 41.2624Z" fill="white"/>
<path opacity="0.58" d="M83.4333 41.2967C84.0984 41.2807 84.7594 41.2646 85.4286 41.2526C84.9338 41.5415 84.4431 41.8303 83.9524 42.1192C84.3944 42.3198 84.8365 42.5165 85.2826 42.7171C84.8081 42.9057 84.3336 43.0942 83.8631 43.2868C84.4431 43.5597 85.023 43.8325 85.6151 44.0893H83.3886C83.4008 43.1584 83.417 42.2276 83.4333 41.2967Z" fill="white"/>
<path opacity="0.58" d="M91.0105 41.2031C91.4688 41.5802 91.9271 41.9574 92.3854 42.3386C92.8761 41.9654 93.3668 41.5963 93.8616 41.2271C93.8697 42.1781 93.8778 43.133 93.8819 44.0879H93.4236C93.4236 43.6024 93.4195 43.117 93.4195 42.6315C93.1113 42.7759 92.8071 42.9203 92.503 43.0648C92.1542 42.9404 91.8095 42.816 91.4607 42.6876C91.4607 43.1531 91.4566 43.6225 91.4526 44.0879H90.9821C90.9903 43.125 90.9984 42.166 91.0105 41.2031Z" fill="white"/>
<path opacity="0.75" d="M38.9979 44.0867C39.0546 43.0876 39.1236 42.0926 39.2574 41.1015C39.3953 41.916 39.517 42.7345 39.6224 43.553C40.0685 43.7336 40.5187 43.9142 40.9729 44.0867H38.9979Z" fill="white"/>
<path opacity="0.75" d="M106.053 41.298C106.621 41.2859 107.189 41.2779 107.761 41.2699C107.266 41.5467 106.775 41.8196 106.285 42.1005C106.739 42.3091 107.197 42.5217 107.655 42.7304C107.303 42.8467 106.593 43.0795 106.24 43.1958C106.893 43.5168 107.554 43.8217 108.235 44.0866H105.968C105.997 43.1557 106.025 42.2248 106.053 41.298Z" fill="white"/>
</g>
<defs>
<clipPath id="clip0_0_446">
<rect width="121.667" height="43.3333" fill="white" transform="translate(0.166748 0.755737)"/>
</clipPath>
</defs>
</svg>
