<svg width="21" height="21" viewBox="0 0 21 21" fill="none" xmlns="http://www.w3.org/2000/svg">
<path d="M9.00205 13.8341H12.3354C12.5715 13.8341 12.7696 13.7541 12.9296 13.5941C13.0896 13.4341 13.1693 13.2364 13.1687 13.0008V11.3341H11.5021V12.1675H9.83539V8.83415H11.5021V9.66748H13.1687V8.00081C13.1687 7.7647 13.0887 7.56693 12.9287 7.40748C12.7687 7.24804 12.5709 7.16804 12.3354 7.16748H9.00205C8.76594 7.16748 8.56817 7.24748 8.40872 7.40748C8.24928 7.56748 8.16928 7.76526 8.16872 8.00081V13.0008C8.16872 13.2369 8.24872 13.435 8.40872 13.595C8.56872 13.755 8.7665 13.8347 9.00205 13.8341ZM10.6687 18.8341C9.51594 18.8341 8.43261 18.6153 7.41872 18.1775C6.40483 17.7397 5.52289 17.1461 4.77289 16.3966C4.02289 15.6466 3.42928 14.7647 2.99205 13.7508C2.55483 12.7369 2.33594 11.6536 2.33539 10.5008C2.33539 9.34804 2.55428 8.2647 2.99205 7.25081C3.42983 6.23693 4.02344 5.35498 4.77289 4.60498C5.52289 3.85498 6.40483 3.26137 7.41872 2.82415C8.43261 2.38692 9.51594 2.16804 10.6687 2.16748C11.8215 2.16748 12.9048 2.38637 13.9187 2.82415C14.9326 3.26192 15.8146 3.85554 16.5646 4.60498C17.3146 5.35498 17.9084 6.23693 18.3462 7.25081C18.784 8.2647 19.0026 9.34804 19.0021 10.5008C19.0021 11.6536 18.7832 12.7369 18.3454 13.7508C17.9076 14.7647 17.314 15.6466 16.5646 16.3966C15.8146 17.1466 14.9326 17.7405 13.9187 18.1783C12.9048 18.6161 11.8215 18.8347 10.6687 18.8341ZM10.6687 17.1675C12.5298 17.1675 14.1062 16.5216 15.3979 15.23C16.6896 13.9383 17.3354 12.3619 17.3354 10.5008C17.3354 8.6397 16.6896 7.06331 15.3979 5.77165C14.1062 4.47998 12.5298 3.83415 10.6687 3.83415C8.80761 3.83415 7.23122 4.47998 5.93955 5.77165C4.64789 7.06331 4.00205 8.6397 4.00205 10.5008C4.00205 12.3619 4.64789 13.9383 5.93955 15.23C7.23122 16.5216 8.80761 17.1675 10.6687 17.1675Z" fill="white"/>
</svg>
