<svg width="27" height="27" viewBox="0 0 27 27" fill="none" xmlns="http://www.w3.org/2000/svg">
<path fill-rule="evenodd" clip-rule="evenodd" d="M13.2591 3.57227C10.6224 3.57227 10.2918 3.58344 9.2563 3.63069C8.22295 3.67782 7.51721 3.84195 6.89968 4.08197C6.26126 4.33003 5.71984 4.662 5.18008 5.20172C4.64036 5.74148 4.3084 6.2829 4.06033 6.92131C3.82032 7.53884 3.65618 8.24459 3.60905 9.27794C3.5618 10.3134 3.55063 10.6441 3.55063 13.2807C3.55063 15.9174 3.5618 16.248 3.60905 17.2835C3.65618 18.3169 3.82032 19.0226 4.06033 19.6401C4.3084 20.2785 4.64036 20.82 5.18008 21.3597C5.71984 21.8994 6.26126 22.2314 6.89968 22.4795C7.51721 22.7195 8.22295 22.8836 9.2563 22.9308C10.2918 22.978 10.6224 22.9892 13.2591 22.9892C15.8957 22.9892 16.2264 22.978 17.2619 22.9308C18.2952 22.8836 19.001 22.7195 19.6185 22.4795C20.2569 22.2314 20.7983 21.8994 21.3381 21.3597C21.8778 20.82 22.2098 20.2785 22.4579 19.6401C22.6978 19.0226 22.862 18.3169 22.9091 17.2835C22.9564 16.248 22.9675 15.9174 22.9675 13.2807C22.9675 10.6441 22.9564 10.3134 22.9091 9.27794C22.862 8.24459 22.6978 7.53884 22.4579 6.92131C22.2098 6.2829 21.8778 5.74148 21.3381 5.20172C20.7983 4.662 20.2569 4.33003 19.6185 4.08197C19.001 3.84195 18.2952 3.67782 17.2619 3.63069C16.2264 3.58344 15.8957 3.57227 13.2591 3.57227ZM13.2595 5.3217C15.8518 5.3217 16.1589 5.3316 17.1826 5.37831C18.1291 5.42147 18.6432 5.57963 18.9853 5.71258C19.4385 5.8887 19.7619 6.09908 20.1016 6.43883C20.4413 6.77854 20.6517 7.10195 20.8278 7.55511C20.9608 7.89721 21.1189 8.41127 21.1621 9.35783C21.2088 10.3816 21.2187 10.6886 21.2187 13.2809C21.2187 15.8731 21.2088 16.1802 21.1621 17.2039C21.1189 18.1505 20.9608 18.6646 20.8278 19.0067C20.6517 19.4598 20.4413 19.7832 20.1016 20.1229C19.7619 20.4627 19.4385 20.6731 18.9853 20.8492C18.6432 20.9821 18.1291 21.1403 17.1826 21.1835C16.159 21.2302 15.852 21.2401 13.2595 21.2401C10.6671 21.2401 10.3601 21.2302 9.33648 21.1835C8.38992 21.1403 7.87586 20.9821 7.53376 20.8492C7.0806 20.6731 6.75719 20.4627 6.41748 20.1229C6.07776 19.7832 5.86735 19.4598 5.69123 19.0067C5.55828 18.6646 5.40012 18.1505 5.35695 17.2039C5.31025 16.1802 5.30034 15.8731 5.30034 13.2809C5.30034 10.6886 5.31025 10.3816 5.35695 9.35783C5.40012 8.41127 5.55828 7.89721 5.69123 7.55511C5.86735 7.10195 6.07773 6.77854 6.41748 6.43883C6.75719 6.09908 7.0806 5.8887 7.53376 5.71258C7.87586 5.57963 8.38992 5.42147 9.33648 5.37831C10.3602 5.3316 10.6673 5.3217 13.2595 5.3217ZM8.27197 13.2823C8.27197 10.5289 10.504 8.29688 13.2574 8.29688C16.0108 8.29688 18.2428 10.5289 18.2428 13.2823C18.2428 16.0357 16.0108 18.2677 13.2574 18.2677C10.504 18.2677 8.27197 16.0357 8.27197 13.2823ZM13.2579 16.516C11.4706 16.516 10.0217 15.0671 10.0217 13.2799C10.0217 11.4926 11.4706 10.0437 13.2579 10.0437C15.0451 10.0437 16.494 11.4926 16.494 13.2799C16.494 15.0671 15.0451 16.516 13.2579 16.516ZM18.4373 9.26279C19.0808 9.26279 19.6024 8.74122 19.6024 8.09779C19.6024 7.45437 19.0808 6.93276 18.4373 6.93276C17.7939 6.93276 17.2723 7.45437 17.2723 8.09779C17.2723 8.74122 17.7939 9.26279 18.4373 9.26279Z" fill="white"/>
</svg>
