<svg width="29" height="29" viewBox="0 0 29 29" fill="none" xmlns="http://www.w3.org/2000/svg">
<path d="M19.5616 4.41628C20.8775 3.05439 22.1918 1.69196 23.5083 0.330078C23.5089 1.59844 23.5083 2.86624 23.5083 4.1346C23.8952 4.52529 24.2875 4.911 24.6732 5.30335C24.7208 5.34541 24.7651 5.41016 24.8381 5.40241C26.0855 5.40517 27.3333 5.40185 28.5812 5.40351C27.2182 6.76706 25.8564 8.1317 24.4906 9.49248C23.4121 9.58379 22.3341 9.68063 21.2555 9.77249C19.892 11.1338 18.5301 12.4968 17.1682 13.8598C17.3674 14.2793 17.3187 14.7673 17.2291 15.2095C17.0365 16.0086 16.4781 16.7164 15.7388 17.0788C15.0952 17.4253 14.3078 17.4712 13.6171 17.2449C12.9343 17.0102 12.3338 16.5194 12.0024 15.8736C11.6747 15.3003 11.5967 14.6002 11.7356 13.9594C11.962 12.9367 12.7992 12.0829 13.8152 11.8316C14.2651 11.7143 14.7328 11.7558 15.1921 11.7481C16.5545 10.3862 17.9147 9.02321 19.2777 7.66188C19.374 6.58001 19.4648 5.49814 19.5616 4.41628Z" fill="white"/>
<path d="M8.62267 1.7609C12.3016 0.0465074 16.7264 0.045954 20.4131 1.73821C19.7435 2.40725 19.0761 3.07906 18.4038 3.74534C18.3307 3.80731 18.303 3.90028 18.2759 3.98827C17.4364 3.71601 16.5792 3.48967 15.7021 3.37789C13.2091 3.05582 10.627 3.68834 8.512 5.0303C5.90666 6.65282 4.02404 9.38101 3.42915 12.392C3.05285 14.3255 3.17293 16.3681 3.83921 18.2258C4.81759 21.0873 7.00291 23.5117 9.74992 24.7784C11.9502 25.8326 14.5041 26.1049 16.8853 25.5847C19.2261 25.0645 21.3915 23.784 22.9648 21.9727C24.869 19.8085 25.9265 16.8899 25.7428 14.0029C25.6996 12.905 25.4666 11.8253 25.2049 10.7612C25.9088 10.1021 26.6154 9.44631 27.3194 8.78723C28.4532 11.0904 28.7759 13.7384 28.4815 16.2723C28.2059 18.5578 27.3492 20.7697 26.0194 22.649C24.8081 24.3728 23.2077 25.821 21.3716 26.8536C19.3379 28.008 17.0103 28.6283 14.6728 28.6626H14.275C12.3348 28.6255 10.4024 28.195 8.64038 27.3799C5.38979 25.8946 2.74904 23.1315 1.41759 19.814C0.601904 17.8041 0.268213 15.6022 0.443636 13.4401C0.640641 10.9327 1.53491 8.48453 2.99751 6.43866C4.42192 4.42434 6.38312 2.79462 8.62267 1.7609Z" fill="white"/>
<path d="M12.2745 6.41453C13.7321 6.00613 15.2998 6.02218 16.7586 6.41785C17.1891 6.5147 17.6014 6.67352 18.0192 6.81408C18.0192 6.84783 18.0192 6.91645 18.0197 6.95021C17.3158 7.65799 16.608 8.36134 15.9041 9.06802C15.4852 9.05363 15.0763 8.9507 14.6574 8.93354C13.6076 8.90034 12.5506 9.17261 11.6469 9.70828C10.5285 10.3646 9.64479 11.416 9.20374 12.6368C8.7483 13.8587 8.74498 15.2427 9.19378 16.4673C9.62597 17.6804 10.4937 18.7296 11.5977 19.3909C12.6851 20.0566 14.0066 20.3233 15.2683 20.1446C16.3601 19.9974 17.3999 19.5104 18.2228 18.7794C19.3517 17.7894 20.0606 16.3301 20.1204 14.8277C20.1331 14.2693 20.1469 13.6982 19.992 13.1559C20.6184 12.4824 21.2482 11.8123 21.8729 11.1371C21.9277 11.0624 22.0102 11.0309 22.1015 11.0303C22.2548 11.4016 22.4468 11.7591 22.5569 12.1476C23.3162 14.4287 22.9332 17.0301 21.6472 19.0494C20.4923 20.8961 18.6002 22.2735 16.4785 22.777C14.0818 23.3741 11.43 22.8379 9.46328 21.3404C7.5054 19.9039 6.21823 17.5846 6.06605 15.1575C5.9764 13.9295 6.16123 12.6816 6.60947 11.5345C7.54912 9.06248 9.71728 7.09575 12.2745 6.41453Z" fill="white"/>
</svg>
