<svg width="178" height="54" viewBox="0 0 178 54" fill="none" xmlns="http://www.w3.org/2000/svg">
<path d="M2.83663 12.2602H7.68099V36.833H2.83663V12.2602ZM36.627 12.2602V36.833H31.8178V20.8958L24.9023 32.3046H24.3406L17.4251 20.9309V36.833H12.5807V12.2602H17.5655L24.6214 23.8796L31.6422 12.2602H36.627ZM50.7188 12.2602C53.0825 12.2602 55.0717 13.0559 56.6865 14.6472C58.3013 16.2386 59.1087 18.1928 59.1087 20.5096C59.1087 22.8265 58.3013 24.7806 56.6865 26.372C55.0717 27.9634 53.0825 28.7591 50.7188 28.7591H46.401V36.833H41.5567V12.2602H50.7188ZM50.7188 24.2307C51.7485 24.2307 52.6027 23.8796 53.2814 23.1775C53.9601 22.452 54.2994 21.5627 54.2994 20.5096C54.2994 19.4331 53.9601 18.5438 53.2814 17.8417C52.6027 17.1396 51.7485 16.7886 50.7188 16.7886H46.401V24.2307H50.7188ZM76.0936 36.833L71.1439 28.3027H67.458V36.833H62.6136V12.2602H72.4427C74.7128 12.2602 76.6435 13.0559 78.2349 14.6472C79.8263 16.2386 80.622 18.1577 80.622 20.4043C80.622 21.9255 80.189 23.3414 79.3231 24.6519C78.4572 25.9391 77.3105 26.9103 75.8829 27.5655L81.3241 36.833H76.0936ZM67.458 16.7886V24.0551H72.4427C73.3555 24.0551 74.1394 23.7041 74.7947 23.002C75.45 22.2765 75.7776 21.4106 75.7776 20.4043C75.7776 19.398 75.45 18.5438 74.7947 17.8417C74.1394 17.1396 73.3555 16.7886 72.4427 16.7886H67.458ZM145.363 36.833L137.113 12.2602H142.379L148.382 31.1462L154.35 12.2602H159.65L151.366 36.833H145.363ZM167.214 32.1993H177.569V36.833H162.369V12.2602H177.394V16.8939H167.214V22.1244H176.516V26.6879H167.214V32.1993Z" fill="white"/>
<path fill-rule="evenodd" clip-rule="evenodd" d="M119.151 39.3962C123.06 39.3962 126.378 38.0461 129.104 35.3458C131.83 32.6197 133.193 29.2893 133.193 25.3546C133.193 21.4199 131.83 18.1023 129.104 15.402C126.378 12.676 123.06 11.313 119.151 11.313C115.242 11.313 111.925 12.676 109.199 15.402C109.15 15.4506 109.102 15.4993 109.054 15.5483C109.026 15.5204 108.999 15.4926 108.971 15.4649C106.245 12.7389 102.927 11.3759 99.0181 11.3759C95.109 11.3759 91.7915 12.7389 89.0655 15.4649C86.3652 18.1652 85.015 21.4827 85.015 25.4175C85.015 29.3522 86.3652 32.6826 89.0655 35.4086C91.7915 38.1089 95.109 39.4591 99.0181 39.4591C102.927 39.4591 106.245 38.1089 108.971 35.4086C109.019 35.3598 109.068 35.3108 109.116 35.2616C109.143 35.2897 109.171 35.3178 109.199 35.3458C111.925 38.0461 115.242 39.3962 119.151 39.3962ZM106.1 20.0666C105.465 21.6841 105.148 23.4468 105.148 25.3546C105.148 27.2921 105.475 29.083 106.13 30.7274C105.863 31.097 105.563 31.4487 105.229 31.7825C103.557 33.4284 101.487 34.2513 99.0181 34.2513C96.5492 34.2513 94.479 33.4284 92.8073 31.7825C91.1357 30.1109 90.2999 27.9892 90.2999 25.4175C90.2999 22.8457 91.1357 20.7241 92.8073 19.0524C94.479 17.3808 96.5492 16.545 99.0181 16.545C101.487 16.545 103.557 17.3808 105.229 19.0524C105.55 19.3738 105.841 19.7119 106.1 20.0666ZM112.09 30.7348C112.345 31.0788 112.628 31.4071 112.94 31.7196C114.612 33.3655 116.682 34.1885 119.151 34.1885C121.62 34.1885 123.69 33.3655 125.362 31.7196C127.033 30.048 127.869 27.9263 127.869 25.3546C127.869 22.7829 127.033 20.6612 125.362 18.9896C123.69 17.318 121.62 16.4822 119.151 16.4822C116.682 16.4822 114.612 17.318 112.94 18.9896C112.613 19.3166 112.318 19.6608 112.055 20.0222C112.725 21.669 113.06 23.4675 113.06 25.4175C113.06 27.3332 112.737 29.1056 112.09 30.7348Z" fill="#FEBB0E"/>
</svg>
