<svg width="43" height="40" viewBox="0 0 43 40" fill="none" xmlns="http://www.w3.org/2000/svg">
<path d="M41.031 6.89082L21.9295 0.587263C21.6027 0.479422 21.2494 0.479422 20.9227 0.587263L1.82112 6.89082C1.50416 6.99542 1.22849 7.19611 1.03315 7.46445C0.837805 7.73279 0.732702 8.05518 0.732727 8.38594V24.1448C0.732727 24.5628 0.900433 24.9636 1.19895 25.2592C1.49747 25.5547 1.90235 25.7207 2.32452 25.7207C2.74669 25.7207 3.15157 25.5547 3.45009 25.2592C3.74861 24.9636 3.91632 24.5628 3.91632 24.1448V10.5725L10.5999 12.7768C8.82414 15.6169 8.25946 19.0386 9.02983 22.2906C9.8002 25.5426 11.8426 28.359 14.7087 30.1214C11.1271 31.5121 8.03111 34.0276 5.76678 37.467C5.64902 37.6403 5.56722 37.835 5.52614 38.0399C5.48506 38.2447 5.48552 38.4556 5.5275 38.6603C5.56947 38.8649 5.65211 39.0593 5.77063 39.2321C5.88915 39.4048 6.04117 39.5526 6.21786 39.6667C6.39455 39.7808 6.59239 39.8589 6.79987 39.8967C7.00735 39.9344 7.22034 39.9309 7.42646 39.8865C7.63257 39.842 7.8277 39.7574 8.0005 39.6376C8.1733 39.5178 8.32033 39.3652 8.43304 39.1887C11.4316 34.6343 16.1672 32.0243 21.4261 32.0243C26.685 32.0243 31.4205 34.6343 34.4191 39.1887C34.6526 39.5322 35.0132 39.771 35.4231 39.8533C35.8329 39.9357 36.2591 39.8551 36.6094 39.6289C36.9597 39.4027 37.206 39.0491 37.2951 38.6446C37.3841 38.24 37.3088 37.817 37.0853 37.467C34.821 34.0276 31.713 31.5121 28.1434 30.1214C31.0067 28.3591 33.0472 25.5445 33.8175 22.2949C34.5877 19.0453 34.0248 15.6259 32.2523 12.7866L41.031 9.89092C41.348 9.78637 41.6238 9.58571 41.8192 9.31737C42.0146 9.04902 42.1198 8.7266 42.1198 8.39579C42.1198 8.06499 42.0146 7.74256 41.8192 7.47422C41.6238 7.20587 41.348 7.00521 41.031 6.90067V6.89082ZM30.9768 19.4172C30.9773 20.912 30.6197 22.3856 29.9334 23.7172C29.2472 25.0487 28.2518 26.2002 27.029 27.0772C25.8062 27.9541 24.3908 28.5315 22.899 28.7621C21.4071 28.9926 19.8813 28.8697 18.4467 28.4034C17.0121 27.937 15.7097 27.1406 14.6462 26.0795C13.5827 25.0183 12.7885 23.7227 12.3288 22.2988C11.869 20.8749 11.7568 19.3635 12.0014 17.8883C12.246 16.4132 12.8403 15.0166 13.7357 13.8129L20.9227 16.1767C21.2494 16.2846 21.6027 16.2846 21.9295 16.1767L29.1164 13.8129C30.3258 15.4361 30.9778 17.4002 30.9768 19.4172ZM21.4261 13.0289L7.35857 8.38594L21.4261 3.74298L35.4936 8.38594L21.4261 13.0289Z" fill="#0047FF"/>
</svg>
