<svg width="27" height="27" viewBox="0 0 27 27" fill="none" xmlns="http://www.w3.org/2000/svg">
<path d="M13.819 3.56348C8.45761 3.56348 4.11002 7.90993 4.11002 13.2725C4.11002 17.2468 6.50074 20.6627 9.92242 22.1641C9.89501 21.487 9.91785 20.6719 10.0902 19.9343C10.2775 19.1466 11.3393 14.6448 11.3393 14.6448C11.3393 14.6448 11.0299 14.0249 11.0299 13.1081C11.0299 11.6696 11.8644 10.5952 12.9023 10.5952C13.7848 10.5952 14.2118 11.2585 14.2118 12.0532C14.2118 12.9403 13.6455 14.2681 13.3544 15.4977C13.1112 16.5286 13.8704 17.3678 14.8865 17.3678C16.7258 17.3678 17.9646 15.0056 17.9646 12.2062C17.9646 10.0792 16.5317 8.48649 13.9252 8.48649C10.9808 8.48649 9.14606 10.682 9.14606 13.1344C9.14606 13.9815 9.39495 14.5775 9.78541 15.0387C9.9658 15.2522 9.98978 15.3367 9.9247 15.581C9.87903 15.758 9.77171 16.1895 9.72718 16.3597C9.66211 16.6051 9.46345 16.6942 9.24196 16.6028C7.88448 16.0491 7.25312 14.5638 7.25312 12.8935C7.25312 10.1362 9.57876 6.8276 14.1912 6.8276C17.8983 6.8276 20.3382 9.51174 20.3382 12.39C20.3382 16.1987 18.2214 19.0438 15.0989 19.0438C14.0519 19.0438 13.0655 18.4775 12.7276 17.8347C12.7276 17.8347 12.1636 20.0713 12.0448 20.5029C11.8393 21.2507 11.4363 21.9997 11.0675 22.5819C11.9409 22.84 12.8634 22.9804 13.819 22.9804C19.1805 22.9804 23.5269 18.6339 23.5269 13.2725C23.5269 7.90993 19.1805 3.56348 13.819 3.56348Z" fill="white"/>
</svg>
