<svg width="178" height="54" viewBox="0 0 178 54" fill="none" xmlns="http://www.w3.org/2000/svg">
<path d="M2.6152 12.3271H7.45956V36.8999H2.6152V12.3271ZM36.4056 12.3271V36.8999H31.5963V20.9627L24.6808 32.3715H24.1192L17.2037 20.9978V36.8999H12.3593V12.3271H17.3441L24.4 23.9465L31.4208 12.3271H36.4056ZM50.4974 12.3271C52.8611 12.3271 54.8503 13.1228 56.4651 14.7141C58.0799 16.3055 58.8873 18.2597 58.8873 20.5765C58.8873 22.8934 58.0799 24.8475 56.4651 26.4389C54.8503 28.0303 52.8611 28.826 50.4974 28.826H46.1796V36.8999H41.3352V12.3271H50.4974ZM50.4974 24.2975C51.5271 24.2975 52.3813 23.9465 53.06 23.2444C53.7387 22.5189 54.078 21.6296 54.078 20.5765C54.078 19.5 53.7387 18.6107 53.06 17.9086C52.3813 17.2065 51.5271 16.8555 50.4974 16.8555H46.1796V24.2975H50.4974ZM75.8721 36.8999L70.9225 28.3696H67.2365V36.8999H62.3922V12.3271H72.2213C74.4914 12.3271 76.4221 13.1228 78.0135 14.7141C79.6049 16.3055 80.4006 18.2245 80.4006 20.4712C80.4006 21.9924 79.9676 23.4082 79.1017 24.7188C78.2358 26.0059 77.0891 26.9772 75.6615 27.6324L81.1026 36.8999H75.8721ZM67.2365 16.8555V24.122H72.2213C73.134 24.122 73.918 23.771 74.5733 23.0689C75.2286 22.3434 75.5562 21.4775 75.5562 20.4712C75.5562 19.4649 75.2286 18.6107 74.5733 17.9086C73.918 17.2065 73.134 16.8555 72.2213 16.8555H67.2365ZM145.141 36.8999L136.892 12.3271H142.158L148.16 31.213L154.128 12.3271H159.429L151.144 36.8999H145.141ZM166.992 32.2662H177.348V36.8999H162.148V12.3271H177.173V16.9608H166.992V22.1913H176.295V26.7548H166.992V32.2662Z" fill="white"/>
<path fill-rule="evenodd" clip-rule="evenodd" d="M118.93 39.4631C122.839 39.4631 126.156 38.113 128.882 35.4127C131.608 32.6866 132.971 29.3562 132.971 25.4215C132.971 21.4868 131.608 18.1692 128.882 15.4689C126.156 12.7429 122.839 11.3799 118.93 11.3799C115.021 11.3799 111.703 12.7429 108.977 15.4689C108.929 15.5175 108.88 15.5662 108.833 15.6152C108.805 15.5873 108.777 15.5595 108.749 15.5318C106.023 12.8058 102.706 11.4427 98.7967 11.4427C94.8876 11.4427 91.5701 12.8058 88.8441 15.5318C86.1438 18.2321 84.7936 21.5496 84.7936 25.4844C84.7936 29.4191 86.1438 32.7495 88.8441 35.4755C91.5701 38.1758 94.8876 39.526 98.7967 39.526C102.706 39.526 106.023 38.1758 108.749 35.4755C108.798 35.4267 108.846 35.3777 108.894 35.3285C108.922 35.3566 108.949 35.3847 108.977 35.4127C111.703 38.113 115.021 39.4631 118.93 39.4631ZM105.879 20.1335C105.244 21.751 104.927 23.5137 104.927 25.4215C104.927 27.3589 105.254 29.1499 105.909 30.7943C105.642 31.1639 105.341 31.5156 105.007 31.8494C103.336 33.4953 101.266 34.3182 98.7967 34.3182C96.3278 34.3182 94.2576 33.4953 92.5859 31.8494C90.9143 30.1778 90.0785 28.0561 90.0785 25.4844C90.0785 22.9126 90.9143 20.791 92.5859 19.1193C94.2576 17.4477 96.3278 16.6119 98.7967 16.6119C101.266 16.6119 103.336 17.4477 105.007 19.1193C105.329 19.4407 105.619 19.7788 105.879 20.1335ZM111.869 30.8017C112.123 31.1457 112.406 31.474 112.719 31.7865C114.391 33.4324 116.461 34.2554 118.93 34.2554C121.399 34.2554 123.469 33.4324 125.14 31.7865C126.812 30.1149 127.648 27.9932 127.648 25.4215C127.648 22.8498 126.812 20.7281 125.14 19.0565C123.469 17.3849 121.399 16.549 118.93 16.549C116.461 16.549 114.391 17.3849 112.719 19.0565C112.392 19.3835 112.097 19.7277 111.834 20.0891C112.504 21.7359 112.838 23.5344 112.838 25.4844C112.838 27.4001 112.515 29.1725 111.869 30.8017Z" fill="#FEBB0E"/>
</svg>
