<svg width="49" height="29" viewBox="0 0 49 29" fill="none" xmlns="http://www.w3.org/2000/svg">
<path fill-rule="evenodd" clip-rule="evenodd" d="M34.9297 28.1909C38.8387 28.1909 42.1562 26.8407 44.8823 24.1404C47.6083 21.4144 48.9713 18.084 48.9713 14.1493C48.9713 10.2145 47.6083 6.89702 44.8823 4.19671C42.1562 1.47068 38.8387 0.107666 34.9297 0.107666C31.0207 0.107666 27.7032 1.47068 24.9771 4.19671C24.9286 4.24526 24.8805 4.29401 24.8328 4.34296C24.8051 4.3151 24.7772 4.2873 24.7492 4.25957C22.0232 1.53354 18.7057 0.170527 14.7967 0.170527C10.8876 0.170527 7.57011 1.53354 4.84408 4.25957C2.14377 6.95988 0.79361 10.2774 0.79361 14.2121C0.79361 18.1469 2.14377 21.4773 4.84408 24.2033C7.57011 26.9036 10.8876 28.2538 14.7967 28.2538C18.7057 28.2538 22.0232 26.9036 24.7492 24.2033C24.798 24.1545 24.8464 24.1055 24.8944 24.0563C24.9218 24.0844 24.9494 24.1124 24.9771 24.1404C27.7032 26.8407 31.0207 28.1909 34.9297 28.1909ZM21.8789 8.86124C21.2441 10.4788 20.9267 12.2415 20.9267 14.1493C20.9267 16.0867 21.254 17.8776 21.9087 19.522C21.6416 19.8917 21.3411 20.2434 21.0074 20.5772C19.3357 22.2231 17.2655 23.046 14.7967 23.046C12.3278 23.046 10.2576 22.2231 8.58594 20.5772C6.91431 18.9055 6.0785 16.7839 6.0785 14.2121C6.0785 11.6404 6.91431 9.51875 8.58594 7.84713C10.2576 6.1755 12.3278 5.33969 14.7967 5.33969C17.2655 5.33969 19.3357 6.1755 21.0074 7.84713C21.3288 8.16852 21.6193 8.50657 21.8789 8.86124ZM27.869 19.5295C28.1231 19.8735 28.4064 20.2018 28.719 20.5143C30.3906 22.1602 32.4608 22.9832 34.9297 22.9832C37.3986 22.9832 39.4688 22.1602 41.1404 20.5143C42.812 18.8427 43.6478 16.721 43.6478 14.1493C43.6478 11.5776 42.812 9.45589 41.1404 7.78426C39.4688 6.11264 37.3986 5.27683 34.9297 5.27683C32.4608 5.27683 30.3906 6.11264 28.719 7.78426C28.392 8.11125 28.097 8.45546 27.834 8.81688C28.5035 10.4637 28.8383 12.2621 28.8383 14.2121C28.8383 16.1278 28.5152 17.9003 27.869 19.5295Z" fill="#FEBB0E"/>
</svg>
